<?xml version="1.0" standalone="no"?>
<!DOCTYPE svg PUBLIC "-//W3C//DTD SVG 1.1//EN" "http://www.w3.org/Graphics/SVG/1.1/DTD/svg11.dtd" >
<svg>
<metadata>
Created by FontForge 20120731 at Thu Jan 14 12:13:02 2016
 By ,,,
Copyright (c) 2000, 2001 Adobe Systems Incorporated. All Rights Reserved. U.S.Patent Des. 327,902.Adobe Garamond is either a registered trademark or a trademark of Adobe Systems Incorporated in the United States and/or other countries.
</metadata>
<defs>
<font id="AGaramondPro-BoldItalic" horiz-adv-x="400" >
  <font-face 
    font-family="Adobe Garamond Pro"
    font-weight="700"
    font-style="italic"
    font-stretch="normal"
    units-per-em="1000"
    panose-1="2 2 7 2 6 5 6 9 4 3"
    ascent="725"
    descent="-275"
    x-height="409"
    cap-height="663"
    bbox="-183.127 -301 1184 894"
    underline-thickness="50"
    underline-position="-50"
    slope="-18.5"
    stemh="53"
    stemv="130"
    unicode-range="U+0020-FB04"
  />
<missing-glyph horiz-adv-x="500" 
d="M0 0v700h500v-700h-500zM250 395l170 255h-340zM280 350l170 -255v510zM80 50h340l-170 255zM50 605v-510l170 255z" />
    <glyph glyph-name="fi" unicode="fi" horiz-adv-x="556" 
d="M148 348h-95c-6 22 4 47 16 52h94c20 61 42 117 73 169c55 91 137 146 233 146c89 0 142 -51 142 -99c-1 -50 -41 -71 -73 -71c-37 0 -47 22 -47 38c-1 69 -22 88 -46 88c-28 0 -52 -24 -78 -70c-34 -58 -64 -155 -78 -201h70c36 0 69 4 96 7c28 4 50 7 63 7
c22 0 31 -22 31 -38s-7 -35 -13 -49l-97 -246c-4 -9 -3 -15 4 -15c14 0 69 39 94 63c12 0 22 -11 19 -24c-39 -52 -128 -119 -208 -119c-26 0 -48 28 -48 40c0 11 4 23 12 43l92 236c14 36 3 43 -22 43h-108c-39 -124 -69 -243 -108 -360c-22 -66 -45 -129 -71 -168
c-31 -46 -91 -89 -158 -89c-46 0 -101 24 -101 77c0 33 29 59 56 59c16 0 24 -9 28 -21c25 -45 49 -66 60 -66s20 20 38 85c42 155 86 316 130 483z" />
    <glyph glyph-name="fl" unicode="fl" horiz-adv-x="557" 
d="M149 348h-94c-7 21 3 47 15 52h94c15 49 38 112 69 164c51 84 126 151 238 151c41 0 76 -11 98 -30c37 17 67 27 84 30c7 -1 10 -4 10 -10c-15 -42 -29 -77 -47 -130l-165 -476c-10 -28 -13 -46 1 -46c22 0 80 61 104 89c11 1 21 -9 19 -22c-29 -56 -84 -134 -197 -134
c-51 0 -65 23 -65 43c0 15 4 32 14 60l90 259h-143c-39 -124 -70 -243 -108 -360c-22 -66 -45 -129 -71 -168c-31 -46 -91 -89 -158 -89c-46 0 -101 24 -101 77c0 33 29 59 56 59c16 0 24 -9 28 -21c25 -45 49 -66 60 -66s20 20 38 85c42 155 86 316 131 483zM288 400h147
l64 185c17 50 -1 86 -40 86c-28 0 -63 -24 -95 -77c-30 -50 -63 -146 -76 -194z" />
    <glyph glyph-name="ff" unicode="ff" horiz-adv-x="570" 
d="M63 400h100c14 47 33 100 64 153c42 72 111 138 219 138c60 0 90 -32 98 -54c35 38 96 78 166 78c80 0 116 -44 116 -90c-1 -51 -44 -76 -64 -76c-16 0 -25 12 -29 29c-18 74 -39 93 -52 93s-33 -24 -55 -74c-28 -63 -48 -131 -66 -197h112c7 -15 1 -45 -16 -52h-110
c-33 -104 -64 -223 -102 -340c-22 -66 -45 -129 -71 -168c-31 -46 -91 -89 -156 -89c-42 0 -92 25 -92 74c0 28 22 54 50 54c14 0 22 -7 28 -19c20 -39 44 -60 55 -60s20 20 38 85c42 155 86 316 126 463h-148c-39 -124 -69 -243 -108 -360c-22 -66 -45 -129 -71 -168
c-31 -46 -91 -89 -158 -89c-46 0 -101 24 -101 77c0 33 29 59 56 59c16 0 24 -9 28 -21c25 -45 49 -66 60 -66s20 20 38 85c42 155 86 316 130 483h-97c-6 21 4 47 12 52zM287 400h149c20 57 37 112 63 165c-10 44 -26 82 -65 82c-32 0 -59 -20 -88 -77
c-26 -51 -48 -128 -59 -170z" />
    <glyph glyph-name="ffi" unicode="ffi" horiz-adv-x="828" 
d="M63 400h100c14 47 33 100 64 153c42 72 111 138 222 138c62 0 92 -32 102 -60c37 40 98 84 190 84c89 0 142 -51 142 -99c-1 -50 -41 -71 -73 -71c-37 0 -47 22 -47 38c-1 69 -22 88 -46 88c-28 0 -52 -24 -78 -70c-34 -58 -64 -155 -78 -201h70c71 0 132 14 159 14
c22 0 31 -22 31 -38s-7 -35 -13 -49l-97 -246c-4 -9 -3 -15 4 -15c14 0 69 39 94 63c12 0 22 -11 19 -24c-39 -52 -128 -119 -208 -119c-26 0 -48 28 -48 40c0 11 4 23 12 43l92 236c14 36 3 43 -22 43h-108c-33 -104 -64 -223 -102 -340c-22 -66 -45 -129 -71 -168
c-31 -46 -91 -89 -156 -89c-42 0 -92 25 -92 74c0 28 22 54 50 54c14 0 22 -7 28 -19c20 -39 44 -60 55 -60s20 20 38 85c42 155 86 316 126 463h-148c-39 -124 -69 -243 -108 -360c-22 -66 -45 -129 -71 -168c-31 -46 -91 -89 -158 -89c-46 0 -101 24 -101 77
c0 33 29 59 56 59c16 0 24 -9 28 -21c25 -45 49 -66 60 -66s20 20 38 85c42 155 86 316 130 483h-97c-6 21 4 47 12 52zM287 400h149c20 57 38 112 69 165c-6 44 -27 82 -68 82c-35 0 -63 -20 -91 -77c-26 -51 -48 -128 -59 -170z" />
    <glyph glyph-name="ffl" unicode="ffl" horiz-adv-x="829" 
d="M63 400h100c14 47 33 100 64 153c42 72 111 138 217 138c67 0 100 -34 108 -58c36 40 102 82 183 82c47 0 84 -11 106 -30c37 17 67 27 84 30c7 -1 10 -4 10 -10c-15 -42 -29 -77 -47 -130l-165 -476c-10 -28 -13 -46 1 -46c22 0 80 61 104 89c11 1 21 -9 19 -22
c-29 -56 -84 -134 -197 -134c-51 0 -65 23 -65 43c0 15 4 32 14 60l90 259h-143c-33 -104 -64 -223 -102 -340c-22 -66 -45 -129 -71 -168c-31 -46 -91 -89 -156 -89c-42 0 -92 25 -92 74c0 28 22 54 50 54c14 0 22 -7 28 -19c20 -39 44 -60 55 -60s20 20 38 85
c42 155 86 316 126 463h-148c-39 -124 -69 -243 -108 -360c-22 -66 -45 -129 -71 -168c-31 -46 -91 -89 -158 -89c-46 0 -101 24 -101 77c0 33 29 59 56 59c16 0 24 -9 28 -21c25 -45 49 -66 60 -66s20 20 38 85c42 155 86 316 130 483h-97c-6 21 4 47 12 52zM287 400h149
c19 59 40 116 68 165c-7 44 -31 82 -70 82c-32 0 -59 -20 -88 -77c-26 -51 -48 -128 -59 -170zM560 400h147l64 185c17 50 -1 86 -40 86c-28 0 -67 -24 -96 -76c-29 -51 -62 -147 -75 -195z" />
    <glyph glyph-name="f_j" unicode="fj" horiz-adv-x="540" 
d="M149 348h-94c-7 21 3 47 15 52h94c18 58 37 117 67 170c45 81 115 145 208 145c80 0 116 -44 116 -90c-1 -51 -44 -76 -64 -76c-16 0 -25 12 -29 29c-18 74 -39 93 -52 93s-33 -24 -55 -74c-29 -63 -48 -131 -66 -197h99c66 0 112 10 156 12c24 1 36 -27 36 -50
c0 -27 -18 -97 -44 -178c-23 -69 -44 -140 -70 -208c-34 -90 -69 -152 -123 -189c-29 -19 -66 -33 -111 -33c-46 0 -99 26 -99 72c0 33 27 59 56 59c12 0 21 -7 28 -17c28 -44 49 -65 55 -65c8 0 19 12 30 40c26 66 77 234 95 293c34 108 50 155 52 176c2 23 -17 36 -51 36
h-124c-39 -124 -70 -243 -108 -360c-22 -66 -45 -129 -71 -168c-31 -46 -91 -89 -158 -89c-46 0 -101 24 -101 77c0 33 29 59 56 59c16 0 24 -9 28 -21c25 -45 49 -66 60 -66s20 20 38 85c42 155 86 316 131 483z" />
    <glyph glyph-name="f_f_j" unicode="ffj" horiz-adv-x="796" 
d="M148 348h-97c-6 21 4 47 12 52h100c14 47 33 100 64 153c42 72 111 138 219 138c60 0 90 -32 98 -54c35 38 96 78 166 78c80 0 116 -44 116 -90c-1 -51 -44 -76 -64 -76c-16 0 -25 12 -29 29c-18 74 -39 93 -52 93s-33 -24 -55 -74c-28 -63 -48 -131 -66 -197h114
c46 0 89 12 126 12c24 0 36 -30 36 -53c0 -27 -18 -97 -44 -178c-23 -69 -44 -140 -70 -208c-34 -90 -69 -152 -123 -189c-29 -19 -66 -33 -111 -33c-46 0 -99 26 -99 72c0 33 27 59 56 59c12 0 21 -7 28 -17c28 -44 49 -65 55 -65c8 0 19 12 30 40c26 66 77 234 95 293
c34 108 50 155 52 176c2 23 -17 39 -51 39h-108c-33 -104 -64 -223 -102 -340c-22 -66 -45 -129 -71 -168c-31 -46 -91 -89 -156 -89c-42 0 -92 25 -92 74c0 28 22 54 50 54c14 0 22 -7 28 -19c20 -39 44 -60 55 -60s20 20 38 85c42 155 86 316 126 463h-148
c-39 -124 -69 -243 -108 -360c-22 -66 -45 -129 -71 -168c-31 -46 -91 -89 -158 -89c-46 0 -101 24 -101 77c0 33 29 59 56 59c16 0 24 -9 28 -21c25 -45 49 -66 60 -66s20 20 38 85c42 155 86 316 130 483zM287 400h149c20 57 37 112 63 165c-10 44 -26 82 -65 82
c-32 0 -59 -20 -88 -77c-26 -51 -48 -128 -59 -170z" />
    <glyph glyph-name="T_h" unicode="Th" horiz-adv-x="1040" 
d="M321 660h389c49 0 61 5 65 10l4 11c14 13 90 32 120 34c7 -1 9 -4 11 -10c-16 -42 -29 -77 -48 -130l-111 -312h2c25 34 57 67 89 92c44 36 88 59 130 59c46 0 76 -34 76 -89c0 -81 -52 -188 -99 -252c-34 -46 -91 -87 -152 -87c-28 0 -54 14 -54 41s23 45 36 45
c8 0 14 -4 20 -11c13 -15 20 -21 24 -21s10 8 19 30c32 74 79 204 79 253c0 16 -5 27 -18 27c-21 0 -64 -35 -116 -104c-58 -76 -120 -217 -132 -242c-7 -14 -28 -18 -50 -18c-25 0 -64 8 -53 40l176 508c22 63 12 80 -78 80h-66c-28 0 -30 0 -40 -29l-153 -441
c-28 -80 -26 -100 25 -107l37 -5c6 -6 3 -29 -6 -35c-55 2 -106 3 -152 3c-48 0 -87 -1 -161 -3c-6 6 -7 31 7 35l35 5c43 6 45 16 78 107l161 441c9 26 4 29 -29 29h-54c-28 0 -57 -2 -84 -23c-20 -16 -45 -39 -71 -84c-9 -6 -37 -1 -37 12c31 64 58 121 75 167
c6 6 19 6 28 1c0 -20 10 -27 78 -27z" />
    <glyph glyph-name="T_h.commaaccent" unicode="&#x162;h" horiz-adv-x="1040" 
d="M321 660h389c49 0 61 5 65 10l4 11c14 13 90 32 120 34c7 -1 9 -4 11 -10c-16 -42 -29 -77 -48 -130l-111 -312h2c25 34 57 67 89 92c44 36 88 59 130 59c46 0 76 -34 76 -89c0 -81 -52 -188 -99 -252c-34 -46 -91 -87 -152 -87c-28 0 -54 14 -54 41s23 45 36 45
c8 0 14 -4 20 -11c13 -15 20 -21 24 -21s10 8 19 30c32 74 79 204 79 253c0 16 -5 27 -18 27c-21 0 -64 -35 -116 -104c-58 -76 -120 -217 -132 -242c-7 -14 -28 -18 -50 -18c-25 0 -64 8 -53 40l176 508c22 63 12 80 -78 80h-66c-28 0 -30 0 -40 -29l-153 -441
c-28 -80 -26 -100 25 -107l37 -5c6 -6 3 -29 -6 -35c-55 2 -106 3 -152 3c-48 0 -87 -1 -161 -3c-6 6 -7 31 7 35l35 5c43 6 45 16 78 107l161 441c9 26 4 29 -29 29h-54c-28 0 -57 -2 -84 -23c-20 -16 -45 -39 -71 -84c-9 -6 -37 -1 -37 12c31 64 58 121 75 167
c6 6 19 6 28 1c0 -20 10 -27 78 -27zM269 -42c32 0 75 -29 75 -92c0 -71 -68 -132 -167 -157c-13 8 -16 24 -8 33c46 14 88 50 88 85c0 20 -11 33 -29 42c-11 6 -16 17 -16 33c0 28 25 56 57 56z" />
    <glyph glyph-name="T_h.caron" unicode="&#x164;h" horiz-adv-x="1040" 
d="M321 660h389c49 0 61 5 65 10l4 11c14 13 90 32 120 34c7 -1 9 -4 11 -10c-16 -42 -29 -77 -48 -130l-111 -312h2c25 34 57 67 89 92c44 36 88 59 130 59c46 0 76 -34 76 -89c0 -81 -52 -188 -99 -252c-34 -46 -91 -87 -152 -87c-28 0 -54 14 -54 41s23 45 36 45
c8 0 14 -4 20 -11c13 -15 20 -21 24 -21s10 8 19 30c32 74 79 204 79 253c0 16 -5 27 -18 27c-21 0 -64 -35 -116 -104c-58 -76 -120 -217 -132 -242c-7 -14 -28 -18 -50 -18c-25 0 -64 8 -53 40l176 508c22 63 12 80 -78 80h-66c-28 0 -30 0 -40 -29l-153 -441
c-28 -80 -26 -100 25 -107l37 -5c6 -6 3 -29 -6 -35c-55 2 -106 3 -152 3c-48 0 -87 -1 -161 -3c-6 6 -7 31 7 35l35 5c43 6 45 16 78 107l161 441c9 26 4 29 -29 29h-54c-28 0 -57 -2 -84 -23c-20 -16 -45 -39 -71 -84c-9 -6 -37 -1 -37 12c31 64 58 121 75 167
c6 6 19 6 28 1c0 -20 10 -27 78 -27zM381 877l119 -64c13 -7 22 -7 38 0l142 64c10 0 19 -18 14 -31l-165 -127c-18 -14 -35 -14 -48 0l-118 129c0 13 10 28 18 29z" />
    <glyph glyph-name=".notdef" horiz-adv-x="500" 
d="M0 0v700h500v-700h-500zM250 395l170 255h-340zM280 350l170 -255v510zM80 50h340l-170 255zM50 605v-510l170 255z" />
    <glyph glyph-name="space" unicode=" " horiz-adv-x="240" 
 />
    <glyph glyph-name="space" unicode="&#xa0;" horiz-adv-x="240" 
 />
    <glyph glyph-name="exclam" unicode="!" horiz-adv-x="247" 
d="M251 646c44 0 65 -13 60 -41c-4 -22 -23 -64 -44 -117l-112 -283c-9 -7 -29 -7 -40 0l36 281c7 55 12 97 18 119c9 32 38 41 82 41zM109 150c40 0 67 -28 67 -74c0 -50 -36 -90 -85 -90c-39 0 -69 26 -69 70c0 47 35 94 87 94z" />
    <glyph glyph-name="quotedbl" unicode="&#x22;" horiz-adv-x="480" 
d="M336 609l-94 -205c-13 -8 -29 -8 -38 0l20 205c3 29 5 46 8 57c9 32 29 34 66 34c42 0 71 -2 62 -34c-3 -11 -10 -27 -24 -57zM536 609l-94 -205c-13 -8 -29 -8 -38 0l20 205c3 29 5 46 8 57c9 32 29 34 66 34c42 0 71 -2 62 -34c-3 -11 -10 -27 -24 -57z" />
    <glyph glyph-name="numbersign" unicode="#" horiz-adv-x="520" 
d="M403 396h-96l-63 -146h97zM565 396h-99l-63 -146h88l-21 -65h-94l-78 -182h-61l77 182h-97l-79 -182h-61l79 182h-98l21 65h102l63 146h-98l22 65h104l69 163h64l-70 -163h96l69 163h64l-70 -163h90z" />
    <glyph glyph-name="dollar" unicode="$" horiz-adv-x="520" 
d="M314 254l-67 -207c2 -1 5 -1 8 -1c62 0 118 40 118 103c0 55 -24 82 -59 105zM313 401l58 179c-77 -1 -109 -54 -109 -98c0 -37 22 -62 51 -81zM417 574l-64 -197c79 -40 140 -90 140 -186c0 -113 -98 -191 -252 -191c-3 0 -5 0 -9 1l-30 -93c-13 -10 -39 -10 -48 0
l31 97c-77 12 -134 47 -145 78c-7 31 -3 98 12 145c7 8 25 8 33 0c8 -89 55 -151 117 -172l71 222c-62 40 -121 75 -121 160c0 114 95 188 234 188l25 78c9 10 37 10 48 0l-26 -81c42 -6 79 -20 118 -34c1 -35 -2 -86 -19 -144c-6 -6 -25 -6 -33 0c-2 72 -33 115 -82 129z
" />
    <glyph glyph-name="percent" unicode="%" horiz-adv-x="886" 
d="M738 374c87 0 131 -54 131 -140c0 -106 -81 -248 -215 -248c-87 0 -130 55 -130 133c0 118 90 255 214 255zM615 83c0 -31 10 -59 39 -59c26 0 50 28 66 57c26 48 61 148 61 201c0 31 -11 54 -39 54c-24 0 -48 -24 -65 -54c-31 -52 -62 -142 -62 -199zM350 640
c87 0 131 -54 131 -140c0 -106 -81 -248 -215 -248c-87 0 -130 55 -130 133c0 118 90 255 214 255zM227 349c0 -31 10 -59 39 -59c26 0 50 28 66 57c26 48 61 148 61 201c0 31 -11 54 -39 54c-24 0 -48 -24 -65 -54c-31 -52 -62 -142 -62 -199zM769 630l-497 -670
c-19 -4 -36 7 -40 24l497 670c15 2 38 -7 40 -24z" />
    <glyph glyph-name="ampersand" unicode="&#x26;" horiz-adv-x="822" 
d="M346 485c49 0 62 -26 70 -49c39 32 89 86 111 119c12 18 31 53 31 77c0 11 -4 23 -10 31c-6 7 -13 19 -13 33c0 40 30 64 63 64c31 0 63 -26 63 -75c0 -58 -40 -114 -136 -207c-84 -83 -256 -220 -321 -269c16 -73 83 -122 167 -122c73 0 144 32 204 124
c42 65 53 115 52 155c-11 13 -37 28 -64 28c-24 0 -43 -18 -43 -38c0 -14 4 -25 12 -39c6 -10 10 -16 10 -30c0 -19 -15 -41 -47 -41c-28 0 -47 25 -47 58c0 39 21 79 71 120c40 33 85 41 99 41c55 0 96 -34 132 -73c26 -29 32 -37 39 -37c11 0 17 11 17 22
c0 12 -6 26 -9 33c-2 6 -5 16 -5 24c0 12 12 35 39 35c32 0 56 -26 56 -68c0 -24 -13 -50 -25 -62c-7 -7 -15 -10 -26 -13c-35 -9 -69 -28 -91 -44c-9 -5 -21 -4 -28 5c-7 10 -24 32 -52 54v-55c0 -25 -22 -116 -97 -192c-77 -78 -171 -108 -252 -108
c-160 0 -222 103 -222 201c0 60 20 146 97 221c67 66 138 77 155 77zM326 391c0 18 -14 36 -30 36c-14 0 -43 -15 -63 -49c-21 -34 -35 -76 -35 -123c39 34 97 79 114 97c13 15 14 32 14 39z" />
    <glyph glyph-name="quoteright" unicode="&#x2019;" horiz-adv-x="262" 
d="M265 700c37 0 85 -32 85 -104c0 -81 -78 -147 -189 -174c-14 5 -18 22 -10 34c53 15 100 56 100 96c0 22 -12 36 -32 47c-12 6 -19 20 -19 37c0 33 28 64 65 64z" />
    <glyph glyph-name="parenleft" unicode="(" horiz-adv-x="340" 
d="M186 93c0 -88 19 -177 57 -236c-1 -10 -9 -19 -22 -20c-79 73 -122 201 -122 315c0 156 62 308 167 414c86 86 160 119 199 137c13 -1 22 -12 19 -21c-62 -35 -126 -97 -177 -178c-74 -117 -121 -261 -121 -411z" />
    <glyph glyph-name="parenright" unicode=")" horiz-adv-x="340" 
d="M236 447c0 88 -19 177 -57 236c1 10 9 19 22 20c79 -73 122 -201 122 -315c0 -156 -62 -308 -167 -414c-86 -86 -160 -119 -199 -137c-13 1 -22 12 -19 21c62 35 126 97 177 178c74 117 121 261 121 411z" />
    <glyph glyph-name="asterisk" unicode="*" 
d="M349 533l136 37c10 -6 13 -21 8 -34l-129 -52l91 -102c0 -12 -10 -24 -23 -25l-103 89l-45 -126c-7 -3 -24 -1 -30 7l19 132l-138 -34c-9 6 -12 21 -6 30l130 53l-95 99c0 14 10 27 20 29l109 -90l43 125c9 5 25 1 30 -5z" />
    <glyph glyph-name="plus" unicode="+" horiz-adv-x="520" 
d="M315 0h-88v177h-157v72h157v159h88v-159h156v-72h-156v-177z" />
    <glyph glyph-name="comma" unicode="," horiz-adv-x="260" 
d="M102 168c38 0 89 -33 89 -108c0 -85 -82 -153 -197 -181c-15 5 -19 23 -11 35c55 16 104 58 104 100c0 23 -12 37 -33 49c-12 6 -20 21 -20 38c0 35 30 67 68 67z" />
    <glyph glyph-name="hyphen" unicode="-" horiz-adv-x="320" 
d="M63 237l239 22c9 -10 14 -25 14 -42c0 -13 -5 -29 -13 -39l-240 -22c-8 8 -15 22 -15 40c0 19 7 31 15 41z" />
    <glyph glyph-name="hyphen" unicode="&#xad;" horiz-adv-x="320" 
d="M63 237l239 22c9 -10 14 -25 14 -42c0 -13 -5 -29 -13 -39l-240 -22c-8 8 -15 22 -15 40c0 19 7 31 15 41z" />
    <glyph glyph-name="period" unicode="." horiz-adv-x="260" 
d="M119 150c40 0 67 -28 67 -74c0 -50 -36 -90 -85 -90c-39 0 -69 26 -69 70c0 47 35 94 87 94z" />
    <glyph glyph-name="slash" unicode="/" horiz-adv-x="300" 
d="M391 676l-308 -692h-92l308 692h92z" />
    <glyph glyph-name="zero" unicode="0" horiz-adv-x="520" 
d="M400 640c132 0 169 -103 169 -203c0 -111 -59 -260 -135 -351c-49 -57 -119 -100 -200 -100c-134 0 -167 98 -167 197c0 120 57 265 132 349c57 64 123 108 201 108zM405 594c-72 0 -128 -142 -167 -251c-34 -93 -51 -183 -51 -232c0 -55 22 -79 50 -79
c35 0 67 37 98 100c56 114 114 288 114 381c0 33 0 81 -44 81z" />
    <glyph glyph-name="one" unicode="1" horiz-adv-x="520" 
d="M289 544l-45 5c-10 6 -9 30 2 35c46 8 95 18 139 29c42 10 91 31 94 31c9 0 15 -7 16 -14c-12 -29 -29 -76 -42 -116l-122 -384c-24 -76 -17 -86 33 -93l37 -5c10 -5 7 -31 -5 -35c-50 2 -106 3 -168 3c-54 0 -103 -1 -149 -3c-11 9 -8 29 3 35l35 5c54 8 61 17 85 93
l101 317c15 47 18 60 18 72c1 15 -11 23 -32 25z" />
    <glyph glyph-name="two" unicode="2" horiz-adv-x="520" 
d="M231 100h116c67 0 78 8 114 53c9 7 30 1 34 -14c-17 -48 -54 -122 -77 -142c-22 1 -46 1 -71 2c-24 1 -49 1 -75 1h-166c-50 0 -94 -2 -122 -3c-6 5 -8 15 -4 23c54 34 91 66 196 148c84 66 232 189 232 287c0 72 -36 108 -105 108c-43 0 -102 -37 -135 -92
c-13 -3 -32 7 -31 20c49 93 137 149 236 149c102 0 181 -58 181 -163c0 -119 -123 -195 -221 -263l-60 -42c-56 -39 -73 -54 -73 -61c0 -6 5 -11 31 -11z" />
    <glyph glyph-name="three" unicode="3" horiz-adv-x="520" 
d="M253 327c-32 0 -66 -18 -94 -42c-21 2 -33 34 -19 51c44 15 128 48 174 76s79 61 79 99c0 40 -30 66 -76 66c-41 0 -92 -34 -127 -84c-15 -4 -27 7 -29 20c48 81 132 127 220 127c73 0 148 -36 148 -112c0 -60 -57 -100 -150 -133c-13 -4 -8 -11 5 -12
c60 -5 123 -51 123 -140c0 -93 -76 -177 -149 -224c-87 -56 -192 -75 -255 -75c-70 0 -119 21 -119 70c0 30 26 56 58 56c35 0 53 -31 65 -46c16 -19 33 -30 57 -30c101 0 189 102 190 223c1 64 -33 110 -101 110z" />
    <glyph glyph-name="four" unicode="4" horiz-adv-x="520" 
d="M512 186h-71c-22 0 -23 -3 -30 -24l-14 -41c-23 -69 -14 -81 36 -87l17 -2c10 -5 7 -31 -5 -35c-48 2 -99 3 -148 3c-54 0 -103 -1 -147 -3c-11 9 -8 29 3 35l35 4c54 6 61 16 82 85l14 45c5 17 3 20 -17 20h-224c-10 6 -13 19 -7 32l470 472c8 8 19 16 33 16h37
c17 0 18 -10 0 -28l-426 -418c-10 -9 -15 -18 17 -18h120c19 0 21 1 25 15l48 154c7 23 22 30 36 37c24 12 80 30 94 30c12 0 17 -7 15 -17l-63 -199c-5 -17 -7 -20 16 -20h66c15 -7 6 -48 -12 -56z" />
    <glyph glyph-name="five" unicode="5" horiz-adv-x="520" 
d="M287 619l274 35c12 0 15 -10 13 -17c-11 -33 -40 -71 -67 -95l-243 -31c-18 -2 -28 -12 -36 -29l-9 -19c-10 -20 0 -23 10 -24c129 -16 264 -72 258 -220c-4 -108 -83 -184 -183 -229c-81 -36 -198 -55 -294 -58c-19 6 -19 33 -7 41c135 8 353 61 353 218
c0 107 -93 139 -216 152c-21 2 -27 12 -15 35l106 211c11 22 21 26 56 30z" />
    <glyph glyph-name="six" unicode="6" horiz-adv-x="520" 
d="M528 243c0 -148 -119 -257 -260 -257c-139 0 -206 85 -206 206c0 120 75 278 223 380c103 71 249 117 361 121c12 -3 14 -27 6 -34c-121 -21 -200 -64 -282 -134c-103 -89 -174 -242 -174 -371c0 -52 6 -122 69 -122c87 0 122 135 122 194c0 38 -6 94 -55 104
c-12 3 -24 3 -43 1c-8 4 -11 21 -3 27c27 20 60 38 100 38c85 0 142 -61 142 -153z" />
    <glyph glyph-name="seven" unicode="7" horiz-adv-x="520" 
d="M315 626h212c67 0 104 1 119 3c7 -3 9 -9 7 -16c-33 -37 -76 -91 -133 -165l-395 -510c-19 -5 -43 13 -41 35l366 472c31 41 42 58 42 68c0 9 -11 10 -28 10h-186c-53 0 -88 -4 -118 -54c-9 -6 -30 -1 -33 13c27 49 52 109 65 147c19 -2 72 -3 123 -3z" />
    <glyph glyph-name="eight" unicode="8" horiz-adv-x="520" 
d="M246 -12c-114 0 -202 51 -202 155c0 94 78 154 171 191c-37 28 -61 72 -61 115c0 113 99 191 211 191c100 0 188 -47 188 -153c0 -80 -73 -128 -143 -154c46 -32 86 -76 86 -148c0 -118 -100 -197 -250 -197zM368 140c0 84 -64 129 -113 161c-50 -30 -87 -88 -87 -154
c0 -64 37 -113 100 -113c55 0 100 42 100 106zM369 366c38 16 72 75 72 133c0 50 -28 95 -82 95c-51 0 -86 -44 -86 -95c0 -68 47 -102 96 -133z" />
    <glyph glyph-name="nine" unicode="9" horiz-adv-x="520" 
d="M370 640c127 0 196 -84 196 -212c0 -136 -93 -278 -219 -362c-101 -68 -265 -123 -344 -126c-11 5 -15 26 -6 35c115 27 215 81 282 148c90 88 155 228 155 353c0 54 -9 118 -71 118c-73 0 -119 -115 -119 -191c0 -58 17 -86 50 -101c14 -6 29 -8 54 -9c4 -4 4 -16 0 -24
c-22 -16 -65 -26 -91 -26c-85 0 -143 58 -143 152c0 130 117 245 256 245z" />
    <glyph glyph-name="colon" unicode=":" horiz-adv-x="260" 
d="M119 150c40 0 67 -28 67 -74c0 -50 -36 -90 -85 -90c-39 0 -69 26 -69 70c0 47 35 94 87 94zM192 394c40 0 67 -28 67 -74c0 -50 -36 -90 -85 -90c-39 0 -69 26 -69 70c0 47 35 94 87 94z" />
    <glyph glyph-name="semicolon" unicode=";" horiz-adv-x="260" 
d="M102 168c38 0 89 -33 89 -108c0 -85 -82 -153 -197 -181c-15 5 -19 23 -11 35c55 16 104 58 104 100c0 23 -12 37 -33 49c-12 6 -20 21 -20 38c0 35 30 67 68 67zM192 394c40 0 67 -28 67 -74c0 -50 -36 -90 -85 -90c-39 0 -69 26 -69 70c0 47 35 94 87 94z" />
    <glyph glyph-name="less" unicode="&#x3c;" horiz-adv-x="520" 
d="M66 236l389 178v-83l-286 -123v-2l286 -124v-82l-389 177v59z" />
    <glyph glyph-name="equal" unicode="=" horiz-adv-x="520" 
d="M471 106h-401v72h401v-72zM471 250h-401v72h401v-72z" />
    <glyph glyph-name="greater" unicode="&#x3e;" horiz-adv-x="520" 
d="M101 414l389 -178v-59l-389 -177v82l286 124v2l-286 123v83z" />
    <glyph glyph-name="question" unicode="?" horiz-adv-x="350" 
d="M279 646c69 0 144 -76 144 -169c0 -55 -37 -105 -105 -133l-76 -31c-47 -19 -65 -35 -65 -58c0 -14 0 -27 4 -47c-6 -8 -22 -10 -31 -5c-20 28 -33 68 -33 100c0 60 39 94 112 120l74 26c37 13 65 27 65 46c0 22 -26 40 -62 40c-18 0 -36 -1 -51 -4c-18 -3 -29 -6 -37 -6
c-24 0 -38 19 -38 41c0 38 33 80 99 80zM160 150c40 0 67 -28 67 -74c0 -50 -36 -90 -85 -90c-39 0 -69 26 -69 70c0 47 35 94 87 94z" />
    <glyph glyph-name="at" unicode="@" horiz-adv-x="775" 
d="M519 556c190 0 293 -128 293 -270c0 -130 -96 -230 -265 -230c-58 0 -67 20 -67 28c0 9 4 18 9 32l21 55l-2 1c-51 -62 -139 -116 -181 -116c-30 0 -44 22 -44 44c0 19 19 83 76 156c45 56 122 124 197 124c16 0 29 -6 34 -16l24 45c5 1 10 2 16 2c21 0 41 -5 53 -14
c-12 -30 -100 -234 -113 -267c-9 -25 -7 -34 14 -34c81 0 175 69 175 188c0 138 -107 227 -240 227c-185 0 -306 -161 -306 -335c0 -109 61 -266 279 -266c76 0 122 20 154 33c10 -4 15 -23 9 -32c-60 -33 -137 -46 -195 -46c-176 0 -342 99 -342 312c0 233 189 379 401 379
zM457 154c40 37 99 131 110 168c-5 13 -14 25 -30 25c-8 0 -24 -9 -49 -31c-53 -48 -101 -148 -101 -186c0 -10 4 -14 10 -14c8 0 24 5 60 38z" />
    <glyph glyph-name="A" unicode="A" horiz-adv-x="600" 
d="M353 226h-119c-30 0 -32 1 -44 -20l-62 -107c-17 -30 -20 -40 -20 -46c0 -8 7 -13 25 -16l27 -4c10 -7 7 -31 -5 -36c-50 2 -82 3 -126 3c-35 0 -68 -1 -96 -3c-14 5 -14 29 -5 36l24 4c50 8 62 17 113 91c89 132 180 264 269 396c31 47 60 90 64 109c56 4 103 43 104 43
h2c10 0 18 -5 18 -16c0 -177 -7 -355 -7 -532c0 -70 0 -87 48 -93l24 -3c8 -6 6 -31 -3 -35c-37 2 -91 3 -141 3c-56 0 -101 -1 -132 -3c-13 4 -11 28 -5 35l23 3c46 6 51 19 52 43l4 127c1 20 -1 21 -32 21zM270 279h91c24 0 25 2 26 27l6 123c1 30 0 73 0 92h-2
c-15 -24 -34 -56 -58 -93l-82 -127c-12 -18 -9 -22 19 -22z" />
    <glyph glyph-name="B" unicode="B" horiz-adv-x="634" 
d="M121 144l118 377c21 68 23 86 -12 93l-29 6c-9 8 -6 29 6 34c55 5 113 9 197 9c101 0 173 -14 214 -45c37 -28 53 -65 53 -107c0 -82 -72 -127 -138 -139c-25 -5 -30 -8 -29 -10c-2 -3 4 -5 20 -11c54 -20 94 -71 94 -135c0 -111 -84 -185 -190 -206
c-58 -12 -108 -14 -169 -14c-21 0 -44 1 -64 2s-38 2 -49 2c-40 0 -86 -1 -137 -3c-9 6 -8 32 5 34l29 5c45 8 52 15 81 108zM383 580l-58 -180c-8 -25 -5 -28 35 -28c101 0 172 64 172 152c0 52 -35 93 -101 93c-34 0 -37 -2 -48 -37zM294 298l-52 -165
c-21 -66 1 -91 51 -91c91 0 178 68 178 174c0 71 -44 112 -122 112c-43 0 -46 -2 -55 -30z" />
    <glyph glyph-name="C" unicode="C" horiz-adv-x="658" 
d="M97 247c1 130 68 246 143 313c64 57 173 116 324 116c100 0 170 -25 200 -37c-22 -50 -35 -102 -49 -155c-7 -11 -34 -11 -38 0c9 102 -29 146 -122 146c-171 0 -306 -206 -306 -391c0 -163 82 -209 156 -209c83 0 141 51 210 143c11 8 34 5 37 -6
c-19 -60 -55 -132 -71 -158c-38 -4 -92 -25 -179 -25c-205 0 -306 113 -305 263z" />
    <glyph glyph-name="D" unicode="D" horiz-adv-x="771" 
d="M120 144l118 377c21 68 23 84 -12 92l-29 7c-9 8 -6 29 6 34c54 5 123 9 218 9c110 -1 196 -17 262 -61c65 -44 109 -119 109 -218c0 -93 -38 -184 -102 -250c-122 -125 -296 -140 -402 -140c-29 0 -56 2 -79 3c-23 2 -43 3 -60 3c-48 0 -93 -1 -143 -3c-10 6 -9 32 5 34
l29 5c43 7 51 15 80 108zM389 571l-131 -416c-12 -37 -14 -54 -14 -70c-1 -27 22 -45 66 -45c50 0 119 12 196 76c96 79 136 203 136 298c0 69 -20 203 -193 203c-42 0 -47 -3 -60 -46z" />
    <glyph glyph-name="E" unicode="E" horiz-adv-x="596" 
d="M336 660h222c64 0 121 1 136 3c-7 -17 -33 -89 -51 -157c-5 -11 -31 -12 -38 -4c3 36 0 65 -4 77c-8 23 -34 35 -84 35h-78c-34 0 -37 -2 -49 -40l-55 -174c-9 -28 -7 -30 19 -30h66c52 0 65 8 91 56l13 24c10 9 35 8 38 -1c-12 -31 -24 -68 -37 -106
c-12 -38 -21 -74 -30 -106c-8 -8 -34 -9 -38 -1l3 25c6 48 -4 56 -56 56h-66c-26 0 -30 -3 -38 -30l-38 -122c-15 -47 -22 -78 -14 -95c9 -17 25 -24 98 -24c87 0 122 3 204 115c11 8 34 6 40 -6c-17 -50 -55 -131 -77 -158c-31 1 -71 2 -113 2c-42 1 -87 1 -128 1h-130
c-50 0 -95 -1 -145 -3c-10 6 -9 31 5 35l34 5c47 7 55 14 84 107l117 372c25 81 26 100 -21 108l-24 4c-9 7 -7 30 7 35c47 -2 98 -3 137 -3z" />
    <glyph glyph-name="F" unicode="F" horiz-adv-x="558" 
d="M336 660h215c64 0 121 1 136 3c-7 -17 -33 -89 -50 -157c-5 -11 -32 -12 -39 -4c3 36 0 65 -4 77c-8 23 -34 35 -83 35h-74c-34 0 -35 -2 -47 -40l-58 -183c-9 -27 -7 -29 19 -29h78c52 0 65 6 91 55l13 24c10 9 35 8 38 -1c-12 -31 -24 -68 -37 -106
c-13 -37 -21 -74 -30 -105c-8 -9 -34 -10 -38 -1l2 24c4 48 -4 56 -56 56h-78c-25 0 -29 -3 -37 -30l-42 -134c-25 -81 -26 -102 25 -108l33 -4c5 -6 3 -29 -7 -35c-56 2 -107 3 -155 3s-93 -1 -143 -3c-10 6 -9 31 1 35l31 5c43 7 51 14 80 107l117 372
c25 81 26 100 -21 108l-24 4c-8 6 -7 29 7 35c48 -2 98 -3 137 -3z" />
    <glyph glyph-name="G" unicode="G" horiz-adv-x="756" 
d="M750 265l-24 -4c-32 -5 -38 -18 -53 -70l-22 -76c-13 -45 -19 -64 0 -68c3 -4 1 -21 -10 -24c-19 -3 -53 -11 -67 -15c-46 -15 -114 -24 -164 -24c-211 0 -308 112 -308 270c0 124 62 234 140 302c68 59 179 120 345 120c99 0 169 -23 204 -37c-22 -50 -37 -104 -50 -157
c-7 -11 -33 -11 -37 0c10 102 -29 148 -128 148c-178 0 -324 -205 -324 -401c0 -152 86 -199 173 -199c54 0 71 13 89 74l26 86c16 53 4 63 -43 70l-32 5c-12 6 -9 29 3 35c68 -2 118 -3 166 -3c40 0 90 1 117 3c11 -6 8 -29 -1 -35z" />
    <glyph glyph-name="H" unicode="H" horiz-adv-x="778" 
d="M530 317h-160c-57 0 -60 -2 -70 -34l-45 -139c-26 -81 -26 -102 25 -108l33 -4c5 -6 5 -29 -5 -35c-58 2 -111 3 -159 3s-93 -1 -138 -3c-10 6 -9 31 5 35l24 4c43 7 51 15 80 108l117 372c25 81 26 101 -25 108l-31 4c-9 10 -5 29 8 35c56 -2 106 -3 154 -3
c46 0 91 1 139 3c10 -6 8 -31 -5 -35l-29 -4c-39 -5 -47 -15 -76 -108l-35 -113c-10 -31 -10 -33 45 -33h162c53 0 58 2 69 36l35 110c26 81 27 101 -24 108l-28 4c-7 6 -5 29 9 35c51 -2 102 -3 148 -3c48 0 92 1 143 3c8 -6 8 -31 -5 -35l-29 -5c-41 -7 -50 -14 -79 -107
l-116 -372c-25 -81 -26 -99 25 -107l31 -5c6 -6 3 -29 -7 -35c-57 2 -107 3 -155 3c-49 0 -93 -1 -139 -3c-10 6 -9 31 5 35l24 4c44 7 52 15 81 108l45 147c7 24 7 26 -47 26z" />
    <glyph glyph-name="I" unicode="I" horiz-adv-x="366" 
d="M280 37l28 -5c6 -6 3 -29 -7 -35c-53 2 -104 3 -150 3c-50 0 -95 -1 -145 -3c-10 6 -9 32 7 35l27 5c43 8 51 14 80 107l117 372c25 81 26 98 -25 107l-28 5c-7 6 -6 30 7 35c56 -2 106 -3 154 -3c46 0 91 1 141 3c10 -6 8 -31 -5 -35l-29 -5c-43 -7 -51 -14 -80 -107
l-117 -372c-26 -81 -26 -98 25 -107z" />
    <glyph glyph-name="J" unicode="J" horiz-adv-x="368" 
d="M384 516l-128 -410c-20 -65 -43 -123 -73 -172c-49 -81 -124 -135 -232 -135c-41 0 -83 10 -83 43c0 15 10 32 20 45c12 15 23 22 36 22c17 0 34 -13 48 -28c14 -14 25 -28 38 -28c21 0 39 35 55 80c5 16 30 89 63 193l122 390c25 81 26 100 -25 108l-32 5
c-9 6 -9 28 5 34c60 -2 110 -3 158 -3c47 0 91 1 137 3c10 -6 8 -31 -5 -34l-23 -5c-43 -9 -52 -15 -81 -108z" />
    <glyph glyph-name="K" unicode="K" horiz-adv-x="692" 
d="M120 144l117 372c25 81 26 98 -25 107l-27 5c-10 6 -7 29 5 35c55 -2 105 -3 153 -3s93 1 142 3c11 -6 9 -31 -4 -35l-29 -4c-43 -6 -51 -15 -80 -108l-41 -130c-6 -19 -6 -29 4 -29c30 0 63 28 100 62l122 115c7 7 52 52 60 61c8 8 11 14 11 18c0 5 -5 8 -17 11l-21 5
c-8 8 -9 28 6 34c56 -2 90 -3 133 -3c52 0 93 1 122 3c13 -4 12 -28 2 -35c-27 -5 -54 -9 -91 -22c-44 -16 -116 -72 -178 -125l-69 -59c-17 -14 -37 -35 -37 -43c0 -6 4 -20 10 -37c34 -90 74 -178 113 -265c13 -29 28 -37 52 -41l27 -4c8 -8 5 -29 -3 -35
c-46 2 -93 3 -140 3c-43 0 -85 -1 -133 -3c-12 6 -13 29 -3 35l31 6c23 4 26 14 22 28c-5 19 -29 76 -36 94l-32 79c-24 58 -32 78 -54 78c-23 0 -29 -21 -44 -68l-33 -105c-26 -81 -26 -100 25 -108l26 -4c8 -6 6 -29 -4 -35c-54 2 -105 3 -153 3s-93 -1 -143 -3
c-10 6 -9 31 5 35l29 5c43 7 51 14 80 107z" />
    <glyph glyph-name="L" unicode="L" horiz-adv-x="582" 
d="M373 516l-111 -351c-15 -47 -19 -76 -13 -94s24 -25 92 -25c87 0 122 3 204 115c11 8 35 6 40 -6c-16 -50 -55 -131 -76 -158c-31 1 -71 1 -114 2c-42 0 -87 1 -128 1h-115c-48 0 -93 -1 -146 -3c-11 6 -12 31 2 35l33 5c43 7 51 14 80 107l117 372c25 81 26 100 -25 108
l-26 4c-10 6 -6 31 7 35c52 -2 104 -3 152 -3s93 1 136 3c12 -6 10 -31 -3 -35l-26 -5c-43 -8 -51 -14 -80 -107z" />
    <glyph glyph-name="M" unicode="M" horiz-adv-x="884" 
d="M131 206l116 311c30 79 28 100 -20 107l-28 4c-9 6 -6 29 8 35c55 -2 106 -3 154 -3c35 0 56 1 92 3c-20 -50 -7 -146 -2 -195l8 -82c6 -58 11 -109 17 -145c20 28 45 62 85 118l116 163c61 86 73 123 80 141c22 -2 60 -3 97 -3c49 0 91 1 141 3c12 -6 9 -31 -4 -35
l-28 -4c-42 -6 -59 -14 -88 -122l-97 -358c-22 -82 -26 -98 25 -107l28 -5c5 -6 2 -29 -8 -35c-53 2 -104 3 -152 3s-92 -1 -141 -3c-13 5 -12 31 2 35l29 5c43 7 54 13 83 107l88 289c16 54 22 76 31 107l-2 2c-24 -31 -42 -52 -76 -101l-143 -206
c-51 -73 -96 -144 -142 -219c-13 -8 -35 -6 -45 4c2 36 -3 114 -10 204l-11 147c-5 69 -13 136 -17 171h-2c-14 -35 -34 -88 -59 -158l-51 -145c-45 -129 -53 -154 -54 -174c-1 -10 3 -20 24 -24l48 -9c5 -9 3 -30 -5 -35c-43 1 -86 3 -132 3c-44 0 -75 -2 -110 -3
c-8 8 -8 29 2 35l24 4c30 5 46 12 58 22c18 17 34 49 71 148z" />
    <glyph glyph-name="N" unicode="N" horiz-adv-x="722" 
d="M150 251l82 265c25 81 27 101 -24 108l-28 4c-9 6 -5 29 7 35c52 -2 88 -3 126 -3c25 0 58 1 80 3c-5 -38 31 -117 78 -222l47 -104c35 -78 52 -113 63 -134c7 11 16 39 23 62l43 144c19 65 35 125 39 143c10 50 9 65 -42 72l-30 4c-9 9 -6 28 7 35c53 -2 86 -3 124 -3
c43 0 70 1 116 3c8 -6 7 -28 -2 -35l-24 -5c-45 -9 -61 -21 -79 -70c-7 -20 -28 -79 -48 -144l-73 -239c-23 -75 -38 -134 -47 -167c-8 -7 -37 -11 -63 -11c-2 0 -29 77 -57 140l-107 243c-19 44 -51 121 -65 149c-5 -12 -9 -24 -25 -78l-59 -195c-20 -65 -36 -125 -39 -143
c-8 -50 -9 -63 42 -71l30 -5c5 -9 6 -28 -5 -35c-54 2 -88 3 -126 3c-42 0 -70 -1 -115 -3c-9 6 -10 28 2 35l23 5c46 10 62 23 79 70c7 20 27 79 47 144z" />
    <glyph glyph-name="O" unicode="O" horiz-adv-x="758" 
d="M99 251c0 126 61 254 160 335c83 68 174 90 247 90c122 0 275 -66 275 -282c0 -105 -49 -220 -123 -296c-51 -52 -152 -114 -274 -114c-229 0 -285 158 -285 267zM517 630c-38 0 -75 -18 -107 -43c-80 -64 -168 -226 -168 -390c0 -96 44 -167 128 -167c40 0 90 18 137 72
c91 105 131 241 131 363c0 117 -51 165 -121 165z" />
    <glyph glyph-name="P" unicode="P" horiz-adv-x="612" 
d="M120 144l120 377c22 68 23 84 -12 92l-32 7c-9 8 -6 29 6 34c55 5 117 9 195 9c79 0 147 -8 196 -35s83 -76 83 -142c0 -148 -149 -212 -281 -212c-11 0 -23 0 -32 1c-7 7 -7 19 0 28c108 17 171 103 171 210c0 60 -31 104 -95 104c-33 0 -35 -3 -44 -31l-139 -442
c-26 -81 -26 -100 25 -108l31 -5c6 -5 3 -28 -7 -34c-58 2 -106 3 -154 3s-93 -1 -143 -3c-10 6 -11 32 3 34l29 5c43 7 50 15 80 108z" />
    <glyph glyph-name="Q" unicode="Q" horiz-adv-x="758" 
d="M689 -219c-143 0 -259 76 -349 178c-14 15 -27 31 -41 34c-155 33 -200 163 -200 258c0 126 61 254 160 335c83 68 174 90 247 90c122 0 275 -66 275 -282c0 -105 -49 -220 -123 -296c-36 -37 -98 -79 -166 -97c-6 -2 -13 -8 -3 -17c65 -61 141 -122 216 -142
c28 -7 56 -8 73 -8c14 0 30 3 40 8c11 -4 14 -16 11 -24c-36 -26 -92 -37 -140 -37zM517 630c-38 0 -75 -18 -107 -43c-80 -64 -168 -226 -168 -390c0 -96 44 -167 128 -167c40 0 90 18 137 72c91 105 131 241 131 363c0 117 -51 165 -121 165z" />
    <glyph glyph-name="R" unicode="R" horiz-adv-x="626" 
d="M119 144l120 377c22 68 22 83 -10 91l-32 8c-9 8 -6 29 6 34c59 5 121 9 198 9c82 0 147 -9 195 -32c46 -23 83 -70 83 -135c0 -99 -85 -151 -162 -171c-18 -5 -18 -11 -16 -23c23 -129 42 -220 66 -245c13 -14 41 -20 60 -24c9 -7 6 -24 -3 -31c-20 -5 -49 -6 -92 -6
c-36 0 -63 5 -79 15c-20 13 -39 38 -49 91l-28 146c-7 34 -19 44 -49 44c-25 0 -28 -3 -35 -23l-41 -125c-27 -81 -26 -98 25 -108l26 -5c9 -5 6 -28 -5 -34c-49 2 -99 3 -147 3s-93 -1 -143 -3c-10 6 -11 32 1 34l31 5c43 7 50 15 80 108zM533 511c0 52 -21 106 -94 106
c-38 0 -40 -6 -49 -33l-68 -215c-9 -29 -2 -33 44 -33c95 0 167 87 167 175z" />
    <glyph glyph-name="S" unicode="S" horiz-adv-x="528" 
d="M245 -16c-103 0 -178 46 -201 87c-1 43 6 99 19 145c6 8 32 8 39 -2c2 -28 8 -69 29 -105c30 -53 76 -79 130 -79c62 0 119 42 119 121c0 50 -27 92 -84 133l-25 18c-61 44 -109 100 -109 167c0 128 106 209 245 208c73 -1 140 -22 183 -54c-13 -28 -30 -74 -44 -133
c-8 -12 -33 -9 -39 0c12 73 -22 141 -106 141c-76 0 -120 -58 -120 -108c0 -31 15 -70 85 -117l31 -21c58 -39 114 -98 114 -187c0 -123 -94 -214 -266 -214z" />
    <glyph glyph-name="T" unicode="T" horiz-adv-x="645" 
d="M321 660h374c41 0 56 8 70 26c8 6 29 4 33 -3c-19 -39 -51 -125 -62 -173c-7 -10 -34 -10 -40 0c3 36 4 75 -9 86c-19 15 -46 18 -72 18h-44c-30 0 -31 0 -40 -28l-136 -442c-25 -81 -26 -100 25 -107l37 -5c6 -6 3 -29 -6 -35c-63 2 -114 3 -160 3c-48 0 -93 -1 -153 -3
c-10 6 -11 31 3 35l39 5c43 6 51 14 80 107l139 442c8 25 7 28 -26 28h-41c-28 0 -57 -2 -84 -23c-20 -16 -45 -39 -71 -84c-9 -6 -37 -1 -37 12c31 64 58 121 75 167c6 6 19 6 28 1c0 -20 10 -27 78 -27z" />
    <glyph glyph-name="U" unicode="U" horiz-adv-x="731" 
d="M468 629l-25 -5c-42 -8 -50 -15 -79 -108l-72 -231c-9 -29 -20 -79 -21 -110c-1 -85 39 -137 129 -137c120 0 177 110 214 230l44 141c20 65 35 125 39 143c10 50 9 63 -42 72l-30 5c-6 9 -6 27 5 34c54 -2 88 -3 126 -3c43 0 70 1 116 3c9 -6 9 -27 -2 -34l-24 -6
c-45 -11 -61 -21 -79 -70c-8 -20 -29 -79 -49 -144l-46 -147c-26 -83 -53 -157 -115 -211c-46 -41 -124 -67 -201 -67c-126 0 -223 44 -223 176c0 28 8 70 19 106l77 250c25 81 26 100 -25 109l-24 4c-10 6 -6 28 9 34c48 -2 97 -3 145 -3c49 0 92 1 139 3
c10 -6 8 -30 -5 -34z" />
    <glyph glyph-name="V" unicode="V" horiz-adv-x="652" 
d="M407 629l-36 -8c-18 -4 -26 -11 -27 -22c0 -10 2 -45 7 -105l17 -205c2 -27 8 -87 10 -109c9 12 32 41 70 98c62 92 130 194 190 292c12 19 16 28 16 35s-5 11 -27 17l-27 7c-9 8 -6 29 7 34c65 -2 100 -3 135 -3c40 0 72 1 100 3c9 -8 8 -27 -3 -34l-29 -6
c-19 -4 -47 -12 -63 -30c-21 -23 -77 -90 -134 -172l-121 -173c-85 -121 -135 -200 -173 -256c-8 -5 -21 -8 -35 -8c-13 0 -21 3 -29 8c-4 27 -3 80 -10 163l-29 359c-7 84 -13 107 -50 112l-22 3c-8 9 -6 29 6 34c38 -2 82 -3 130 -3c40 0 79 1 129 3c11 -5 9 -28 -2 -34z
" />
    <glyph glyph-name="W" unicode="W" horiz-adv-x="966" 
d="M1153 629l-31 -7c-25 -6 -38 -13 -47 -23c-15 -16 -42 -47 -86 -110c-83 -117 -266 -365 -351 -497c-8 -5 -22 -8 -35 -8c-12 0 -20 3 -26 8c-3 38 -23 189 -35 259c-60 -82 -143 -195 -185 -264c-8 -5 -20 -8 -35 -8c-11 0 -17 3 -25 8c-4 42 -17 132 -28 207
c-18 120 -36 239 -55 359c-10 60 -14 64 -46 71l-23 5c-11 10 -5 29 5 34c47 -2 88 -3 124 -3c43 0 83 1 113 3c9 -4 9 -28 -1 -34l-18 -3c-21 -3 -29 -8 -31 -15c-2 -8 0 -31 7 -76l26 -174c14 -91 27 -163 35 -204c23 33 100 133 126 171l-35 240c-7 49 -13 55 -43 59
l-14 2c-8 8 -5 30 8 34c44 -2 81 -3 125 -3c35 0 71 1 98 3c11 -3 12 -29 0 -34l-18 -4c-18 -2 -34 -7 -36 -14c-2 -9 -2 -20 0 -31l10 -69l11 -72l57 80c38 54 60 85 60 90c0 7 -5 10 -19 14l-23 6c-8 9 -6 31 8 34c39 -2 73 -3 106 -3c39 0 68 1 92 3c12 -5 8 -28 0 -35
l-30 -6c-35 -7 -43 -11 -96 -70c-39 -44 -121 -147 -143 -181c7 -49 21 -143 33 -214c89 126 170 244 253 366c12 18 50 74 53 86c2 7 -3 11 -15 15l-16 5c-10 9 -5 29 7 34c37 -2 76 -3 105 -3c35 0 64 1 87 3c10 -5 6 -26 -3 -34z" />
    <glyph glyph-name="X" unicode="X" horiz-adv-x="641" 
d="M190 620l-29 8c-7 12 -4 32 8 35c37 -2 94 -3 147 -3c61 0 102 1 125 3c11 -6 11 -28 0 -35l-31 -6c-19 -4 -35 -10 -35 -11c-1 -9 1 -20 8 -41c14 -46 30 -93 46 -138c48 48 92 97 136 147c15 16 20 23 20 30c0 5 -5 10 -21 14l-22 5c-10 10 -5 30 7 35
c40 -2 82 -3 122 -3c45 0 81 1 111 3c10 -4 11 -27 1 -35l-33 -7c-31 -7 -58 -17 -101 -54c-66 -57 -136 -122 -202 -193c25 -85 55 -178 88 -271c16 -45 23 -59 74 -67l26 -4c8 -8 5 -31 -5 -35c-32 2 -83 3 -144 3c-66 0 -105 -1 -144 -3c-13 5 -13 31 0 35l30 4
c22 3 35 10 35 17c0 8 0 23 -10 55c-18 55 -34 109 -51 161c-55 -56 -106 -118 -159 -183c-14 -16 -20 -25 -20 -32s8 -13 31 -18l20 -4c9 -7 6 -31 -7 -35c-49 2 -98 3 -144 3c-48 0 -84 -1 -114 -3c-9 8 -8 29 3 35l28 4c11 2 32 8 42 13c24 12 58 33 97 72
c69 69 141 138 204 211l-8 26c-16 51 -48 146 -68 201c-20 53 -38 55 -61 61z" />
    <glyph glyph-name="Y" unicode="Y" horiz-adv-x="594" 
d="M398 37l37 -5c6 -6 3 -29 -6 -35c-63 2 -114 3 -162 3c-46 0 -91 -1 -151 -3c-10 6 -9 31 2 35l40 6c43 6 50 13 80 106l14 44c17 53 16 82 9 125c-12 76 -27 150 -41 227c-10 57 -15 80 -55 85l-22 3c-8 9 -5 31 7 35c53 -2 94 -3 134 -3c47 0 85 1 131 3
c12 -4 10 -30 1 -35l-37 -7c-25 -5 -32 -14 -32 -22c0 -7 1 -22 6 -57c10 -71 21 -141 33 -213l138 172c33 41 73 97 73 105s-7 13 -21 16l-26 6c-10 7 -7 30 5 35c56 -2 91 -3 125 -3c33 0 71 1 96 3c11 -4 10 -29 -1 -35l-25 -4c-36 -6 -49 -15 -94 -62
c-68 -69 -125 -138 -182 -208c-47 -56 -60 -80 -78 -137l-23 -73c-26 -81 -26 -100 25 -107z" />
    <glyph glyph-name="Z" unicode="Z" horiz-adv-x="643" 
d="M513 614h-122c-36 0 -65 -2 -96 -23c-22 -15 -49 -39 -85 -91c-13 -7 -36 -1 -38 12c32 71 60 128 77 176c5 4 20 4 28 1c0 -22 7 -29 77 -29h303c57 0 85 1 101 3c8 -3 10 -15 3 -23c-26 -18 -137 -126 -207 -202l-161 -174c-71 -77 -181 -193 -181 -205
c0 -11 25 -13 91 -13h85c34 0 87 6 111 19c34 19 74 58 107 107c8 8 35 5 38 -7c-19 -55 -59 -143 -83 -168c-42 1 -78 2 -111 2c-33 1 -65 1 -100 1h-259c-49 0 -82 -1 -93 -3c-8 2 -14 10 -10 21c21 17 91 84 133 129l401 432c10 11 16 22 16 28c0 5 -9 7 -25 7z" />
    <glyph glyph-name="bracketleft" unicode="[" horiz-adv-x="340" 
d="M44 -152l249 840c22 1 44 1 77 1c52 0 93 -2 107 -4c5 -7 2 -25 -4 -29l-72 -11c-13 -2 -22 -5 -28 -10c-14 -14 -38 -78 -60 -152l-127 -430c-22 -74 -39 -138 -34 -152c2 -6 10 -8 23 -10l60 -11c5 -8 3 -23 -3 -29c-16 -2 -56 -4 -111 -4c-33 0 -55 0 -77 1z" />
    <glyph glyph-name="backslash" unicode="\" 
d="M198 676l191 -692h-91l-191 692h91z" />
    <glyph glyph-name="bracketright" unicode="]" horiz-adv-x="340" 
d="M376 688l-249 -840c-22 -1 -44 -1 -77 -1c-52 0 -93 2 -107 4c-5 7 -2 25 4 29l72 11c13 2 22 5 28 10c14 14 38 78 60 152l127 430c22 74 39 138 34 152c-2 6 -10 8 -23 10l-60 11c-5 8 -3 23 3 29c16 2 56 4 111 4c33 0 55 0 77 -1z" />
    <glyph glyph-name="asciicircum" unicode="^" horiz-adv-x="520" 
d="M501 244h-89l-111 263l-111 -263h-90l167 382h68z" />
    <glyph glyph-name="underscore" unicode="_" horiz-adv-x="500" 
d="M500 -75v-50h-500v50h500z" />
    <glyph glyph-name="quoteleft" unicode="&#x2018;" horiz-adv-x="262" 
d="M255 428c-37 0 -85 32 -85 104c0 81 78 147 189 174c14 -5 18 -22 10 -34c-53 -15 -100 -56 -100 -96c0 -22 12 -36 32 -47c12 -6 19 -20 19 -37c0 -33 -28 -64 -65 -64z" />
    <glyph glyph-name="a" unicode="a" horiz-adv-x="505" 
d="M347 400c10 0 30 -9 44 -23l23 47c6 4 16 7 27 7c12 0 25 -2 37 -6c17 -5 32 -16 37 -26c-38 -94 -82 -205 -120 -316c-4 -13 -5 -21 2 -21c14 0 63 30 94 62c10 0 20 -8 19 -22c-44 -62 -130 -117 -200 -117c-26 0 -39 23 -39 39c0 11 5 26 11 42l30 77h-4
c-59 -78 -155 -157 -228 -157c-31 0 -61 29 -61 62c0 59 59 184 150 266c66 59 125 86 178 86zM367 318c-12 29 -26 38 -42 38c-15 0 -33 -9 -67 -52c-50 -63 -99 -162 -99 -218v-9c1 -10 6 -16 14 -16c22 0 77 59 107 99c36 48 75 125 87 158z" />
    <glyph glyph-name="b" unicode="b" horiz-adv-x="512" 
d="M171 -14c-72 0 -114 39 -114 100c0 40 15 90 38 153l129 353c10 28 7 38 -11 50l-23 15c-3 8 -3 17 5 24c31 13 132 32 184 34c7 -1 10 -4 10 -10c-16 -42 -31 -78 -51 -130l-114 -296h2c47 64 121 135 190 135c80 0 99 -64 99 -101c0 -42 -13 -120 -79 -195
c-67 -78 -160 -132 -265 -132zM393 317c0 25 -14 37 -28 37c-26 0 -79 -38 -129 -114c-47 -71 -65 -133 -65 -168c0 -27 14 -42 26 -42c20 0 49 22 80 59c72 87 115 188 116 228z" />
    <glyph glyph-name="c" unicode="c" horiz-adv-x="379" 
d="M141 -14c-66 0 -101 46 -101 116c0 63 34 154 90 217c60 67 125 95 180 95c58 0 102 -27 102 -77c0 -38 -32 -63 -68 -63c-25 0 -39 15 -40 37c-1 19 -1 59 -20 59c-16 0 -38 -19 -62 -63c-26 -49 -49 -113 -49 -182c0 -48 18 -66 42 -66s59 16 104 64
c13 0 23 -10 21 -22c-33 -52 -112 -115 -199 -115z" />
    <glyph glyph-name="d" unicode="d" horiz-adv-x="528" 
d="M352 414c25 0 44 -11 54 -25l65 195c12 36 11 47 -7 57l-28 16c-3 8 -3 17 5 24c31 13 134 32 181 34c7 -1 10 -4 10 -10c-16 -42 -28 -77 -46 -130l-145 -435c-11 -32 -16 -55 -17 -64c0 -6 3 -12 9 -12c11 0 60 30 91 63c12 -1 18 -8 16 -23
c-22 -33 -104 -118 -203 -118c-28 0 -38 21 -38 42c0 16 10 43 20 72l23 66h-2c-47 -71 -125 -180 -235 -180c-44 0 -74 39 -72 95c2 81 49 182 127 250c66 58 134 83 192 83zM232 247c-49 -70 -85 -156 -85 -182c0 -15 5 -22 15 -22c17 0 87 53 133 112c34 44 62 86 82 147
c13 38 5 68 -12 68c-6 0 -15 -1 -37 -17c-19 -14 -55 -47 -96 -106z" />
    <glyph glyph-name="e" unicode="e" horiz-adv-x="401" 
d="M332 414c58 0 97 -36 97 -80c0 -103 -171 -151 -252 -172c-4 -12 -5 -27 -5 -48c0 -27 13 -55 43 -55c36 0 84 24 130 70c11 0 21 -10 20 -23c-48 -75 -128 -120 -218 -120c-72 0 -107 51 -107 115c0 90 56 195 135 255c56 43 110 58 157 58zM297 370
c-13 0 -28 -9 -43 -26c-36 -39 -60 -101 -69 -138c35 10 66 27 95 57c20 21 35 59 36 84c0 11 -7 23 -19 23z" />
    <glyph glyph-name="f" unicode="f" horiz-adv-x="299" 
d="M387 348h-113c-37 -124 -68 -243 -105 -360c-21 -66 -44 -129 -73 -169c-32 -45 -92 -88 -164 -88c-51 0 -101 24 -101 77c0 33 34 64 61 64c16 0 24 -9 28 -16c25 -45 49 -71 60 -71s20 15 38 80c42 155 86 316 131 483h-94c-7 21 3 47 15 52h94c18 58 39 117 69 170
c45 81 117 145 216 145c75 0 106 -36 106 -82c-1 -49 -44 -74 -64 -74c-16 0 -24 12 -29 29c-17 64 -39 83 -52 83s-33 -24 -55 -74c-29 -63 -48 -131 -66 -197h114c7 -14 1 -44 -16 -52z" />
    <glyph glyph-name="g" unicode="g" horiz-adv-x="416" 
d="M280 370c-16 0 -35 -13 -56 -41c-29 -39 -62 -117 -62 -163c0 -19 10 -29 27 -29c22 0 48 30 72 74c20 35 44 99 44 127c0 21 -12 32 -25 32zM138 -269c-70 0 -187 20 -187 100c0 78 112 114 166 131c-20 14 -39 28 -39 54c0 25 41 63 63 79v2c-44 10 -88 43 -87 115
c0 69 66 202 230 202c16 0 30 -3 49 -10c16 -5 29 -16 38 -16c14 0 29 4 41 8c16 6 34 12 49 12c18 0 34 -12 34 -41c0 -34 -22 -41 -33 -41c-9 0 -17 2 -28 6c-9 3 -18 6 -25 6c-4 0 -8 -4 -7 -11c1 -8 3 -21 3 -28c0 -112 -92 -200 -218 -206c-6 -5 -15 -16 -15 -24
c0 -14 36 -35 70 -52c56 -28 149 -72 149 -151c0 -106 -170 -135 -253 -135zM161 -64c-10 0 -37 -9 -54 -23s-32 -36 -32 -61c0 -46 53 -72 117 -72c56 0 96 20 96 51c0 25 -20 48 -49 67c-38 24 -67 38 -78 38z" />
    <glyph glyph-name="h" unicode="h" horiz-adv-x="510" 
d="M22 26l193 558c12 36 12 47 -6 57l-28 16c-3 8 -3 17 5 24c32 13 133 32 183 34c7 -1 9 -4 11 -10c-16 -42 -29 -77 -48 -130l-111 -312h2c25 34 57 67 89 92c44 36 88 59 130 59c46 0 76 -34 76 -89c0 -81 -52 -188 -99 -252c-34 -46 -91 -87 -152 -87
c-28 0 -54 14 -54 41s23 45 36 45c8 0 14 -4 20 -11c13 -15 20 -21 24 -21s10 8 19 30c32 74 79 204 79 253c0 16 -5 27 -18 27c-21 0 -64 -35 -116 -104c-58 -76 -120 -217 -132 -242c-7 -14 -28 -18 -50 -18c-25 0 -64 8 -53 40z" />
    <glyph glyph-name="i" unicode="i" horiz-adv-x="309" 
d="M294 326l-104 -245c-4 -9 -3 -15 4 -15c14 0 69 39 94 63c12 0 22 -11 19 -24c-39 -52 -128 -119 -210 -119c-26 0 -46 28 -46 40c0 11 4 23 12 43l104 249c3 8 3 14 -2 14c-17 0 -73 -42 -89 -57c-12 2 -20 15 -16 24c54 66 148 115 201 115c22 0 46 -22 46 -44
c0 -10 -7 -29 -13 -44zM225 550c0 44 33 83 79 83c34 0 56 -21 56 -59c0 -44 -30 -81 -76 -81c-37 0 -59 25 -59 57z" />
    <glyph glyph-name="j" unicode="j" horiz-adv-x="300" 
d="M250 414c26 0 45 -23 45 -46c0 -27 -18 -97 -44 -178c-31 -96 -59 -179 -80 -237c-33 -90 -69 -152 -123 -189c-29 -19 -66 -33 -111 -33c-46 0 -99 26 -99 72c0 33 27 59 56 59c12 0 21 -7 28 -17c28 -44 49 -65 55 -65c8 0 19 12 30 40c19 46 77 232 105 322
c34 108 49 155 50 171c0 11 -2 15 -9 15c-20 0 -77 -51 -90 -64c-12 1 -21 16 -17 27c35 40 123 123 204 123zM205 550c0 44 33 83 79 83c34 0 56 -21 56 -59c0 -44 -30 -81 -76 -81c-37 0 -59 25 -59 57z" />
    <glyph glyph-name="k" unicode="k" horiz-adv-x="493" 
d="M440 414c58 0 85 -36 85 -74c0 -39 -20 -73 -56 -103c-38 -32 -89 -47 -123 -56c-7 -2 -8 -9 -6 -17c9 -39 18 -101 46 -101c20 0 50 29 72 52c9 3 20 -6 22 -17c-24 -48 -87 -112 -162 -112c-28 0 -49 15 -61 39s-21 57 -29 93c-3 13 -8 28 -20 28
c-22 0 -27 -10 -37 -36l-41 -106c-6 -15 -28 -18 -47 -18c-25 0 -69 8 -58 40l189 558c12 36 10 47 -8 57l-28 16c-3 8 -3 17 5 24c32 13 135 32 184 34c7 -1 10 -4 10 -10c-16 -42 -29 -77 -48 -130l-99 -282h3c24 30 53 59 85 81c40 28 74 40 122 40zM361 343
c-35 0 -81 -36 -140 -112c-12 -15 -21 -35 -21 -40c0 -4 5 -7 16 -7c22 0 60 10 106 41c39 27 71 56 71 86c0 21 -14 32 -32 32z" />
    <glyph glyph-name="l" unicode="l" horiz-adv-x="275" 
d="M96 -14c-50 0 -64 23 -64 43c0 15 4 32 14 60l171 495c12 36 11 47 -7 57l-28 16c-3 8 -3 17 5 24c32 13 134 32 184 34c7 -1 10 -4 10 -10c-15 -42 -29 -78 -47 -131l-164 -475c-10 -28 -13 -46 1 -46c22 0 80 61 104 89c11 1 21 -9 19 -22c-29 -56 -84 -134 -198 -134z
" />
    <glyph glyph-name="m" unicode="m" horiz-adv-x="774" 
d="M230 414c49 0 49 -36 39 -63l-45 -118h2c54 78 139 181 223 181c44 0 55 -32 55 -58c0 -20 -18 -63 -43 -123h3c68 107 151 181 223 181c46 0 66 -35 66 -61c0 -24 -8 -55 -20 -86c-19 -50 -44 -108 -74 -179c-6 -14 -4 -22 4 -22c18 0 61 39 89 68c11 2 21 -6 20 -19
c-28 -50 -111 -129 -211 -129c-23 0 -43 21 -43 39c0 15 7 35 15 54c30 70 60 139 85 209c9 24 13 37 13 47c0 8 -4 14 -14 14c-11 0 -38 -19 -73 -64c-57 -71 -109 -185 -152 -277c-8 -18 -20 -22 -41 -22c-44 0 -76 11 -69 32c4 12 63 165 104 270c10 24 14 37 14 47
c0 8 -6 14 -14 14c-13 0 -43 -19 -82 -68c-53 -67 -104 -181 -145 -277c-6 -14 -16 -18 -39 -18c-43 0 -75 11 -68 32c4 13 84 236 99 279c12 34 8 41 -7 41c-34 0 -63 -37 -81 -57c-11 -1 -21 8 -22 19c29 65 93 114 189 114z" />
    <glyph glyph-name="n" unicode="n" horiz-adv-x="544" 
d="M236 414c46 0 42 -40 33 -63l-47 -123h4c58 81 136 186 234 186c45 0 63 -32 63 -58c0 -24 -8 -58 -20 -89c-19 -50 -44 -108 -74 -179c-6 -14 -4 -22 4 -22c15 0 63 39 89 68c11 2 21 -6 20 -19c-28 -50 -111 -129 -210 -129c-23 0 -43 21 -43 39c0 15 7 35 15 54
c30 70 60 139 85 209c9 24 13 37 13 47c0 8 -4 14 -13 14c-14 0 -41 -19 -76 -64c-56 -72 -110 -185 -155 -281c-7 -14 -26 -18 -48 -18c-25 0 -64 8 -54 40c5 14 81 228 96 271c7 20 8 36 -4 36c-21 0 -62 -32 -85 -54c-10 0 -17 8 -18 16c26 52 110 119 191 119z" />
    <glyph glyph-name="o" unicode="o" horiz-adv-x="468" 
d="M317 370c-16 0 -33 -12 -54 -38c-36 -45 -99 -165 -99 -261c0 -25 12 -41 31 -41c25 0 47 23 74 67c27 45 76 155 76 231c0 21 -6 42 -28 42zM310 414c107 0 147 -74 147 -146s-35 -156 -93 -212c-52 -50 -112 -70 -170 -70c-102 0 -146 69 -145 139c1 77 38 168 105 226
c58 50 111 63 156 63z" />
    <glyph glyph-name="p" unicode="p" horiz-adv-x="508" 
d="M321 454l-20 -57c12 2 22 3 28 3c126 0 167 -68 167 -147c0 -55 -31 -129 -75 -174c-51 -52 -119 -93 -206 -93c-12 0 -30 5 -41 10c-7 -1 -11 -7 -14 -17l-45 -133c-11 -34 -13 -58 25 -62l42 -4c12 -5 10 -30 -5 -34h-71c-62 0 -123 -4 -206 -11c-13 6 -14 27 -5 35
l32 5c42 7 52 23 75 90l158 464c-24 -5 -76 -28 -104 -43c-13 2 -18 19 -12 29c18 21 96 59 133 69l29 75c9 8 24 14 48 14c35 0 62 -9 67 -19zM286 346l-89 -259c-4 -12 -8 -28 5 -41c10 -11 22 -16 31 -16c12 0 35 11 59 40c44 51 76 130 76 196c0 59 -32 82 -66 82
c-4 0 -10 -1 -16 -2z" />
    <glyph glyph-name="q" unicode="q" horiz-adv-x="508" 
d="M360 414c39 0 57 -30 66 -49c16 24 34 49 54 73c18 6 47 2 55 -16c-9 -29 -33 -102 -61 -195l-116 -381c-17 -55 -4 -65 33 -68l25 -2c8 -9 6 -27 -1 -32c-81 -2 -190 -13 -284 -29c-11 8 -10 27 -1 33l33 8c48 12 57 26 75 84l98 309h-2c-39 -56 -112 -163 -229 -163
c-52 0 -71 58 -71 93c0 47 21 127 88 209c76 92 168 126 238 126zM373 328c0 27 -13 45 -25 45c-13 0 -52 -17 -111 -114c-61 -101 -81 -173 -81 -193c0 -14 7 -23 17 -23c16 0 70 35 123 105s77 125 77 180z" />
    <glyph glyph-name="r" unicode="r" horiz-adv-x="397" 
d="M397 414c29 0 49 -19 49 -60c0 -57 -39 -98 -66 -98c-20 0 -24 20 -29 46c-3 17 -8 23 -16 23c-17 0 -43 -41 -69 -87c-45 -81 -73 -156 -105 -234c-6 -14 -26 -18 -48 -18c-25 0 -65 8 -55 40c29 92 66 197 94 283c6 19 7 32 -4 32c-17 0 -55 -29 -83 -61
c-12 1 -20 12 -18 23c20 40 84 111 157 111c58 0 60 -45 43 -96l-36 -106h5c33 59 59 102 83 133c31 42 62 69 98 69z" />
    <glyph glyph-name="s" unicode="s" horiz-adv-x="324" 
d="M254 414c54 0 98 -35 98 -80c0 -39 -31 -52 -46 -52c-9 0 -17 7 -23 14c-40 46 -59 57 -79 57c-14 0 -26 -13 -26 -26c0 -11 6 -25 26 -45l38 -39c35 -36 51 -67 51 -102c0 -41 -22 -80 -60 -111c-34 -29 -77 -44 -125 -44c-46 0 -99 28 -99 77c0 32 23 58 49 58
c11 0 19 -10 31 -22c39 -41 59 -52 79 -52c18 0 34 14 34 29c0 14 -9 30 -29 51l-33 35c-31 32 -49 65 -49 101c0 43 26 83 56 109c29 24 66 42 107 42z" />
    <glyph glyph-name="t" unicode="t" horiz-adv-x="321" 
d="M380 348h-101l-93 -259c-5 -14 -5 -23 6 -23c18 0 66 36 106 77c15 -1 21 -10 20 -23c-34 -51 -136 -134 -218 -134c-27 0 -46 22 -46 43c0 14 2 27 11 54l91 265h-74c-10 8 -3 32 8 38l87 18l72 96c9 6 22 8 34 8c14 0 31 -6 37 -17l-27 -91h92c16 -13 5 -45 -5 -52z
" />
    <glyph glyph-name="u" unicode="u" horiz-adv-x="543" 
d="M258 414c24 0 45 -23 45 -42c0 -8 -2 -21 -5 -28l-99 -243c-7 -18 -4 -27 8 -27c6 0 18 4 38 21c83 71 155 217 200 311c11 5 22 8 37 8c33 0 56 -11 70 -22c-38 -98 -79 -197 -114 -295c-4 -12 -8 -28 5 -28c16 0 66 39 91 65c12 -2 18 -9 18 -23
c-28 -49 -126 -125 -210 -125c-25 0 -46 21 -34 51l56 142h-2c-53 -75 -163 -193 -243 -193c-34 0 -55 24 -55 52c0 18 7 38 15 59l83 209c5 13 4 26 -4 26c-20 0 -61 -39 -89 -61c-11 4 -18 10 -17 24c38 51 130 119 206 119z" />
    <glyph glyph-name="v" unicode="v" horiz-adv-x="460" 
d="M243 414c32 0 48 -28 48 -50c0 -15 -7 -39 -16 -63l-55 -148c-10 -28 -16 -53 -16 -64s6 -28 23 -28s56 22 93 74c28 40 50 113 50 145c0 27 -2 57 -9 73c2 40 26 61 61 61c49 -5 57 -41 57 -75c0 -76 -80 -207 -174 -282c-78 -63 -123 -71 -163 -71c-43 0 -64 45 -64 69
c0 19 3 46 15 80l59 162c7 18 9 35 -2 35c-20 0 -60 -36 -83 -58c-10 0 -19 8 -20 16c26 52 110 124 196 124z" />
    <glyph glyph-name="w" unicode="w" horiz-adv-x="690" 
d="M242 414c32 0 48 -28 48 -50c0 -15 -7 -39 -16 -63l-55 -148c-19 -51 -23 -68 -24 -78c0 -8 4 -14 11 -14c13 0 32 12 55 36c76 80 102 148 120 230c18 79 55 87 88 87c25 0 52 -15 52 -44c0 -23 -10 -46 -30 -83c-26 -49 -57 -127 -57 -181c0 -25 7 -41 27 -41
c24 0 64 34 91 83c28 51 42 118 42 156c0 17 0 33 -5 53c3 36 29 57 63 57c49 -5 58 -41 58 -75c-1 -67 -38 -150 -120 -237c-76 -81 -165 -116 -206 -116c-30 0 -62 26 -62 62c0 21 12 55 18 74h-3c-9 -9 -36 -40 -54 -57c-40 -36 -100 -79 -155 -79c-43 0 -60 40 -60 59
c0 20 5 42 23 90l61 162c8 22 7 35 -3 35c-20 0 -60 -36 -83 -58c-11 0 -18 8 -19 16c26 52 110 124 195 124z" />
    <glyph glyph-name="x" unicode="x" horiz-adv-x="453" 
d="M329 262l-33 -37l25 -79c20 -62 28 -71 36 -71c11 0 36 32 54 62c8 8 25 7 31 -5c-21 -70 -70 -146 -134 -146c-44 0 -64 35 -78 76l-22 67l-57 -69c-45 -54 -80 -74 -117 -74c-26 0 -46 19 -46 50c0 35 34 87 59 87c10 0 15 -12 22 -30c6 -14 13 -18 21 -18
c4 0 27 16 70 67l32 38l-30 95c-6 19 -14 38 -21 38c-10 0 -22 -6 -52 -51c-11 -5 -25 1 -27 12c12 41 64 140 138 140c26 0 46 -23 59 -65l23 -75l36 43c53 63 89 97 133 97c31 0 48 -27 48 -53c0 -46 -23 -85 -49 -85c-11 0 -18 10 -22 22c-4 13 -11 25 -24 25
s-41 -22 -75 -61z" />
    <glyph glyph-name="y" unicode="y" horiz-adv-x="425" 
d="M176 414c52 0 86 -44 89 -181c1 -71 0 -130 -8 -205h3c47 91 75 184 91 283c4 22 9 48 10 61c4 32 16 42 34 42c30 0 62 -13 63 -45c0 -17 -34 -136 -102 -258c-61 -109 -130 -223 -190 -286c-66 -70 -127 -94 -175 -94c-37 0 -76 24 -77 68c-1 38 27 65 60 65
c21 0 33 -13 44 -29c18 -26 30 -34 46 -34c11 0 25 9 40 26c18 21 34 53 42 94c8 40 15 95 12 206c-3 121 -12 198 -39 198c-20 0 -49 -49 -63 -81c-9 -8 -29 -3 -33 8c19 55 66 162 153 162z" />
    <glyph glyph-name="z" unicode="z" horiz-adv-x="442" 
d="M-1 25c0 20 16 39 51 69c87 73 164 127 240 188c8 7 9 13 -2 17c-50 18 -115 25 -130 25c-14 0 -24 -9 -24 -19c0 -17 23 -29 23 -44c0 -16 -16 -31 -38 -32c-30 -1 -52 20 -52 47c0 34 26 66 54 91c35 30 77 40 111 40c30 0 63 -11 85 -19c26 -9 41 -13 57 -13
c23 0 36 11 53 34c23 2 47 -19 39 -49c-137 -105 -202 -160 -294 -236v-4c30 0 50 -6 92 -29c37 -20 71 -36 86 -36c17 0 29 8 29 20c1 22 -24 48 -24 74c0 14 12 28 31 28c38 0 64 -39 63 -69c-1 -37 -26 -70 -52 -90c-27 -21 -68 -39 -108 -39c-38 0 -71 13 -106 32
c-19 10 -51 24 -72 24c-19 0 -40 -13 -53 -48c-44 -3 -59 21 -59 38z" />
    <glyph glyph-name="braceleft" unicode="{" horiz-adv-x="340" 
d="M97 -35c20 77 62 160 77 212c9 31 19 72 -63 78c-4 8 -2 22 4 26c87 3 105 47 115 85c17 61 24 134 45 204c34 115 112 126 203 124c9 -5 7 -24 -2 -29c-89 -11 -107 -53 -120 -96c-18 -57 -19 -131 -38 -196c-16 -55 -46 -90 -102 -103l-1 -4c48 -13 61 -49 44 -104
c-20 -65 -65 -143 -79 -196c-9 -34 -14 -87 55 -98c5 -7 3 -22 -4 -26c-79 -2 -161 22 -134 123z" />
    <glyph glyph-name="bar" unicode="|" horiz-adv-x="248" 
d="M198 750v-1000h-88v1000h88z" />
    <glyph glyph-name="braceright" unicode="}" horiz-adv-x="340" 
d="M322 571c-20 -77 -62 -160 -77 -212c-9 -31 -19 -72 63 -78c4 -8 2 -22 -4 -26c-87 -3 -105 -47 -115 -85c-17 -61 -24 -134 -45 -204c-34 -115 -112 -126 -203 -124c-9 5 -7 24 2 29c89 11 107 53 120 96c18 57 19 131 38 196c16 55 46 90 102 103l1 4
c-48 13 -61 49 -44 104c20 65 65 143 79 196c9 34 14 87 -55 98c-5 7 -3 22 4 26c79 2 161 -22 134 -123z" />
    <glyph glyph-name="asciitilde" unicode="~" horiz-adv-x="520" 
d="M206 249h127c48 0 66 23 85 74c16 10 45 4 56 -15c-10 -37 -33 -81 -55 -105c-19 -22 -41 -26 -76 -26h-138c-43 0 -65 -30 -85 -79c-15 -9 -48 -5 -54 13c3 24 26 78 50 108c23 27 50 30 90 30z" />
    <glyph glyph-name="exclamdown" unicode="&#xa1;" horiz-adv-x="247" 
d="M15 -266c-44 0 -65 13 -60 41c4 22 23 64 44 117l112 283c9 7 29 7 40 0l-36 -281c-7 -55 -12 -97 -18 -119c-9 -32 -38 -41 -82 -41zM175 394c39 0 69 -26 69 -70c0 -47 -35 -94 -87 -94c-40 0 -67 28 -67 74c0 50 36 90 85 90z" />
    <glyph glyph-name="cent" unicode="&#xa2;" horiz-adv-x="520" 
d="M297 191l97 290c-102 -6 -152 -102 -152 -184c0 -52 21 -91 55 -106zM438 471l-98 -294c7 -2 14 -2 21 -2c42 0 84 16 120 46c12 0 20 -12 19 -23c-30 -39 -89 -90 -183 -91l-31 -95c-10 -11 -39 -10 -48 0l32 97c-116 16 -158 99 -158 171c0 159 141 248 288 248h9
l26 78c10 10 37 10 48 0l-27 -82c38 -5 68 -15 85 -23c8 -8 10 -23 10 -34c0 -27 -21 -65 -41 -65c-5 0 -9 2 -12 5c-9 9 -45 60 -60 64z" />
    <glyph glyph-name="sterling" unicode="&#xa3;" horiz-adv-x="520" 
d="M315 340h122c7 -10 -2 -34 -15 -45h-117c-17 0 -21 -1 -24 -14c-20 -88 -70 -130 -135 -163l1 -2c15 2 32 0 65 -6c21 -3 51 -17 87 -35c26 -13 59 -25 82 -25c28 0 29 19 21 69c-4 28 17 43 36 43c20 0 48 -16 35 -76c-10 -45 -79 -126 -151 -126c-34 0 -66 12 -114 45
c-34 23 -71 46 -107 46c-29 0 -38 -24 -43 -38c-7 -14 -47 -27 -75 -27c-14 0 -17 6 -14 18c4 20 32 44 62 65c58 41 104 110 118 214c3 13 1 8 -14 12h-81c-6 8 -1 32 15 45h76c14 0 15 1 16 9c2 10 6 26 9 37c35 153 126 254 260 254c47 0 73 -16 83 -25
c9 -7 12 -18 9 -33c-7 -20 -37 -47 -47 -47c-9 0 -12 2 -21 10c-31 36 -51 41 -70 41c-27 0 -52 -34 -69 -128c-7 -36 -12 -64 -17 -103c-2 -13 0 -15 17 -15z" />
    <glyph glyph-name="fraction" unicode="&#x2044;" horiz-adv-x="100" 
d="M393 624l-537 -664c-19 -4 -41 11 -39 34l533 660c19 1 41 -7 43 -30z" />
    <glyph glyph-name="fraction" unicode="&#x2215;" horiz-adv-x="100" 
d="M393 624l-537 -664c-19 -4 -41 11 -39 34l533 660c19 1 41 -7 43 -30z" />
    <glyph glyph-name="yen" unicode="&#xa5;" horiz-adv-x="520" 
d="M335 245h145c8 -9 -1 -35 -14 -45h-145l-25 -84c-21 -72 -10 -80 15 -83l25 -3c6 -6 0 -27 -11 -33c-42 2 -86 3 -127 3c-43 0 -84 -1 -134 -3c-7 6 0 27 9 33l25 3c35 4 51 16 73 83l27 84h-145c-6 10 2 36 15 45h144l24 76h-144c-7 10 1 36 14 45h130l-42 169
c-7 30 -15 55 -48 60l-21 3c-5 7 -3 28 13 33c48 -2 91 -3 139 -3c41 0 76 1 90 3c11 -3 11 -25 1 -33l-28 -7c-15 -4 -25 -9 -27 -17c-2 -10 4 -40 7 -56c8 -44 16 -79 31 -133c17 19 60 70 93 111c23 29 55 68 59 78c2 8 -5 15 -22 19l-21 5c-8 7 -1 28 5 33
c52 -2 79 -3 105 -3c21 0 51 1 76 3c12 -4 8 -27 -1 -33l-23 -6c-34 -9 -47 -19 -98 -76l-136 -150h130c8 -9 -1 -35 -14 -45h-145z" />
    <glyph glyph-name="florin" unicode="&#x192;" horiz-adv-x="520" 
d="M178 427h81c18 55 35 95 61 137c31 51 111 133 213 133c56 0 78 -25 75 -49c-5 -34 -39 -63 -65 -63c-10 0 -16 6 -22 18c-9 23 -21 41 -33 41c-25 0 -64 -99 -100 -217h110c7 -6 0 -33 -15 -45h-109c-14 -41 -29 -92 -45 -145c-60 -200 -97 -255 -161 -310
c-35 -29 -78 -49 -122 -49c-49 0 -66 30 -65 69c1 31 24 57 35 57c8 0 16 -8 25 -19c24 -32 38 -50 55 -50c13 0 20 16 30 45c47 141 83 274 120 402h-83c-6 10 3 39 15 45z" />
    <glyph glyph-name="section" unicode="&#xa7;" horiz-adv-x="540" 
d="M470 676c80 0 94 -66 94 -83c0 -28 -25 -53 -46 -53c-10 0 -21 9 -29 24c-24 46 -56 63 -80 63c-26 0 -55 -21 -57 -60c-1 -34 20 -78 76 -142c79 -90 87 -158 85 -215c-6 -142 -198 -334 -344 -334c-84 0 -122 51 -122 97c0 29 19 50 36 50c26 0 50 -43 77 -63
c20 -14 39 -23 60 -23c28 0 63 13 63 55c0 58 -47 116 -101 185c-36 46 -63 110 -63 171c0 169 210 328 351 328zM282 229c35 -47 54 -84 62 -113c11 -36 9 -77 -5 -112l2 -1c45 33 81 83 81 158c0 52 -13 110 -67 177c-72 90 -88 146 -66 218c-41 -17 -80 -83 -82 -138
c-3 -58 13 -107 75 -189z" />
    <glyph glyph-name="currency" unicode="&#xa4;" horiz-adv-x="520" 
d="M306 450c-67 0 -124 -56 -124 -137c0 -82 58 -137 124 -137s124 56 124 137s-58 137 -124 137zM306 527c47 0 89 -14 119 -36l37 49c28 -3 59 -26 65 -60l-46 -42c24 -28 41 -75 41 -125s-17 -97 -41 -125l46 -42c-6 -34 -37 -57 -65 -60l-37 49
c-30 -22 -72 -36 -119 -36s-89 14 -119 36l-37 -49c-28 3 -59 26 -65 60l46 42c-24 28 -41 75 -41 125s17 97 41 125l-46 42c6 34 37 57 65 60l37 -49c30 22 72 36 119 36z" />
    <glyph glyph-name="quotesingle" unicode="'" horiz-adv-x="262" 
d="M329 609l-94 -205c-13 -8 -29 -8 -38 0l20 205c3 29 5 46 8 57c9 32 29 34 66 34c42 0 71 -2 62 -34c-3 -11 -10 -27 -24 -57z" />
    <glyph glyph-name="quotedblleft" unicode="&#x201c;" horiz-adv-x="480" 
d="M256 428c-37 0 -85 32 -85 104c0 81 78 147 189 174c14 -5 18 -22 10 -34c-53 -15 -100 -56 -100 -96c0 -22 12 -36 32 -47c12 -6 19 -20 19 -37c0 -33 -28 -64 -65 -64zM472 428c-37 0 -85 32 -85 104c0 81 78 147 189 174c14 -5 18 -22 10 -34
c-53 -15 -100 -56 -100 -96c0 -22 12 -36 32 -47c12 -6 19 -20 19 -37c0 -33 -28 -64 -65 -64z" />
    <glyph glyph-name="guillemotleft" unicode="&#xab;" horiz-adv-x="470" 
d="M286 382l-110 -159c-7 -11 -7 -20 -5 -28l46 -163c-3 -10 -13 -17 -26 -16c-38 57 -77 116 -119 174c-10 13 -7 24 7 36c64 58 122 115 182 173c13 0 23 -6 25 -17zM464 382l-110 -159c-7 -11 -7 -20 -5 -28l46 -163c-3 -10 -13 -17 -26 -16c-38 57 -77 116 -119 174
c-10 13 -7 24 7 36c64 58 122 115 182 173c13 0 23 -6 25 -17z" />
    <glyph glyph-name="guilsinglleft" unicode="&#x2039;" horiz-adv-x="292" 
d="M286 382l-110 -159c-7 -11 -7 -20 -5 -28l46 -163c-3 -10 -13 -17 -26 -16c-38 57 -77 116 -119 174c-10 13 -7 24 7 36c64 58 122 115 182 173c13 0 23 -6 25 -17z" />
    <glyph glyph-name="guilsinglright" unicode="&#x203a;" horiz-adv-x="292" 
d="M46 33l110 159c7 11 7 20 5 28l-46 163c3 10 13 17 26 16c38 -57 77 -116 119 -174c10 -13 7 -24 -7 -36c-64 -58 -122 -115 -182 -173c-13 0 -23 6 -25 17z" />
    <glyph glyph-name="endash" unicode="&#x2013;" horiz-adv-x="500" 
d="M22 242h500l-18 -69h-500z" />
    <glyph glyph-name="dagger" unicode="&#x2020;" horiz-adv-x="490" 
d="M199 -127h-58l37 127c35 121 36 195 36 262c42 38 64 84 86 158c-52 0 -82 -32 -119 -32c-32 0 -55 22 -48 57c6 31 32 52 63 52c40 0 65 -32 117 -32c19 80 -6 100 3 141c9 40 39 70 83 70c42 0 64 -30 53 -70c-11 -41 -52 -61 -79 -141c50 0 83 32 121 32
c33 0 57 -21 49 -58c-6 -31 -34 -51 -65 -51c-41 0 -66 32 -118 32c-22 -74 -26 -120 -6 -158c-40 -67 -83 -141 -118 -262z" />
    <glyph glyph-name="daggerdbl" unicode="&#x2021;" horiz-adv-x="490" 
d="M179 -124c-44 0 -63 36 -53 69c16 52 57 72 79 148c-59 0 -86 -31 -121 -31c-31 0 -56 22 -48 59c6 26 31 48 64 48c32 0 61 -31 118 -31c23 76 25 121 2 149c40 31 64 76 83 141c-59 0 -86 -31 -121 -31c-31 0 -56 22 -48 59c6 26 31 48 64 48c32 0 61 -31 118 -31
c19 76 -6 97 5 138c7 28 29 65 77 65c53 0 58 -39 53 -65c-9 -42 -50 -62 -77 -138c57 0 86 31 123 31c30 0 54 -22 48 -58c-5 -27 -28 -49 -64 -49c-33 0 -55 31 -120 31c-19 -65 -21 -110 1 -141c-39 -28 -63 -73 -86 -149c57 0 86 31 123 31c30 0 54 -22 48 -58
c-5 -27 -28 -49 -64 -49c-33 0 -55 31 -120 31c-22 -76 4 -99 -8 -153c-8 -33 -31 -64 -76 -64z" />
    <glyph glyph-name="periodcentered" unicode="&#xb7;" horiz-adv-x="260" 
d="M162 292c40 0 67 -28 67 -74c0 -50 -36 -90 -85 -90c-39 0 -69 26 -69 70c0 47 35 94 87 94z" />
    <glyph glyph-name="periodcentered" unicode="&#x2219;" horiz-adv-x="260" 
d="M162 292c40 0 67 -28 67 -74c0 -50 -36 -90 -85 -90c-39 0 -69 26 -69 70c0 47 35 94 87 94z" />
    <glyph glyph-name="paragraph" unicode="&#xb6;" horiz-adv-x="510" 
d="M494 433l-131 -441c-24 -80 -51 -148 -102 -183c-26 -18 -57 -24 -84 -24c-40 0 -97 20 -97 81c0 33 20 61 46 68c29 1 50 -17 52 -34c-9 -9 -18 -25 -18 -41c-1 -22 13 -35 33 -35c24 0 61 24 90 119l43 142c6 19 1 31 -11 31c-76 0 -191 50 -191 174
c0 95 53 160 119 198c64 37 145 52 250 52c66 0 102 -3 117 -6c8 -5 2 -24 -8 -31l-36 -6c-54 -9 -56 -10 -72 -64z" />
    <glyph glyph-name="bullet" unicode="&#x2022;" horiz-adv-x="414" 
d="M273 492c86 0 156 -69 156 -156c0 -88 -70 -157 -156 -157c-85 0 -155 68 -155 157c0 87 68 156 155 156z" />
    <glyph glyph-name="quotesinglbase" unicode="&#x201a;" horiz-adv-x="262" 
d="M103 160c37 0 85 -32 85 -104c0 -81 -78 -147 -189 -174c-14 5 -18 22 -10 34c53 15 100 56 100 96c0 22 -12 36 -32 47c-12 6 -19 20 -19 37c0 33 28 64 65 64z" />
    <glyph glyph-name="quotedblbase" unicode="&#x201e;" horiz-adv-x="480" 
d="M104 160c37 0 85 -32 85 -104c0 -81 -78 -147 -189 -174c-14 5 -18 22 -10 34c53 15 100 56 100 96c0 22 -12 36 -32 47c-12 6 -19 20 -19 37c0 33 28 64 65 64zM320 160c37 0 85 -32 85 -104c0 -81 -78 -147 -189 -174c-14 5 -18 22 -10 34c53 15 100 56 100 96
c0 22 -12 36 -32 47c-12 6 -19 20 -19 37c0 33 28 64 65 64z" />
    <glyph glyph-name="quotedblright" unicode="&#x201d;" horiz-adv-x="480" 
d="M264 700c37 0 85 -32 85 -104c0 -81 -78 -147 -189 -174c-14 5 -18 22 -10 34c53 15 100 56 100 96c0 22 -12 36 -32 47c-12 6 -19 20 -19 37c0 33 28 64 65 64zM480 700c37 0 85 -32 85 -104c0 -81 -78 -147 -189 -174c-14 5 -18 22 -10 34c53 15 100 56 100 96
c0 22 -12 36 -32 47c-12 6 -19 20 -19 37c0 33 28 64 65 64z" />
    <glyph glyph-name="guillemotright" unicode="&#xbb;" horiz-adv-x="470" 
d="M46 33l110 159c7 11 7 20 5 28l-46 163c3 10 13 17 26 16c38 -57 77 -116 119 -174c10 -13 7 -24 -7 -36c-64 -58 -122 -115 -182 -173c-13 0 -23 6 -25 17zM224 33l110 159c7 11 7 20 5 28l-46 163c3 10 13 17 26 16c38 -57 77 -116 119 -174c10 -13 7 -24 -7 -36
c-64 -58 -122 -115 -182 -173c-13 0 -23 6 -25 17z" />
    <glyph glyph-name="ellipsis" unicode="&#x2026;" horiz-adv-x="1000" 
d="M460 -14c-39 0 -69 26 -69 70c0 47 35 94 87 94c40 0 67 -28 67 -74c0 -50 -36 -90 -85 -90zM793 -14c-39 0 -69 26 -69 70c0 47 35 94 87 94c40 0 67 -28 67 -74c0 -50 -36 -90 -85 -90zM127 -14c-39 0 -69 26 -69 70c0 47 35 94 87 94c40 0 67 -28 67 -74
c0 -50 -36 -90 -85 -90z" />
    <glyph glyph-name="perthousand" unicode="&#x2030;" horiz-adv-x="1201" 
d="M698 355c83 0 126 -51 126 -133c0 -101 -77 -236 -206 -236c-83 0 -126 52 -126 126c0 113 86 243 206 243zM581 78c0 -28 9 -54 38 -54c26 0 48 25 62 52c24 46 58 141 58 192c0 28 -11 49 -37 49c-23 0 -46 -22 -62 -49c-30 -50 -59 -136 -59 -190zM342 640
c83 0 126 -51 126 -133c0 -101 -77 -236 -206 -236c-83 0 -126 52 -126 126c0 113 86 243 206 243zM225 363c0 -28 9 -54 38 -54c26 0 48 25 62 52c24 46 58 141 58 192c0 28 -11 49 -37 49c-23 0 -46 -22 -62 -49c-30 -50 -59 -136 -59 -190zM1058 355
c83 0 126 -51 126 -133c0 -101 -77 -236 -206 -236c-83 0 -126 52 -126 126c0 113 86 243 206 243zM941 78c0 -28 9 -54 38 -54c26 0 48 25 62 52c24 46 58 141 58 192c0 28 -11 49 -37 49c-23 0 -46 -22 -62 -49c-30 -50 -59 -136 -59 -190zM745 630l-497 -670
c-19 -4 -36 7 -40 24l497 670c15 2 38 -7 40 -24z" />
    <glyph glyph-name="questiondown" unicode="&#xbf;" horiz-adv-x="350" 
d="M104 -266c-69 0 -144 76 -144 169c0 55 37 105 105 133l76 31c47 19 65 35 65 58c0 14 0 27 -4 47c6 8 22 10 31 5c20 -28 33 -68 33 -100c0 -60 -39 -94 -112 -120l-74 -26c-37 -13 -65 -27 -65 -46c0 -22 26 -40 62 -40c18 0 36 1 51 4c18 3 29 6 37 6
c24 0 38 -19 38 -41c0 -38 -33 -80 -99 -80zM251 394c39 0 69 -26 69 -70c0 -47 -35 -94 -87 -94c-40 0 -67 28 -67 74c0 50 36 90 85 90z" />
    <glyph glyph-name="grave" unicode="`" horiz-adv-x="380" 
d="M294 649l53 -176c-1 -12 -13 -18 -26 -16l-108 135c-10 13 -16 25 -15 37c0 9 10 21 30 34c18 12 29 15 40 15c9 0 19 -7 26 -29z" />
    <glyph glyph-name="acute" unicode="&#xb4;" horiz-adv-x="380" 
d="M288 475l103 168c13 21 23 27 33 26c11 -1 20 -6 36 -18c16 -16 24 -27 23 -37c-1 -11 -11 -24 -24 -34l-148 -123c-14 -1 -22 6 -23 18z" />
    <glyph glyph-name="circumflex" unicode="&#x2c6;" horiz-adv-x="380" 
d="M423 455l-52 81c-8 13 -13 20 -19 20c-5 0 -13 -9 -26 -22l-83 -81c-12 0 -23 7 -23 20l134 189c7 10 15 13 23 13s17 -3 20 -13l51 -189c-3 -12 -13 -17 -25 -18z" />
    <glyph glyph-name="tilde" unicode="&#x2dc;" horiz-adv-x="380" 
d="M368 520h-56c-45 0 -68 -18 -86 -49c-6 -4 -27 -2 -31 6c6 19 25 67 41 87c17 21 34 28 61 28h56c40 0 62 6 78 47c8 3 26 1 30 -5c-6 -32 -18 -63 -33 -86c-14 -21 -29 -28 -60 -28z" />
    <glyph glyph-name="macron" unicode="&#xaf;" horiz-adv-x="380" 
d="M408 506h-223c-9 16 -3 60 12 72h223c10 -16 4 -56 -12 -72z" />
    <glyph glyph-name="macron" unicode="&#x2c9;" horiz-adv-x="380" 
d="M408 506h-223c-9 16 -3 60 12 72h223c10 -16 4 -56 -12 -72z" />
    <glyph glyph-name="breve" unicode="&#x2d8;" horiz-adv-x="380" 
d="M288 485c-73 0 -114 58 -88 157c9 5 20 5 32 0c-6 -57 32 -88 67 -88c44 0 87 31 103 88c10 5 22 5 32 0c-10 -99 -49 -157 -146 -157z" />
    <glyph glyph-name="dotaccent" unicode="&#x2d9;" horiz-adv-x="380" 
d="M305 489c-36 0 -59 25 -54 62c4 36 32 62 68 62c34 0 61 -26 55 -65c-6 -34 -34 -59 -69 -59z" />
    <glyph glyph-name="dieresis" unicode="&#xa8;" horiz-adv-x="380" 
d="M213 487c-36 0 -59 25 -54 62c5 35 32 61 68 61c34 0 59 -26 54 -64c-5 -34 -33 -59 -68 -59zM398 487c-36 0 -59 25 -54 62c5 35 32 61 69 61c33 0 59 -26 53 -64c-6 -34 -32 -59 -68 -59z" />
    <glyph glyph-name="ring" unicode="&#x2da;" horiz-adv-x="380" 
d="M340 459c-61 0 -97 46 -97 94s36 93 97 93s97 -45 97 -93s-36 -94 -97 -94zM340 495c28 0 43 26 43 58s-15 58 -43 60c-28 -2 -43 -28 -43 -60s15 -58 43 -58z" />
    <glyph glyph-name="cedilla" unicode="&#xb8;" horiz-adv-x="380" 
d="M161 0h53l-38 -52c-8 -10 -6 -13 8 -23c23 -18 48 -43 48 -82c0 -55 -62 -92 -126 -92c-49 0 -77 15 -77 44c0 18 13 32 32 32c27 0 46 -36 67 -36c11 0 26 8 26 25c0 31 -26 56 -61 70l-4 9z" />
    <glyph glyph-name="hungarumlaut" unicode="&#x2dd;" horiz-adv-x="380" 
d="M209 476l49 177c6 22 15 28 24 28c10 0 21 -2 36 -10c17 -9 27 -20 29 -29c2 -12 -5 -24 -13 -36l-98 -145c-12 -2 -23 4 -27 15zM360 476l51 177c6 22 14 28 23 28c10 0 20 -2 34 -10c18 -9 28 -20 30 -29c2 -12 -4 -24 -12 -36l-99 -145c-11 -2 -22 4 -27 15z" />
    <glyph glyph-name="ogonek" unicode="&#x2db;" horiz-adv-x="380" 
d="M212 5h54c-53 -38 -120 -88 -120 -153c5 -30 23 -46 54 -46c20 0 36 5 53 16c7 -2 9 -11 8 -20c-32 -40 -75 -55 -115 -55c-47 0 -91 23 -91 76c0 80 101 154 157 182z" />
    <glyph glyph-name="caron" unicode="&#x2c7;" horiz-adv-x="380" 
d="M269 677l51 -83c8 -13 13 -20 18 -20s14 9 27 22l86 83c12 0 23 -7 23 -20l-136 -191c-8 -11 -15 -13 -23 -13c-7 0 -17 2 -20 13l-52 191c3 11 14 17 26 18z" />
    <glyph glyph-name="emdash" unicode="&#x2014;" horiz-adv-x="1000" 
d="M22 242h1000l-18 -69h-1000z" />
    <glyph glyph-name="AE" unicode="&#xc6;" horiz-adv-x="848" 
d="M409 317h-107c-24 0 -30 -4 -56 -40c-59 -80 -114 -149 -153 -206c-10 -15 -16 -28 3 -31l48 -8c8 -8 7 -28 -5 -35c-43 2 -86 3 -132 3c-33 0 -71 -1 -103 -3c-7 8 -8 27 1 35l27 5c28 5 50 12 112 86c124 146 275 333 350 426c42 52 49 66 15 72l-41 7
c-12 7 -8 29 6 35c22 -1 49 -2 79 -2c30 -1 64 -1 98 -1h259c64 0 121 1 136 3c-7 -17 -33 -89 -51 -157c-5 -11 -31 -12 -38 -4c3 36 0 65 -4 77c-8 23 -34 35 -84 35h-78c-34 0 -37 -2 -49 -40l-55 -174c-9 -28 -7 -30 19 -30h66c52 0 65 8 91 56l13 24c10 9 35 8 38 -1
c-12 -31 -24 -68 -37 -106c-12 -38 -21 -74 -30 -106c-8 -8 -34 -9 -38 -1l3 25c6 48 -4 56 -56 56h-66c-26 0 -30 -3 -38 -30l-38 -122c-15 -47 -21 -79 -14 -94c9 -18 25 -25 98 -25c87 0 122 3 204 115c11 8 34 6 40 -6c-17 -50 -55 -131 -77 -158c-31 1 -71 2 -113 2
c-42 1 -87 1 -128 1h-123c-50 0 -95 -1 -145 -3c-10 6 -9 31 5 35l34 5c47 7 54 14 84 107l46 144c8 24 8 29 -16 29zM340 370h75c29 0 35 2 41 22l58 183c4 13 9 35 9 39h-5c-4 -2 -15 -15 -37 -41c-41 -49 -114 -147 -147 -187c-11 -14 -12 -16 6 -16z" />
    <glyph glyph-name="ordfeminine" unicode="&#xaa;" horiz-adv-x="406" 
d="M339 530c8 0 23 -6 34 -16l17 33c5 3 12 5 20 5c10 0 21 -2 31 -5c12 -4 27 -11 31 -18c-29 -66 -62 -143 -89 -217c-3 -9 -2 -14 3 -14c7 0 44 21 68 44c9 0 16 -11 14 -21c-33 -43 -98 -81 -157 -81c-22 0 -34 16 -34 27c0 7 4 18 9 29l19 46h-3
c-39 -47 -111 -102 -168 -102c-27 0 -50 20 -50 44c0 41 45 128 114 185c51 42 94 61 141 61zM200 312v-6c0 -5 3 -8 7 -8c13 0 54 36 76 64c28 34 59 87 66 106c-8 20 -16 26 -29 26c-10 0 -24 -5 -46 -31c-37 -44 -74 -114 -74 -151z" />
    <glyph glyph-name="Lslash" unicode="&#x141;" horiz-adv-x="588" 
d="M466 405l-150 -84l-50 -156c-15 -47 -19 -76 -13 -94s24 -25 92 -25c87 0 122 3 204 115c11 8 35 6 40 -7c-16 -49 -55 -130 -76 -157c-31 1 -71 1 -114 2c-42 0 -87 1 -128 1h-115c-50 0 -95 -1 -145 -3c-12 6 -13 31 1 35l33 5c43 7 51 14 80 107l27 86l-86 -49
c-12 8 -21 29 -15 48l123 68l68 219c25 81 26 100 -25 108l-26 4c-10 6 -6 31 7 35c54 -2 104 -3 152 -3s93 1 136 3c12 -6 10 -31 -5 -35l-24 -4c-43 -7 -51 -15 -80 -108l-40 -126l113 62c14 -7 23 -30 16 -47z" />
    <glyph glyph-name="Oslash" unicode="&#xd8;" horiz-adv-x="758" 
d="M634 525l-370 -433c21 -39 57 -62 107 -62c38 0 92 16 139 71c90 106 130 242 130 364c0 23 -2 44 -6 60zM245 149l368 431c-21 34 -55 50 -96 50c-40 0 -77 -18 -109 -43c-80 -64 -168 -226 -168 -390c0 -17 1 -33 5 -48zM753 665l-50 -59c45 -43 78 -111 78 -210
c0 -115 -49 -222 -123 -298c-51 -52 -152 -114 -274 -114c-76 0 -133 17 -175 44l-61 -72c-17 0 -35 20 -39 34l60 70c-53 55 -70 130 -70 191c0 126 61 254 160 335c83 68 174 90 247 90c51 0 107 -11 155 -39l51 60c16 1 35 -12 41 -32z" />
    <glyph glyph-name="OE" unicode="&#x152;" horiz-adv-x="1020" 
d="M803 660h179c64 0 121 1 136 3c-7 -17 -33 -89 -51 -157c-5 -11 -31 -12 -38 -4c3 36 0 65 -4 77c-8 23 -34 35 -84 35h-78c-34 0 -37 -2 -49 -40l-55 -174c-9 -28 -7 -30 19 -30h66c52 0 65 8 91 56l13 24c10 9 35 8 38 -1c-12 -31 -24 -68 -37 -106
c-12 -38 -21 -74 -30 -106c-8 -8 -34 -9 -38 -1l3 25c6 48 -4 56 -56 56h-66c-26 0 -30 -3 -38 -30l-38 -122c-15 -47 -20 -76 -14 -94c6 -17 25 -25 98 -25c87 0 122 3 204 115c11 8 34 6 40 -6c-17 -50 -55 -131 -77 -158c-31 1 -71 2 -113 2c-42 1 -87 1 -128 1h-85
c-29 0 -59 -1 -88 -3c-29 -1 -57 -3 -85 -3c-263 0 -335 150 -335 267c0 138 62 233 148 301c86 69 206 104 338 104c49 0 87 -1 121 -3c33 -1 63 -3 93 -3zM539 121l135 436c9 30 6 43 -13 53c-15 8 -37 10 -59 10c-225 0 -353 -221 -353 -383c0 -120 60 -197 186 -197
c51 0 84 15 104 81z" />
    <glyph glyph-name="ordmasculine" unicode="&#xba;" horiz-adv-x="380" 
d="M200 302c0 -17 10 -26 24 -26s33 14 50 42c20 32 58 109 58 160c0 14 -7 26 -20 26c-11 0 -22 -7 -36 -22c-28 -32 -76 -115 -76 -180zM104 345c0 47 28 109 77 149c36 29 79 46 123 46c90 0 121 -52 121 -104c0 -49 -26 -107 -69 -147c-37 -33 -86 -49 -134 -49
c-86 0 -119 49 -118 105z" />
    <glyph glyph-name="ae" unicode="&#xe6;" horiz-adv-x="583" 
d="M93 -14c-40 0 -75 24 -75 73s34 114 82 161c44 42 111 94 250 143c34 20 85 51 145 51c72 0 108 -40 108 -94c0 -69 -60 -116 -222 -193c1 -49 32 -72 55 -72c34 0 67 26 93 57c14 3 26 -2 27 -17c-27 -55 -100 -109 -182 -109c-72 0 -92 47 -101 75
c-50 -39 -131 -75 -180 -75zM176 57c15 0 48 13 88 42c2 73 18 129 68 212h-2c-108 -49 -175 -180 -175 -226c0 -18 10 -28 21 -28zM498 338c0 20 -9 32 -25 32c-45 0 -92 -115 -94 -199c73 53 119 118 119 167z" />
    <glyph glyph-name="dotlessi" unicode="&#x131;" horiz-adv-x="309" 
d="M294 326l-104 -245c-4 -9 -3 -15 4 -15c14 0 69 39 94 63c12 0 22 -11 19 -24c-39 -52 -128 -119 -210 -119c-26 0 -46 28 -46 40c0 11 4 23 12 43l104 249c3 8 3 14 -2 14c-17 0 -73 -42 -89 -57c-12 2 -20 15 -16 24c54 66 148 115 201 115c22 0 46 -22 46 -44
c0 -10 -7 -29 -13 -44z" />
    <glyph glyph-name="lslash" unicode="&#x142;" horiz-adv-x="289" 
d="M400 411l-144 -88l-78 -224c-10 -28 -13 -46 1 -46c22 0 80 61 104 89c11 1 21 -9 19 -22c-29 -56 -84 -134 -198 -134c-50 0 -64 23 -64 43c0 15 4 32 14 60l48 136l-2 2l-77 -48c-11 5 -23 25 -17 41l119 73l101 291c12 36 11 47 -7 57l-28 16c-3 8 -3 17 5 24
c32 13 134 32 184 34c7 -1 10 -4 10 -10c-15 -42 -28 -78 -47 -131l-64 -181l2 -2l98 61c14 -4 24 -21 21 -41z" />
    <glyph glyph-name="oslash" unicode="&#xf8;" horiz-adv-x="468" 
d="M156 96l188 262c-6 7 -15 12 -30 12c-20 0 -41 -12 -65 -39c-38 -41 -92 -145 -95 -233zM351 307l-187 -262c7 -10 18 -15 30 -15c32 0 59 22 89 67c27 40 70 136 70 208zM437 423l-30 -40c38 -28 50 -73 50 -117c0 -70 -37 -154 -95 -210c-52 -50 -111 -70 -165 -70
c-26 0 -49 4 -71 12l-38 -51c-11 -1 -25 6 -26 23l35 47c-34 29 -48 72 -47 116c1 66 35 159 104 218c58 50 115 63 157 63c24 0 46 -4 65 -12l30 40c15 2 28 -5 31 -19z" />
    <glyph glyph-name="oe" unicode="&#x153;" horiz-adv-x="652" 
d="M345 328c0 21 -6 42 -26 42c-17 0 -34 -12 -55 -38c-36 -45 -99 -165 -99 -261c0 -29 14 -41 31 -41c25 0 46 23 73 67c27 45 76 155 76 231zM418 339c4 5 11 11 17 16c55 44 101 59 148 59c58 0 97 -36 97 -80c0 -103 -171 -151 -251 -172c-4 -12 -5 -27 -5 -48
c0 -27 13 -55 42 -55c36 0 84 24 130 70c11 0 21 -10 20 -23c-48 -75 -128 -120 -205 -120c-41 0 -72 23 -84 67c-46 -46 -92 -67 -144 -67c-87 0 -134 63 -133 147c1 67 35 158 105 218c58 50 111 63 157 63c50 0 93 -26 106 -75zM437 206c34 7 65 25 94 57
c20 21 35 59 36 84c0 11 -7 23 -18 23c-13 0 -29 -9 -44 -26c-36 -39 -61 -101 -68 -138z" />
    <glyph glyph-name="germandbls" unicode="&#xdf;" horiz-adv-x="526" 
d="M524 715c107 0 158 -45 158 -113c0 -82 -122 -124 -182 -154c-48 -24 -56 -54 -56 -80c0 -27 17 -64 32 -99c15 -34 25 -67 25 -105c0 -52 -29 -100 -71 -135c-28 -23 -67 -43 -105 -43c-53 0 -77 37 -77 65c0 17 7 32 19 44c9 8 21 8 25 4c19 -23 45 -51 71 -51
c13 0 40 5 40 34c0 23 -19 64 -42 110c-19 38 -36 79 -36 120c0 74 46 113 130 160c78 43 98 99 98 135c0 44 -34 64 -58 64c-79 0 -159 -101 -219 -273c-68 -197 -105 -462 -149 -549c-38 -75 -105 -118 -178 -118c-48 0 -103 24 -103 76c0 35 29 59 58 59
c14 0 19 -7 27 -21c25 -45 47 -65 59 -65c14 0 22 19 66 244c31 157 55 265 95 376c32 89 88 194 195 264c45 29 101 51 178 51z" />
    <glyph glyph-name="onesuperior" unicode="&#xb9;" 
d="M153 340l29 4c29 4 35 13 54 68l54 160c12 35 14 50 -14 54l-26 4c-7 5 -5 23 5 28c61 9 134 29 179 50c9 0 14 -3 13 -8c-5 -17 -21 -55 -32 -88l-66 -200c-17 -51 -14 -64 11 -68l26 -4c4 -6 2 -23 -6 -27c-42 1 -82 2 -120 2c-37 0 -77 -1 -108 -2c-9 4 -7 21 1 27z
" />
    <glyph glyph-name="logicalnot" unicode="&#xac;" horiz-adv-x="520" 
d="M393 67v183h-313v72h401v-255h-88z" />
    <glyph glyph-name="mu" unicode="&#xb5;" horiz-adv-x="539" 
d="M256 414c24 0 45 -23 45 -42c0 -8 -2 -21 -5 -28l-99 -243c-7 -18 -4 -27 8 -27c6 0 18 4 38 21c80 72 155 217 200 311c11 5 22 8 37 8c33 0 56 -11 70 -22c-38 -98 -79 -197 -114 -295c-4 -12 -8 -28 5 -28c16 0 66 39 91 65c12 -2 18 -9 18 -23
c-28 -49 -126 -125 -210 -125c-25 0 -46 21 -34 51l49 125h-2c-44 -58 -156 -176 -226 -176c-6 0 -15 4 -22 10c-6 -1 -11 -6 -16 -23l-12 -38c-18 -56 -4 -120 -9 -138c-10 -32 -55 -58 -101 -58c-19 0 -25 12 -18 31l211 536c5 13 4 26 -4 26c-20 0 -61 -39 -89 -61
c-11 4 -18 10 -17 24c38 51 130 119 206 119z" />
    <glyph glyph-name="mu" unicode="&#x3bc;" horiz-adv-x="539" 
d="M256 414c24 0 45 -23 45 -42c0 -8 -2 -21 -5 -28l-99 -243c-7 -18 -4 -27 8 -27c6 0 18 4 38 21c80 72 155 217 200 311c11 5 22 8 37 8c33 0 56 -11 70 -22c-38 -98 -79 -197 -114 -295c-4 -12 -8 -28 5 -28c16 0 66 39 91 65c12 -2 18 -9 18 -23
c-28 -49 -126 -125 -210 -125c-25 0 -46 21 -34 51l49 125h-2c-44 -58 -156 -176 -226 -176c-6 0 -15 4 -22 10c-6 -1 -11 -6 -16 -23l-12 -38c-18 -56 -4 -120 -9 -138c-10 -32 -55 -58 -101 -58c-19 0 -25 12 -18 31l211 536c5 13 4 26 -4 26c-20 0 -61 -39 -89 -61
c-11 4 -18 10 -17 24c38 51 130 119 206 119z" />
    <glyph glyph-name="trademark" unicode="&#x2122;" horiz-adv-x="710" 
d="M274 524v97c0 11 0 12 -11 12h-8c-22 0 -36 -10 -45 -35c-3 -7 -19 -5 -20 3c6 37 10 57 14 71c2 5 13 5 15 0c9 -11 11 -12 31 -12h127c14 0 18 0 30 12c3 5 13 5 15 0c-4 -18 -6 -51 -5 -74c-2 -9 -17 -9 -19 -2c-5 24 -13 37 -39 37h-13c-8 0 -8 -1 -8 -12v-100
c0 -30 1 -41 18 -44l16 -3c4 -3 3 -19 -1 -20c-22 1 -45 1 -72 1c-25 0 -40 0 -58 -1c-4 2 -4 15 -1 20l16 3c16 3 18 17 18 47zM679 502l-2 98c0 6 0 10 -2 11c-1 0 -10 -22 -19 -43l-19 -44c-14 -33 -21 -48 -28 -70c-6 -2 -16 -5 -25 1c-4 16 -17 45 -23 60l-23 55
c-10 23 -21 46 -23 47c-1 -2 -2 -16 -4 -52c-1 -18 0 -46 0 -61c1 -22 4 -27 20 -29l9 -1c2 -3 2 -15 0 -20c-10 1 -24 1 -47 1c-17 0 -36 0 -47 -1c-3 2 -3 16 -1 20l6 1c19 3 24 10 25 24c4 37 9 81 9 112c0 19 -8 26 -24 28l-8 2c-8 3 -7 19 1 20c17 0 28 -1 40 -1
c17 0 30 0 66 1c0 -11 13 -37 23 -56l19 -37c5 -10 9 -15 12 -15c2 0 6 2 12 12l17 37c9 19 16 35 23 59c31 -1 40 -1 48 -1c14 0 38 0 50 1c6 -1 6 -18 1 -20l-10 -2c-17 -3 -19 -9 -19 -24c0 -28 1 -80 3 -108c2 -23 4 -26 14 -29l15 -4c6 -2 6 -18 0 -20
c-14 1 -28 1 -61 1c-26 0 -40 0 -55 -1c-3 2 -4 18 0 20l15 4c12 3 12 8 12 24z" />
    <glyph glyph-name="Eth" unicode="&#xd0;" horiz-adv-x="777" 
d="M92 370h105l47 151c21 68 23 84 -12 92l-29 7c-9 8 -6 29 6 34c54 5 123 9 220 9c108 -1 196 -17 261 -61s108 -119 108 -218c0 -93 -38 -184 -102 -250c-122 -125 -296 -140 -402 -140c-29 0 -56 2 -79 3c-23 2 -43 3 -60 3c-48 0 -93 -1 -143 -3c-10 6 -9 32 5 34l29 5
c43 7 51 15 80 108l54 173h-100c-8 12 -2 43 12 53zM432 317h-117l-51 -162c-12 -37 -14 -54 -14 -70c-1 -27 22 -45 66 -45c50 0 119 12 196 76c96 79 136 203 136 298c0 69 -20 203 -193 203c-42 0 -47 -3 -60 -46l-63 -201h112c6 -14 4 -45 -12 -53z" />
    <glyph glyph-name="onehalf" unicode="&#xbd;" horiz-adv-x="840" 
d="M83 272l29 4c29 4 35 13 54 68l54 160c12 35 14 50 -14 54l-26 4c-7 5 -5 23 5 28c61 9 134 29 179 50c9 0 14 -3 13 -8c-5 -17 -21 -55 -32 -88l-66 -200c-17 -51 -14 -64 11 -68l26 -4c4 -6 2 -23 -6 -27c-42 1 -82 2 -120 2c-37 0 -77 -1 -108 -2c-9 4 -7 21 1 27z
M741 624l-537 -664c-19 -4 -41 11 -39 34l533 660c19 1 41 -7 43 -30zM648 0h-118c-40 0 -65 -1 -76 -2c-6 5 -7 13 -3 20c28 19 55 38 118 88c84 67 138 109 138 171c0 31 -18 58 -56 58c-34 0 -66 -27 -87 -59c-12 -3 -23 6 -25 17c31 63 97 100 161 100
c67 0 127 -39 127 -110c0 -72 -67 -108 -148 -156l-59 -35c-16 -9 -14 -19 6 -19h78c33 0 42 3 66 31c7 3 19 2 24 -8c-16 -47 -40 -85 -54 -98c-27 1 -56 2 -92 2z" />
    <glyph glyph-name="plusminus" unicode="&#xb1;" horiz-adv-x="520" 
d="M305 110h-88v157h-157v72h157v149h88v-149h156v-72h-156v-157zM461 0h-401v72h401v-72z" />
    <glyph glyph-name="Thorn" unicode="&#xde;" horiz-adv-x="602" 
d="M376 526h41c63 0 116 -14 154 -42c38 -27 60 -68 60 -124c0 -127 -120 -195 -268 -195c-12 0 -23 0 -29 1c-8 6 -11 20 -1 28c12 3 33 10 50 19c70 37 104 106 104 166c0 73 -45 101 -93 101c-30 0 -33 0 -41 -26l-98 -310c-26 -81 -26 -99 25 -107l33 -5
c5 -6 3 -29 -7 -35c-58 2 -107 3 -155 3s-95 -1 -145 -3c-10 6 -9 31 3 35l31 5c43 7 51 14 80 107l117 372c25 81 26 99 -25 108l-24 4c-11 8 -6 31 7 35c52 -2 102 -3 151 -3c48 0 91 1 136 3c10 -6 8 -31 -5 -35l-24 -4c-43 -7 -51 -15 -77 -98z" />
    <glyph glyph-name="onequarter" unicode="&#xbc;" horiz-adv-x="840" 
d="M533 146h71c14 0 16 2 20 17l22 75c4 14 14 19 25 23c21 8 66 17 87 17c8 0 10 -4 8 -10l-31 -105c-4 -15 -4 -17 10 -17h40c11 -4 5 -32 -8 -38h-44c-14 0 -15 -1 -20 -18l-4 -14c-11 -39 -12 -47 21 -50l13 -1c6 -5 5 -22 -4 -27c-44 1 -79 2 -107 2
c-43 0 -77 -1 -113 -2c-9 4 -4 22 3 27l20 2c42 4 45 9 56 49l4 14c5 17 4 18 -10 18h-153c-6 4 -4 14 1 23l300 283c8 7 14 12 23 12h29c11 0 11 -10 -3 -22l-269 -248c-6 -5 -5 -10 13 -10zM93 272l29 4c29 4 35 13 54 68l54 160c12 35 14 50 -14 54l-26 4
c-7 5 -5 23 5 28c61 9 134 29 179 50c9 0 14 -3 13 -8c-5 -17 -21 -55 -32 -88l-66 -200c-17 -51 -14 -64 11 -68l26 -4c4 -6 2 -23 -6 -27c-42 1 -82 2 -120 2c-37 0 -77 -1 -108 -2c-9 4 -7 21 1 27zM749 624l-537 -664c-19 -4 -41 11 -39 34l533 660c19 1 41 -7 43 -30z
" />
    <glyph glyph-name="divide" unicode="&#xf7;" horiz-adv-x="520" 
d="M271 10c-34 0 -61 27 -61 61c0 33 27 60 61 60c31 0 59 -27 59 -60c0 -34 -28 -61 -59 -61zM271 295c-34 0 -61 27 -61 61c0 33 27 60 61 60c31 0 59 -27 59 -60c0 -34 -28 -61 -59 -61zM471 177h-401v72h401v-72z" />
    <glyph glyph-name="brokenbar" unicode="&#xa6;" horiz-adv-x="248" 
d="M198 675v-350h-88v350h88zM198 175v-350h-88v350h88z" />
    <glyph glyph-name="degree" unicode="&#xb0;" 
d="M301 640c80 0 147 -56 147 -142c0 -90 -67 -142 -147 -142s-147 52 -147 142c0 86 67 142 147 142zM379 498c0 57 -33 98 -78 98s-78 -41 -78 -98c0 -58 33 -98 78 -98c50 0 78 40 78 98z" />
    <glyph glyph-name="thorn" unicode="&#xfe;" horiz-adv-x="508" 
d="M160 -21l-45 -133c-11 -34 -13 -58 25 -62l42 -4c12 -5 10 -30 -5 -34h-71c-62 0 -123 -4 -206 -11c-13 6 -14 27 -5 35l32 5c42 7 52 23 75 90l158 464c-24 -5 -76 -28 -104 -43c-13 2 -18 19 -12 29c18 21 96 59 133 69l55 159c12 36 11 47 -7 57l-28 16
c-3 8 -3 17 5 24c32 13 134 32 184 34c7 -1 10 -4 10 -10c-14 -42 -28 -78 -47 -131l-48 -136c12 2 22 3 28 3c126 0 167 -68 167 -147c0 -55 -31 -129 -75 -174c-51 -52 -119 -93 -206 -93c-12 0 -30 5 -41 10c-7 -1 -11 -7 -14 -17zM286 346l-89 -259c-4 -12 -8 -28 5 -41
c10 -11 22 -16 31 -16c12 0 35 11 59 40c44 51 76 130 76 196c0 59 -32 82 -66 82c-4 0 -10 -1 -16 -2z" />
    <glyph glyph-name="threequarters" unicode="&#xbe;" horiz-adv-x="840" 
d="M552 146h71c14 0 16 2 20 17l22 75c4 14 14 19 25 23c21 8 66 17 87 17c8 0 10 -4 8 -10l-31 -105c-4 -15 -4 -17 10 -17h40c11 -4 5 -32 -8 -38h-44c-14 0 -15 -1 -20 -18l-4 -14c-11 -39 -12 -47 21 -50l13 -1c6 -5 5 -22 -4 -27c-44 1 -79 2 -107 2
c-43 0 -77 -1 -113 -2c-9 4 -4 22 3 27l20 2c42 4 45 9 56 49l4 14c5 17 4 18 -10 18h-153c-6 4 -4 14 1 23l300 283c8 7 14 12 23 12h29c11 0 11 -10 -3 -22l-269 -248c-6 -5 -5 -10 13 -10zM326 640c45 0 98 -23 98 -77c0 -36 -33 -62 -93 -77c-8 -2 -3 -8 5 -9
c39 -5 81 -38 81 -94c0 -62 -52 -109 -103 -136c-59 -30 -126 -39 -169 -39c-42 0 -85 15 -84 55c0 24 18 42 43 42c26 0 40 -29 48 -39c8 -11 20 -18 35 -18c63 0 108 60 108 126c0 34 -22 63 -58 63c-25 0 -49 -13 -63 -25c-19 6 -25 26 -15 40c37 9 94 31 121 48
c27 16 40 33 40 53c0 22 -18 35 -44 35c-29 0 -59 -17 -82 -42c-12 -2 -22 5 -20 18c38 47 91 76 152 76zM779 624l-537 -664c-19 -4 -41 11 -39 34l533 660c19 1 41 -7 43 -30z" />
    <glyph glyph-name="twosuperior" unicode="&#xb2;" 
d="M291 315h-118c-40 0 -65 -1 -76 -2c-6 5 -7 13 -3 20c28 19 55 38 118 88c84 67 138 109 138 171c0 31 -18 58 -56 58c-34 0 -66 -27 -87 -59c-12 -3 -23 6 -25 17c31 63 97 100 161 100c67 0 127 -39 127 -110c0 -72 -67 -108 -148 -156l-59 -35c-16 -9 -14 -19 6 -19
h78c33 0 42 3 66 31c7 3 19 2 24 -8c-16 -47 -40 -85 -54 -98c-27 1 -56 2 -92 2z" />
    <glyph glyph-name="registered" unicode="&#xae;" horiz-adv-x="350" 
d="M268 506v63c0 14 -3 21 -13 22h-5c-2 4 -2 11 2 12c25 1 46 2 66 2c26 0 60 -5 60 -37c0 -16 -12 -27 -22 -31c-2 -1 -2 -3 0 -8c12 -23 22 -38 30 -44c5 -3 7 -5 11 -6c2 0 2 -7 0 -8c-6 -1 -11 -1 -17 -1c-19 0 -33 7 -44 23c-6 9 -11 18 -17 28c-2 4 -6 6 -10 6
s-5 -3 -5 -5v-16c0 -16 0 -21 14 -23l4 -1c2 -1 2 -10 0 -11c-12 0 -22 1 -36 1c-13 0 -24 -1 -34 -1c-4 1 -4 10 -2 11l5 1c13 3 13 6 13 23zM304 581v-33c0 -8 1 -8 12 -8c16 0 20 14 20 22c0 18 -8 28 -19 28c-12 0 -13 -2 -13 -9zM318 677c79 0 143 -63 143 -140
s-64 -140 -143 -140s-143 63 -143 140s64 140 143 140zM318 653c-59 0 -109 -51 -109 -116c0 -64 50 -115 109 -115c60 0 109 51 109 115c0 65 -49 116 -109 116z" />
    <glyph glyph-name="minus" unicode="&#x2212;" horiz-adv-x="520" 
d="M471 249v-72h-401v72h401z" />
    <glyph glyph-name="eth" unicode="&#xf0;" horiz-adv-x="466" 
d="M526 613l-115 -49c44 -76 52 -157 52 -216c0 -97 -33 -206 -98 -279c-58 -65 -118 -83 -172 -83c-103 0 -145 68 -144 148c1 68 37 161 101 218c55 49 114 62 142 62h10c11 0 29 -3 40 -9c2 36 -5 88 -21 122l-142 -61c-14 3 -23 35 -13 46l137 59c-15 28 -31 52 -49 70
c-23 22 -51 36 -83 43c-4 7 -3 26 9 31c40 -2 82 -14 105 -26c41 -22 73 -51 98 -84l131 56c16 -6 20 -38 12 -48zM199 30c26 0 46 23 72 67c26 43 69 153 69 229c0 23 -10 44 -31 44c-16 0 -33 -12 -54 -38c-30 -39 -91 -161 -91 -257c0 -33 17 -45 35 -45z" />
    <glyph glyph-name="multiply" unicode="&#xd7;" horiz-adv-x="520" 
d="M468 351l-146 -147l146 -146l-52 -54l-147 147l-145 -147l-51 54l144 145l-144 145l51 54l146 -146l146 148z" />
    <glyph glyph-name="threesuperior" unicode="&#xb3;" 
d="M351 708c45 0 98 -23 98 -77c0 -36 -33 -62 -93 -77c-8 -2 -3 -8 5 -9c39 -5 81 -38 81 -94c0 -62 -52 -109 -103 -136c-59 -30 -126 -39 -169 -39c-42 0 -85 15 -84 55c0 24 18 42 43 42c26 0 40 -29 48 -39c8 -11 20 -18 35 -18c63 0 108 60 108 126
c0 34 -22 63 -58 63c-25 0 -49 -13 -63 -25c-19 6 -25 26 -15 40c37 9 94 31 121 48c27 16 40 33 40 53c0 22 -18 35 -44 35c-29 0 -59 -17 -82 -42c-12 -2 -22 5 -20 18c38 47 91 76 152 76z" />
    <glyph glyph-name="copyright" unicode="&#xa9;" horiz-adv-x="820" 
d="M506 149c-170 0 -209 111 -209 180c0 107 78 189 209 189c55 0 94 -13 116 -17c3 -31 6 -68 9 -103c-5 -7 -21 -8 -27 -3c-21 71 -64 88 -94 88c-44 0 -106 -35 -106 -149c0 -106 57 -150 112 -150c42 0 74 29 103 83c6 6 20 5 26 -2c-3 -32 -14 -69 -26 -89
c-32 -21 -86 -27 -113 -27zM474 -16c-193 0 -350 155 -350 346s157 346 350 346s350 -155 350 -346s-157 -346 -350 -346zM756 331c0 167 -128 298 -282 298s-282 -131 -282 -298s128 -300 282 -300s282 133 282 300z" />
    <glyph glyph-name="Aacute" unicode="&#xc1;" horiz-adv-x="600" 
d="M353 226h-119c-30 0 -32 1 -44 -20l-62 -107c-17 -30 -20 -40 -20 -46c0 -8 7 -13 25 -16l27 -4c10 -7 7 -31 -5 -36c-50 2 -82 3 -126 3c-35 0 -68 -1 -96 -3c-14 5 -14 29 -5 36l24 4c50 8 62 17 113 91c89 132 180 264 269 396c31 47 60 90 64 109c56 4 103 43 104 43
h2c10 0 18 -5 18 -16c0 -177 -7 -355 -7 -532c0 -70 0 -87 48 -93l24 -3c8 -6 6 -31 -3 -35c-37 2 -91 3 -141 3c-56 0 -101 -1 -132 -3c-13 4 -11 28 -5 35l23 3c46 6 51 19 52 43l4 127c1 20 -1 21 -32 21zM270 279h91c24 0 25 2 26 27l6 123c1 30 0 73 0 92h-2
c-15 -24 -34 -56 -58 -93l-82 -127c-12 -18 -9 -22 19 -22zM412 730l157 118c16 12 26 16 32 16c10 0 21 -8 33 -30c11 -20 12 -35 10 -42s-11 -18 -31 -24l-190 -62c-8 3 -14 14 -11 24z" />
    <glyph glyph-name="Acircumflex" unicode="&#xc2;" horiz-adv-x="600" 
d="M353 226h-119c-30 0 -32 1 -44 -20l-62 -107c-17 -30 -20 -40 -20 -46c0 -8 7 -13 25 -16l27 -4c10 -7 7 -31 -5 -36c-50 2 -82 3 -126 3c-35 0 -68 -1 -96 -3c-14 5 -14 29 -5 36l24 4c50 8 62 17 113 91c89 132 180 264 269 396c31 47 60 90 64 109c56 4 103 43 104 43
h2c10 0 18 -5 18 -16c0 -177 -7 -355 -7 -532c0 -70 0 -87 48 -93l24 -3c8 -6 6 -31 -3 -35c-37 2 -91 3 -141 3c-56 0 -101 -1 -132 -3c-13 4 -11 28 -5 35l23 3c46 6 51 19 52 43l4 127c1 20 -1 21 -32 21zM270 279h91c24 0 25 2 26 27l6 123c1 30 0 73 0 92h-2
c-15 -24 -34 -56 -58 -93l-82 -127c-12 -18 -9 -22 19 -22zM615 706l-119 62c-11 6 -22 6 -35 0l-133 -62c-10 0 -18 13 -11 25l149 125c16 14 35 14 48 0l118 -125c2 -12 -9 -24 -17 -25z" />
    <glyph glyph-name="Adieresis" unicode="&#xc4;" horiz-adv-x="600" 
d="M353 226h-119c-30 0 -32 1 -44 -20l-62 -107c-17 -30 -20 -40 -20 -46c0 -8 7 -13 25 -16l27 -4c10 -7 7 -31 -5 -36c-50 2 -82 3 -126 3c-35 0 -68 -1 -96 -3c-14 5 -14 29 -5 36l24 4c50 8 62 17 113 91c89 132 180 264 269 396c31 47 60 90 64 109c56 4 103 43 104 43
h2c10 0 18 -5 18 -16c0 -177 -7 -355 -7 -532c0 -70 0 -87 48 -93l24 -3c8 -6 6 -31 -3 -35c-37 2 -91 3 -141 3c-56 0 -101 -1 -132 -3c-13 4 -11 28 -5 35l23 3c46 6 51 19 52 43l4 127c1 20 -1 21 -32 21zM270 279h91c24 0 25 2 26 27l6 123c1 30 0 73 0 92h-2
c-15 -24 -34 -56 -58 -93l-82 -127c-12 -18 -9 -22 19 -22zM387 833c36 0 59 -26 54 -62c-5 -34 -32 -59 -68 -59c-33 0 -57 25 -51 61c5 34 32 60 65 60zM586 833c36 0 59 -26 54 -62c-5 -34 -32 -59 -68 -59c-33 0 -57 25 -51 61c5 34 32 60 65 60z" />
    <glyph glyph-name="Agrave" unicode="&#xc0;" horiz-adv-x="600" 
d="M353 226h-119c-30 0 -32 1 -44 -20l-62 -107c-17 -30 -20 -40 -20 -46c0 -8 7 -13 25 -16l27 -4c10 -7 7 -31 -5 -36c-50 2 -82 3 -126 3c-35 0 -68 -1 -96 -3c-14 5 -14 29 -5 36l24 4c50 8 62 17 113 91c89 132 180 264 269 396c31 47 60 90 64 109c56 4 103 43 104 43
h2c10 0 18 -5 18 -16c0 -177 -7 -355 -7 -532c0 -70 0 -87 48 -93l24 -3c8 -6 6 -31 -3 -35c-37 2 -91 3 -141 3c-56 0 -101 -1 -132 -3c-13 4 -11 28 -5 35l23 3c46 6 51 19 52 43l4 127c1 20 -1 21 -32 21zM270 279h91c24 0 25 2 26 27l6 123c1 30 0 73 0 92h-2
c-15 -24 -34 -56 -58 -93l-82 -127c-12 -18 -9 -22 19 -22zM381 850l157 -115c3 -8 -3 -22 -11 -29l-190 62c-20 6 -29 17 -31 24s-1 22 10 42c12 22 23 30 33 30c6 0 17 -3 32 -14z" />
    <glyph glyph-name="Aring" unicode="&#xc5;" horiz-adv-x="600" 
d="M353 226h-119c-30 0 -32 1 -44 -20l-62 -107c-17 -30 -20 -40 -20 -46c0 -8 7 -13 25 -16l27 -4c10 -7 7 -31 -5 -36c-50 2 -82 3 -126 3c-35 0 -68 -1 -96 -3c-14 5 -14 29 -5 36l24 4c50 8 62 17 113 91c89 132 180 264 269 396c31 47 60 90 64 109c56 4 103 43 104 43
h2c10 0 18 -5 18 -16c0 -177 -7 -355 -7 -532c0 -70 0 -87 48 -93l24 -3c8 -6 6 -31 -3 -35c-37 2 -91 3 -141 3c-56 0 -101 -1 -132 -3c-13 4 -11 28 -5 35l23 3c46 6 51 19 52 43l4 127c1 20 -1 21 -32 21zM270 279h91c24 0 25 2 26 27l6 123c1 30 0 73 0 92h-2
c-15 -24 -34 -56 -58 -93l-82 -127c-12 -18 -9 -22 19 -22zM484 886c64 0 103 -48 103 -98s-39 -99 -103 -99s-103 49 -103 99s39 98 103 98zM484 850c-29 -2 -45 -30 -45 -63s16 -62 45 -62s45 29 45 62s-16 61 -45 63z" />
    <glyph glyph-name="Atilde" unicode="&#xc3;" horiz-adv-x="600" 
d="M353 226h-119c-30 0 -32 1 -44 -20l-62 -107c-17 -30 -20 -40 -20 -46c0 -8 7 -13 25 -16l27 -4c10 -7 7 -31 -5 -36c-50 2 -82 3 -126 3c-35 0 -68 -1 -96 -3c-14 5 -14 29 -5 36l24 4c50 8 62 17 113 91c89 132 180 264 269 396c31 47 60 90 64 109c56 4 103 43 104 43
h2c10 0 18 -5 18 -16c0 -177 -7 -355 -7 -532c0 -70 0 -87 48 -93l24 -3c8 -6 6 -31 -3 -35c-37 2 -91 3 -141 3c-56 0 -101 -1 -132 -3c-13 4 -11 28 -5 35l23 3c46 6 51 19 52 43l4 127c1 20 -1 21 -32 21zM270 279h91c24 0 25 2 26 27l6 123c1 30 0 73 0 92h-2
c-15 -24 -34 -56 -58 -93l-82 -127c-12 -18 -9 -22 19 -22zM523 746h-54c-52 0 -73 -13 -99 -54c-11 -4 -32 -2 -36 6c6 24 28 72 47 92c20 21 40 28 70 28h65c36 0 61 6 78 47c15 3 32 1 37 -5c-8 -32 -21 -63 -39 -86c-16 -21 -33 -28 -69 -28z" />
    <glyph glyph-name="Ccedilla" unicode="&#xc7;" horiz-adv-x="658" 
d="M296 -105l63 92c-177 14 -263 121 -262 260c1 130 68 246 143 313c64 57 173 116 324 116c100 0 170 -25 200 -37c-22 -50 -35 -102 -49 -155c-7 -11 -34 -11 -38 0c9 102 -29 146 -122 146c-171 0 -306 -206 -306 -391c0 -163 82 -209 156 -209c83 0 141 51 210 143
c11 8 34 5 37 -6c-19 -60 -55 -132 -71 -158c-37 -4 -88 -24 -171 -25l-27 -36c-8 -10 -6 -13 8 -23c23 -18 48 -43 48 -82c0 -55 -62 -92 -126 -92c-49 0 -77 15 -77 44c0 18 13 32 32 32c27 0 46 -36 67 -36c11 0 26 8 26 25c0 31 -26 56 -61 70z" />
    <glyph glyph-name="Eacute" unicode="&#xc9;" horiz-adv-x="596" 
d="M336 660h222c64 0 121 1 136 3c-7 -17 -33 -89 -51 -157c-5 -11 -31 -12 -38 -4c3 36 0 65 -4 77c-8 23 -34 35 -84 35h-78c-34 0 -37 -2 -49 -40l-55 -174c-9 -28 -7 -30 19 -30h66c52 0 65 8 91 56l13 24c10 9 35 8 38 -1c-12 -31 -24 -68 -37 -106
c-12 -38 -21 -74 -30 -106c-8 -8 -34 -9 -38 -1l3 25c6 48 -4 56 -56 56h-66c-26 0 -30 -3 -38 -30l-38 -122c-15 -47 -22 -78 -14 -95c9 -17 25 -24 98 -24c87 0 122 3 204 115c11 8 34 6 40 -6c-17 -50 -55 -131 -77 -158c-31 1 -71 2 -113 2c-42 1 -87 1 -128 1h-130
c-50 0 -95 -1 -145 -3c-10 6 -9 31 5 35l34 5c47 7 55 14 84 107l117 372c25 81 26 100 -21 108l-24 4c-9 7 -7 30 7 35c47 -2 98 -3 137 -3zM410 730l157 118c16 12 26 16 32 16c10 0 21 -8 33 -30c11 -20 12 -35 10 -42s-11 -18 -31 -24l-190 -62c-8 3 -14 14 -11 24z" />
    <glyph glyph-name="Ecircumflex" unicode="&#xca;" horiz-adv-x="596" 
d="M336 660h222c64 0 121 1 136 3c-7 -17 -33 -89 -51 -157c-5 -11 -31 -12 -38 -4c3 36 0 65 -4 77c-8 23 -34 35 -84 35h-78c-34 0 -37 -2 -49 -40l-55 -174c-9 -28 -7 -30 19 -30h66c52 0 65 8 91 56l13 24c10 9 35 8 38 -1c-12 -31 -24 -68 -37 -106
c-12 -38 -21 -74 -30 -106c-8 -8 -34 -9 -38 -1l3 25c6 48 -4 56 -56 56h-66c-26 0 -30 -3 -38 -30l-38 -122c-15 -47 -22 -78 -14 -95c9 -17 25 -24 98 -24c87 0 122 3 204 115c11 8 34 6 40 -6c-17 -50 -55 -131 -77 -158c-31 1 -71 2 -113 2c-42 1 -87 1 -128 1h-130
c-50 0 -95 -1 -145 -3c-10 6 -9 31 5 35l34 5c47 7 55 14 84 107l117 372c25 81 26 100 -21 108l-24 4c-9 7 -7 30 7 35c47 -2 98 -3 137 -3zM613 706l-119 62c-11 6 -22 6 -35 0l-133 -62c-10 0 -18 13 -11 25l149 125c16 14 35 14 48 0l118 -125c2 -12 -9 -24 -17 -25z
" />
    <glyph glyph-name="Edieresis" unicode="&#xcb;" horiz-adv-x="596" 
d="M336 660h222c64 0 121 1 136 3c-7 -17 -33 -89 -51 -157c-5 -11 -31 -12 -38 -4c3 36 0 65 -4 77c-8 23 -34 35 -84 35h-78c-34 0 -37 -2 -49 -40l-55 -174c-9 -28 -7 -30 19 -30h66c52 0 65 8 91 56l13 24c10 9 35 8 38 -1c-12 -31 -24 -68 -37 -106
c-12 -38 -21 -74 -30 -106c-8 -8 -34 -9 -38 -1l3 25c6 48 -4 56 -56 56h-66c-26 0 -30 -3 -38 -30l-38 -122c-15 -47 -22 -78 -14 -95c9 -17 25 -24 98 -24c87 0 122 3 204 115c11 8 34 6 40 -6c-17 -50 -55 -131 -77 -158c-31 1 -71 2 -113 2c-42 1 -87 1 -128 1h-130
c-50 0 -95 -1 -145 -3c-10 6 -9 31 5 35l34 5c47 7 55 14 84 107l117 372c25 81 26 100 -21 108l-24 4c-9 7 -7 30 7 35c47 -2 98 -3 137 -3zM381 833c36 0 59 -26 54 -62c-5 -34 -32 -59 -68 -59c-33 0 -57 25 -51 61c5 34 32 60 65 60zM580 833c36 0 59 -26 54 -62
c-5 -34 -32 -59 -68 -59c-33 0 -57 25 -51 61c5 34 32 60 65 60z" />
    <glyph glyph-name="Egrave" unicode="&#xc8;" horiz-adv-x="596" 
d="M336 660h222c64 0 121 1 136 3c-7 -17 -33 -89 -51 -157c-5 -11 -31 -12 -38 -4c3 36 0 65 -4 77c-8 23 -34 35 -84 35h-78c-34 0 -37 -2 -49 -40l-55 -174c-9 -28 -7 -30 19 -30h66c52 0 65 8 91 56l13 24c10 9 35 8 38 -1c-12 -31 -24 -68 -37 -106
c-12 -38 -21 -74 -30 -106c-8 -8 -34 -9 -38 -1l3 25c6 48 -4 56 -56 56h-66c-26 0 -30 -3 -38 -30l-38 -122c-15 -47 -22 -78 -14 -95c9 -17 25 -24 98 -24c87 0 122 3 204 115c11 8 34 6 40 -6c-17 -50 -55 -131 -77 -158c-31 1 -71 2 -113 2c-42 1 -87 1 -128 1h-130
c-50 0 -95 -1 -145 -3c-10 6 -9 31 5 35l34 5c47 7 55 14 84 107l117 372c25 81 26 100 -21 108l-24 4c-9 7 -7 30 7 35c47 -2 98 -3 137 -3zM371 850l157 -115c3 -8 -3 -22 -11 -29l-190 62c-20 6 -29 17 -31 24s-1 22 10 42c12 22 23 30 33 30c6 0 17 -3 32 -14z" />
    <glyph glyph-name="Iacute" unicode="&#xcd;" horiz-adv-x="366" 
d="M280 37l28 -5c6 -6 3 -29 -7 -35c-53 2 -104 3 -150 3c-50 0 -95 -1 -145 -3c-10 6 -9 32 7 35l27 5c43 8 51 14 80 107l117 372c25 81 26 98 -25 107l-28 5c-7 6 -6 30 7 35c56 -2 106 -3 154 -3c46 0 91 1 141 3c10 -6 8 -31 -5 -35l-29 -5c-43 -7 -51 -14 -80 -107
l-117 -372c-26 -81 -26 -98 25 -107zM295 730l157 118c16 12 26 16 32 16c10 0 21 -8 33 -30c11 -20 12 -35 10 -42s-11 -18 -31 -24l-190 -62c-8 3 -14 14 -11 24z" />
    <glyph glyph-name="Icircumflex" unicode="&#xce;" horiz-adv-x="366" 
d="M280 37l28 -5c6 -6 3 -29 -7 -35c-53 2 -104 3 -150 3c-50 0 -95 -1 -145 -3c-10 6 -9 32 7 35l27 5c43 8 51 14 80 107l117 372c25 81 26 98 -25 107l-28 5c-7 6 -6 30 7 35c56 -2 106 -3 154 -3c46 0 91 1 141 3c10 -6 8 -31 -5 -35l-29 -5c-43 -7 -51 -14 -80 -107
l-117 -372c-26 -81 -26 -98 25 -107zM501 706l-119 62c-11 6 -22 6 -35 0l-133 -62c-10 0 -18 13 -11 25l149 125c16 14 35 14 48 0l118 -125c2 -12 -9 -24 -17 -25z" />
    <glyph glyph-name="Idieresis" unicode="&#xcf;" horiz-adv-x="366" 
d="M280 37l28 -5c6 -6 3 -29 -7 -35c-53 2 -104 3 -150 3c-50 0 -95 -1 -145 -3c-10 6 -9 32 7 35l27 5c43 8 51 14 80 107l117 372c25 81 26 98 -25 107l-28 5c-7 6 -6 30 7 35c56 -2 106 -3 154 -3c46 0 91 1 141 3c10 -6 8 -31 -5 -35l-29 -5c-43 -7 -51 -14 -80 -107
l-117 -372c-26 -81 -26 -98 25 -107zM266 833c36 0 59 -26 54 -62c-5 -34 -32 -59 -68 -59c-33 0 -57 25 -51 61c5 34 32 60 65 60zM465 833c36 0 59 -26 54 -62c-5 -34 -32 -59 -68 -59c-33 0 -57 25 -51 61c5 34 32 60 65 60z" />
    <glyph glyph-name="Igrave" unicode="&#xcc;" horiz-adv-x="366" 
d="M280 37l28 -5c6 -6 3 -29 -7 -35c-53 2 -104 3 -150 3c-50 0 -95 -1 -145 -3c-10 6 -9 32 7 35l27 5c43 8 51 14 80 107l117 372c25 81 26 98 -25 107l-28 5c-7 6 -6 30 7 35c56 -2 106 -3 154 -3c46 0 91 1 141 3c10 -6 8 -31 -5 -35l-29 -5c-43 -7 -51 -14 -80 -107
l-117 -372c-26 -81 -26 -98 25 -107zM256 850l157 -115c3 -8 -3 -22 -11 -29l-190 62c-20 6 -29 17 -31 24s-1 22 10 42c12 22 23 30 33 30c6 0 17 -3 32 -14z" />
    <glyph glyph-name="Ntilde" unicode="&#xd1;" horiz-adv-x="722" 
d="M150 251l82 265c25 81 27 101 -24 108l-28 4c-9 6 -5 29 7 35c52 -2 88 -3 126 -3c25 0 58 1 80 3c-5 -38 31 -117 78 -222l47 -104c35 -78 52 -113 63 -134c7 11 16 39 23 62l43 144c19 65 35 125 39 143c10 50 9 65 -42 72l-30 4c-9 9 -6 28 7 35c53 -2 86 -3 124 -3
c43 0 70 1 116 3c8 -6 7 -28 -2 -35l-24 -5c-45 -9 -61 -21 -79 -70c-7 -20 -28 -79 -48 -144l-73 -239c-23 -75 -38 -134 -47 -167c-8 -7 -37 -11 -63 -11c-2 0 -29 77 -57 140l-107 243c-19 44 -51 121 -65 149c-5 -12 -9 -24 -25 -78l-59 -195c-20 -65 -36 -125 -39 -143
c-8 -50 -9 -63 42 -71l30 -5c5 -9 6 -28 -5 -35c-54 2 -88 3 -126 3c-42 0 -70 -1 -115 -3c-9 6 -10 28 2 35l23 5c46 10 62 23 79 70c7 20 27 79 47 144zM582 746h-54c-52 0 -73 -13 -99 -54c-11 -4 -32 -2 -36 6c6 24 28 72 47 92c20 21 40 28 70 28h65c36 0 61 6 78 47
c15 3 32 1 37 -5c-8 -32 -21 -63 -39 -86c-16 -21 -33 -28 -69 -28z" />
    <glyph glyph-name="Oacute" unicode="&#xd3;" horiz-adv-x="758" 
d="M99 251c0 126 61 254 160 335c83 68 174 90 247 90c122 0 275 -66 275 -282c0 -105 -49 -220 -123 -296c-51 -52 -152 -114 -274 -114c-229 0 -285 158 -285 267zM517 630c-38 0 -75 -18 -107 -43c-80 -64 -168 -226 -168 -390c0 -96 44 -167 128 -167c40 0 90 18 137 72
c91 105 131 241 131 363c0 117 -51 165 -121 165zM471 730l157 118c16 12 26 16 32 16c10 0 21 -8 33 -30c11 -20 12 -35 10 -42s-11 -18 -31 -24l-190 -62c-8 3 -14 14 -11 24z" />
    <glyph glyph-name="Ocircumflex" unicode="&#xd4;" horiz-adv-x="758" 
d="M99 251c0 126 61 254 160 335c83 68 174 90 247 90c122 0 275 -66 275 -282c0 -105 -49 -220 -123 -296c-51 -52 -152 -114 -274 -114c-229 0 -285 158 -285 267zM517 630c-38 0 -75 -18 -107 -43c-80 -64 -168 -226 -168 -390c0 -96 44 -167 128 -167c40 0 90 18 137 72
c91 105 131 241 131 363c0 117 -51 165 -121 165zM669 706l-119 62c-11 6 -22 6 -35 0l-133 -62c-10 0 -18 13 -11 25l149 125c16 14 35 14 48 0l118 -125c2 -12 -9 -24 -17 -25z" />
    <glyph glyph-name="Odieresis" unicode="&#xd6;" horiz-adv-x="758" 
d="M99 251c0 126 61 254 160 335c83 68 174 90 247 90c122 0 275 -66 275 -282c0 -105 -49 -220 -123 -296c-51 -52 -152 -114 -274 -114c-229 0 -285 158 -285 267zM517 630c-38 0 -75 -18 -107 -43c-80 -64 -168 -226 -168 -390c0 -96 44 -167 128 -167c40 0 90 18 137 72
c91 105 131 241 131 363c0 117 -51 165 -121 165zM442 833c36 0 59 -26 54 -62c-5 -34 -32 -59 -68 -59c-33 0 -57 25 -51 61c5 34 32 60 65 60zM641 833c36 0 59 -26 54 -62c-5 -34 -32 -59 -68 -59c-33 0 -57 25 -51 61c5 34 32 60 65 60z" />
    <glyph glyph-name="Ograve" unicode="&#xd2;" horiz-adv-x="758" 
d="M99 251c0 126 61 254 160 335c83 68 174 90 247 90c122 0 275 -66 275 -282c0 -105 -49 -220 -123 -296c-51 -52 -152 -114 -274 -114c-229 0 -285 158 -285 267zM517 630c-38 0 -75 -18 -107 -43c-80 -64 -168 -226 -168 -390c0 -96 44 -167 128 -167c40 0 90 18 137 72
c91 105 131 241 131 363c0 117 -51 165 -121 165zM452 850l157 -115c3 -8 -3 -22 -11 -29l-190 62c-20 6 -29 17 -31 24s-1 22 10 42c12 22 23 30 33 30c6 0 17 -3 32 -14z" />
    <glyph glyph-name="Otilde" unicode="&#xd5;" horiz-adv-x="758" 
d="M99 251c0 126 61 254 160 335c83 68 174 90 247 90c122 0 275 -66 275 -282c0 -105 -49 -220 -123 -296c-51 -52 -152 -114 -274 -114c-229 0 -285 158 -285 267zM517 630c-38 0 -75 -18 -107 -43c-80 -64 -168 -226 -168 -390c0 -96 44 -167 128 -167c40 0 90 18 137 72
c91 105 131 241 131 363c0 117 -51 165 -121 165zM580 746h-54c-52 0 -73 -13 -99 -54c-11 -4 -32 -2 -36 6c6 24 28 72 47 92c20 21 40 28 70 28h65c36 0 61 6 78 47c15 3 32 1 37 -5c-8 -32 -21 -63 -39 -86c-16 -21 -33 -28 -69 -28z" />
    <glyph glyph-name="Scaron" unicode="&#x160;" horiz-adv-x="528" 
d="M245 -16c-103 0 -178 46 -201 87c-1 43 6 99 19 145c6 8 32 8 39 -2c2 -28 8 -69 29 -105c30 -53 76 -79 130 -79c62 0 119 42 119 121c0 50 -27 92 -84 133l-25 18c-61 44 -109 100 -109 167c0 128 106 209 245 208c73 -1 140 -22 183 -54c-13 -28 -30 -74 -44 -133
c-8 -12 -33 -9 -39 0c12 73 -22 141 -106 141c-76 0 -120 -58 -120 -108c0 -31 15 -70 85 -117l31 -21c58 -39 114 -98 114 -187c0 -123 -94 -214 -266 -214zM313 877l119 -64c13 -7 22 -8 39 0l141 64c10 0 19 -18 15 -31l-165 -127c-19 -14 -36 -15 -49 0l-117 129
c0 13 9 28 17 29z" />
    <glyph glyph-name="Uacute" unicode="&#xda;" horiz-adv-x="731" 
d="M468 629l-25 -5c-42 -8 -50 -15 -79 -108l-72 -231c-9 -29 -20 -79 -21 -110c-1 -85 39 -137 129 -137c120 0 177 110 214 230l44 141c20 65 35 125 39 143c10 50 9 63 -42 72l-30 5c-6 9 -6 27 5 34c54 -2 88 -3 126 -3c43 0 70 1 116 3c9 -6 9 -27 -2 -34l-24 -6
c-45 -11 -61 -21 -79 -70c-8 -20 -29 -79 -49 -144l-46 -147c-26 -83 -53 -157 -115 -211c-46 -41 -124 -67 -201 -67c-126 0 -223 44 -223 176c0 28 8 70 19 106l77 250c25 81 26 100 -25 109l-24 4c-10 6 -6 28 9 34c48 -2 97 -3 145 -3c49 0 92 1 139 3
c10 -6 8 -30 -5 -34zM478 730l157 118c16 12 26 16 32 16c10 0 21 -8 33 -30c11 -20 12 -35 10 -42s-11 -18 -31 -24l-190 -62c-8 3 -14 14 -11 24z" />
    <glyph glyph-name="Ucircumflex" unicode="&#xdb;" horiz-adv-x="731" 
d="M468 629l-25 -5c-42 -8 -50 -15 -79 -108l-72 -231c-9 -29 -20 -79 -21 -110c-1 -85 39 -137 129 -137c120 0 177 110 214 230l44 141c20 65 35 125 39 143c10 50 9 63 -42 72l-30 5c-6 9 -6 27 5 34c54 -2 88 -3 126 -3c43 0 70 1 116 3c9 -6 9 -27 -2 -34l-24 -6
c-45 -11 -61 -21 -79 -70c-8 -20 -29 -79 -49 -144l-46 -147c-26 -83 -53 -157 -115 -211c-46 -41 -124 -67 -201 -67c-126 0 -223 44 -223 176c0 28 8 70 19 106l77 250c25 81 26 100 -25 109l-24 4c-10 6 -6 28 9 34c48 -2 97 -3 145 -3c49 0 92 1 139 3
c10 -6 8 -30 -5 -34zM691 706l-119 62c-11 6 -22 6 -35 0l-133 -62c-10 0 -18 13 -11 25l149 125c16 14 35 14 48 0l118 -125c2 -12 -9 -24 -17 -25z" />
    <glyph glyph-name="Udieresis" unicode="&#xdc;" horiz-adv-x="731" 
d="M468 629l-25 -5c-42 -8 -50 -15 -79 -108l-72 -231c-9 -29 -20 -79 -21 -110c-1 -85 39 -137 129 -137c120 0 177 110 214 230l44 141c20 65 35 125 39 143c10 50 9 63 -42 72l-30 5c-6 9 -6 27 5 34c54 -2 88 -3 126 -3c43 0 70 1 116 3c9 -6 9 -27 -2 -34l-24 -6
c-45 -11 -61 -21 -79 -70c-8 -20 -29 -79 -49 -144l-46 -147c-26 -83 -53 -157 -115 -211c-46 -41 -124 -67 -201 -67c-126 0 -223 44 -223 176c0 28 8 70 19 106l77 250c25 81 26 100 -25 109l-24 4c-10 6 -6 28 9 34c48 -2 97 -3 145 -3c49 0 92 1 139 3
c10 -6 8 -30 -5 -34zM459 833c36 0 59 -26 54 -62c-5 -34 -32 -59 -68 -59c-33 0 -57 25 -51 61c5 34 32 60 65 60zM658 833c36 0 59 -26 54 -62c-5 -34 -32 -59 -68 -59c-33 0 -57 25 -51 61c5 34 32 60 65 60z" />
    <glyph glyph-name="Ugrave" unicode="&#xd9;" horiz-adv-x="731" 
d="M468 629l-25 -5c-42 -8 -50 -15 -79 -108l-72 -231c-9 -29 -20 -79 -21 -110c-1 -85 39 -137 129 -137c120 0 177 110 214 230l44 141c20 65 35 125 39 143c10 50 9 63 -42 72l-30 5c-6 9 -6 27 5 34c54 -2 88 -3 126 -3c43 0 70 1 116 3c9 -6 9 -27 -2 -34l-24 -6
c-45 -11 -61 -21 -79 -70c-8 -20 -29 -79 -49 -144l-46 -147c-26 -83 -53 -157 -115 -211c-46 -41 -124 -67 -201 -67c-126 0 -223 44 -223 176c0 28 8 70 19 106l77 250c25 81 26 100 -25 109l-24 4c-10 6 -6 28 9 34c48 -2 97 -3 145 -3c49 0 92 1 139 3
c10 -6 8 -30 -5 -34zM449 850l157 -115c3 -8 -3 -22 -11 -29l-190 62c-20 6 -29 17 -31 24s-1 22 10 42c12 22 23 30 33 30c6 0 17 -3 32 -14z" />
    <glyph glyph-name="Yacute" unicode="&#xdd;" horiz-adv-x="594" 
d="M398 37l37 -5c6 -6 3 -29 -6 -35c-63 2 -114 3 -162 3c-46 0 -91 -1 -151 -3c-10 6 -9 31 2 35l40 6c43 6 50 13 80 106l14 44c17 53 16 82 9 125c-12 76 -27 150 -41 227c-10 57 -15 80 -55 85l-22 3c-8 9 -5 31 7 35c53 -2 94 -3 134 -3c47 0 85 1 131 3
c12 -4 10 -30 1 -35l-37 -7c-25 -5 -32 -14 -32 -22c0 -7 1 -22 6 -57c10 -71 21 -141 33 -213l138 172c33 41 73 97 73 105s-7 13 -21 16l-26 6c-10 7 -7 30 5 35c56 -2 91 -3 125 -3c33 0 71 1 96 3c11 -4 10 -29 -1 -35l-25 -4c-36 -6 -49 -15 -94 -62
c-68 -69 -125 -138 -182 -208c-47 -56 -60 -80 -78 -137l-23 -73c-26 -81 -26 -100 25 -107zM409 730l157 118c16 12 26 16 32 16c10 0 21 -8 33 -30c11 -20 12 -35 10 -42s-11 -18 -31 -24l-190 -62c-8 3 -14 14 -11 24z" />
    <glyph glyph-name="Ydieresis" unicode="&#x178;" horiz-adv-x="594" 
d="M398 37l37 -5c6 -6 3 -29 -6 -35c-63 2 -114 3 -162 3c-46 0 -91 -1 -151 -3c-10 6 -9 31 2 35l40 6c43 6 50 13 80 106l14 44c17 53 16 82 9 125c-12 76 -27 150 -41 227c-10 57 -15 80 -55 85l-22 3c-8 9 -5 31 7 35c53 -2 94 -3 134 -3c47 0 85 1 131 3
c12 -4 10 -30 1 -35l-37 -7c-25 -5 -32 -14 -32 -22c0 -7 1 -22 6 -57c10 -71 21 -141 33 -213l138 172c33 41 73 97 73 105s-7 13 -21 16l-26 6c-10 7 -7 30 5 35c56 -2 91 -3 125 -3c33 0 71 1 96 3c11 -4 10 -29 -1 -35l-25 -4c-36 -6 -49 -15 -94 -62
c-68 -69 -125 -138 -182 -208c-47 -56 -60 -80 -78 -137l-23 -73c-26 -81 -26 -100 25 -107zM380 833c36 0 59 -26 54 -62c-5 -34 -32 -59 -68 -59c-33 0 -57 25 -51 61c5 34 32 60 65 60zM579 833c36 0 59 -26 54 -62c-5 -34 -32 -59 -68 -59c-33 0 -57 25 -51 61
c5 34 32 60 65 60z" />
    <glyph glyph-name="Zcaron" unicode="&#x17d;" horiz-adv-x="643" 
d="M513 614h-122c-36 0 -65 -2 -96 -23c-22 -15 -49 -39 -85 -91c-13 -7 -36 -1 -38 12c32 71 60 128 77 176c5 4 20 4 28 1c0 -22 7 -29 77 -29h303c57 0 85 1 101 3c8 -3 10 -15 3 -23c-26 -18 -137 -126 -207 -202l-161 -174c-71 -77 -181 -193 -181 -205
c0 -11 25 -13 91 -13h85c34 0 87 6 111 19c34 19 74 58 107 107c8 8 35 5 38 -7c-19 -55 -59 -143 -83 -168c-42 1 -78 2 -111 2c-33 1 -65 1 -100 1h-259c-49 0 -82 -1 -93 -3c-8 2 -14 10 -10 21c21 17 91 84 133 129l401 432c10 11 16 22 16 28c0 5 -9 7 -25 7zM371 877
l119 -64c13 -7 22 -8 39 0l141 64c10 0 19 -18 15 -31l-165 -127c-19 -14 -36 -15 -49 0l-117 129c0 13 10 28 17 29z" />
    <glyph glyph-name="aacute" unicode="&#xe1;" horiz-adv-x="505" 
d="M347 400c10 0 30 -9 44 -23l23 47c6 4 16 7 27 7c12 0 25 -2 37 -6c17 -5 32 -16 37 -26c-38 -94 -82 -205 -120 -316c-4 -13 -5 -21 2 -21c14 0 63 30 94 62c10 0 20 -8 19 -22c-44 -62 -130 -117 -200 -117c-26 0 -39 23 -39 39c0 11 5 26 11 42l30 77h-4
c-59 -78 -155 -157 -228 -157c-31 0 -61 29 -61 62c0 59 59 184 150 266c66 59 125 86 178 86zM367 318c-12 29 -26 38 -42 38c-15 0 -33 -9 -67 -52c-50 -63 -99 -162 -99 -218v-9c1 -10 6 -16 14 -16c22 0 77 59 107 99c36 48 75 125 87 158zM351 470l103 168
c13 21 23 27 33 26c11 -1 20 -6 36 -18c16 -16 24 -27 23 -37c-1 -11 -11 -24 -24 -34l-148 -123c-14 -1 -22 6 -23 18z" />
    <glyph glyph-name="acircumflex" unicode="&#xe2;" horiz-adv-x="505" 
d="M347 400c10 0 30 -9 44 -23l23 47c6 4 16 7 27 7c12 0 25 -2 37 -6c17 -5 32 -16 37 -26c-38 -94 -82 -205 -120 -316c-4 -13 -5 -21 2 -21c14 0 63 30 94 62c10 0 20 -8 19 -22c-44 -62 -130 -117 -200 -117c-26 0 -39 23 -39 39c0 11 5 26 11 42l30 77h-4
c-59 -78 -155 -157 -228 -157c-31 0 -61 29 -61 62c0 59 59 184 150 266c66 59 125 86 178 86zM367 318c-12 29 -26 38 -42 38c-15 0 -33 -9 -67 -52c-50 -63 -99 -162 -99 -218v-9c1 -10 6 -16 14 -16c22 0 77 59 107 99c36 48 75 125 87 158zM465 453l-53 84
c-8 12 -12 18 -18 18c-5 0 -13 -9 -26 -22l-83 -82c-12 0 -23 7 -23 20l134 189c7 10 15 13 23 13s17 -3 20 -13l51 -189c-3 -12 -13 -17 -25 -18z" />
    <glyph glyph-name="adieresis" unicode="&#xe4;" horiz-adv-x="505" 
d="M347 400c10 0 30 -9 44 -23l23 47c6 4 16 7 27 7c12 0 25 -2 37 -6c17 -5 32 -16 37 -26c-38 -94 -82 -205 -120 -316c-4 -13 -5 -21 2 -21c14 0 63 30 94 62c10 0 20 -8 19 -22c-44 -62 -130 -117 -200 -117c-26 0 -39 23 -39 39c0 11 5 26 11 42l30 77h-4
c-59 -78 -155 -157 -228 -157c-31 0 -61 29 -61 62c0 59 59 184 150 266c66 59 125 86 178 86zM367 318c-12 29 -26 38 -42 38c-15 0 -33 -9 -67 -52c-50 -63 -99 -162 -99 -218v-9c1 -10 6 -16 14 -16c22 0 77 59 107 99c36 48 75 125 87 158zM283 487c-36 0 -59 25 -54 62
c5 35 32 61 68 61c34 0 59 -26 54 -64c-5 -34 -33 -59 -68 -59zM468 487c-36 0 -59 25 -54 62c5 35 32 61 69 61c33 0 59 -26 53 -64c-6 -34 -32 -59 -68 -59z" />
    <glyph glyph-name="agrave" unicode="&#xe0;" horiz-adv-x="505" 
d="M347 400c10 0 30 -9 44 -23l23 47c6 4 16 7 27 7c12 0 25 -2 37 -6c17 -5 32 -16 37 -26c-38 -94 -82 -205 -120 -316c-4 -13 -5 -21 2 -21c14 0 63 30 94 62c10 0 20 -8 19 -22c-44 -62 -130 -117 -200 -117c-26 0 -39 23 -39 39c0 11 5 26 11 42l30 77h-4
c-59 -78 -155 -157 -228 -157c-31 0 -61 29 -61 62c0 59 59 184 150 266c66 59 125 86 178 86zM367 318c-12 29 -26 38 -42 38c-15 0 -33 -9 -67 -52c-50 -63 -99 -162 -99 -218v-9c1 -10 6 -16 14 -16c22 0 77 59 107 99c36 48 75 125 87 158zM357 643l53 -176
c-1 -12 -13 -18 -26 -16l-108 135c-10 13 -16 25 -15 37c0 9 10 21 30 34c18 12 29 15 40 15c9 0 19 -7 26 -29z" />
    <glyph glyph-name="aring" unicode="&#xe5;" horiz-adv-x="505" 
d="M347 400c10 0 30 -9 44 -23l23 47c6 4 16 7 27 7c12 0 25 -2 37 -6c17 -5 32 -16 37 -26c-38 -94 -82 -205 -120 -316c-4 -13 -5 -21 2 -21c14 0 63 30 94 62c10 0 20 -8 19 -22c-44 -62 -130 -117 -200 -117c-26 0 -39 23 -39 39c0 11 5 26 11 42l30 77h-4
c-59 -78 -155 -157 -228 -157c-31 0 -61 29 -61 62c0 59 59 184 150 266c66 59 125 86 178 86zM367 318c-12 29 -26 38 -42 38c-15 0 -33 -9 -67 -52c-50 -63 -99 -162 -99 -218v-9c1 -10 6 -16 14 -16c22 0 77 59 107 99c36 48 75 125 87 158zM383 462c-61 0 -97 46 -97 94
s36 93 97 93s97 -45 97 -93s-36 -94 -97 -94zM383 498c28 0 43 26 43 58s-15 58 -43 60c-28 -2 -43 -28 -43 -60s15 -58 43 -58z" />
    <glyph glyph-name="atilde" unicode="&#xe3;" horiz-adv-x="505" 
d="M347 400c10 0 30 -9 44 -23l23 47c6 4 16 7 27 7c12 0 25 -2 37 -6c17 -5 32 -16 37 -26c-38 -94 -82 -205 -120 -316c-4 -13 -5 -21 2 -21c14 0 63 30 94 62c10 0 20 -8 19 -22c-44 -62 -130 -117 -200 -117c-26 0 -39 23 -39 39c0 11 5 26 11 42l30 77h-4
c-59 -78 -155 -157 -228 -157c-31 0 -61 29 -61 62c0 59 59 184 150 266c66 59 125 86 178 86zM367 318c-12 29 -26 38 -42 38c-15 0 -33 -9 -67 -52c-50 -63 -99 -162 -99 -218v-9c1 -10 6 -16 14 -16c22 0 77 59 107 99c36 48 75 125 87 158zM421 510h-56
c-45 0 -68 -18 -86 -49c-6 -4 -27 -2 -31 6c6 19 25 67 41 87c17 21 34 28 61 28h56c40 0 62 6 78 47c8 3 26 1 30 -5c-6 -32 -18 -63 -33 -86c-14 -21 -29 -28 -60 -28z" />
    <glyph glyph-name="ccedilla" unicode="&#xe7;" horiz-adv-x="379" 
d="M207 -2l-36 -50c-7 -10 -6 -13 8 -23c23 -18 48 -43 48 -82c0 -55 -62 -92 -126 -92c-49 0 -77 15 -77 44c0 18 13 32 32 32c27 0 46 -36 67 -36c11 0 26 8 26 25c0 31 -26 56 -61 70l-4 9l63 92c-2 -1 -4 -1 -6 -1c-66 0 -101 46 -101 116c0 63 34 154 90 217
c60 67 125 95 180 95c58 0 102 -27 102 -77c0 -38 -32 -63 -68 -63c-25 0 -39 15 -40 37c-1 19 -1 59 -20 59c-16 0 -38 -19 -62 -63c-26 -49 -49 -113 -49 -182c0 -48 18 -66 42 -66s59 16 104 64c13 0 23 -10 21 -22c-24 -38 -76 -85 -133 -103z" />
    <glyph glyph-name="eacute" unicode="&#xe9;" horiz-adv-x="401" 
d="M332 414c58 0 97 -36 97 -80c0 -103 -171 -151 -252 -172c-4 -12 -5 -27 -5 -48c0 -27 13 -55 43 -55c36 0 84 24 130 70c11 0 21 -10 20 -23c-48 -75 -128 -120 -218 -120c-72 0 -107 51 -107 115c0 90 56 195 135 255c56 43 110 58 157 58zM297 370
c-13 0 -28 -9 -43 -26c-36 -39 -60 -101 -69 -138c35 10 66 27 95 57c20 21 35 59 36 84c0 11 -7 23 -19 23zM283 465l103 168c13 21 23 27 33 26c11 -1 20 -6 36 -18c16 -16 24 -27 23 -37c-1 -11 -11 -24 -24 -34l-148 -123c-14 -1 -22 6 -23 18z" />
    <glyph glyph-name="ecircumflex" unicode="&#xea;" horiz-adv-x="401" 
d="M332 414c58 0 97 -36 97 -80c0 -103 -171 -151 -252 -172c-4 -12 -5 -27 -5 -48c0 -27 13 -55 43 -55c36 0 84 24 130 70c11 0 21 -10 20 -23c-48 -75 -128 -120 -218 -120c-72 0 -107 51 -107 115c0 90 56 195 135 255c56 43 110 58 157 58zM297 370
c-13 0 -28 -9 -43 -26c-36 -39 -60 -101 -69 -138c35 10 66 27 95 57c20 21 35 59 36 84c0 11 -7 23 -19 23zM413 465l-48 87c-7 13 -12 20 -18 20c-5 0 -13 -9 -26 -22l-88 -87c-12 0 -23 7 -23 20l134 189c7 10 15 13 23 13s17 -3 20 -13l51 -189c-3 -12 -13 -17 -25 -18z
" />
    <glyph glyph-name="edieresis" unicode="&#xeb;" horiz-adv-x="401" 
d="M332 414c58 0 97 -36 97 -80c0 -103 -171 -151 -252 -172c-4 -12 -5 -27 -5 -48c0 -27 13 -55 43 -55c36 0 84 24 130 70c11 0 21 -10 20 -23c-48 -75 -128 -120 -218 -120c-72 0 -107 51 -107 115c0 90 56 195 135 255c56 43 110 58 157 58zM297 370
c-13 0 -28 -9 -43 -26c-36 -39 -60 -101 -69 -138c35 10 66 27 95 57c20 21 35 59 36 84c0 11 -7 23 -19 23zM224 487c-36 0 -59 25 -54 62c5 35 32 61 68 61c34 0 59 -26 54 -64c-5 -34 -33 -59 -68 -59zM409 487c-36 0 -59 25 -54 62c5 35 32 61 69 61c33 0 59 -26 53 -64
c-6 -34 -32 -59 -68 -59z" />
    <glyph glyph-name="egrave" unicode="&#xe8;" horiz-adv-x="401" 
d="M332 414c58 0 97 -36 97 -80c0 -103 -171 -151 -252 -172c-4 -12 -5 -27 -5 -48c0 -27 13 -55 43 -55c36 0 84 24 130 70c11 0 21 -10 20 -23c-48 -75 -128 -120 -218 -120c-72 0 -107 51 -107 115c0 90 56 195 135 255c56 43 110 58 157 58zM297 370
c-13 0 -28 -9 -43 -26c-36 -39 -60 -101 -69 -138c35 10 66 27 95 57c20 21 35 59 36 84c0 11 -7 23 -19 23zM305 643l53 -176c-1 -12 -13 -18 -26 -16l-108 135c-10 13 -16 25 -15 37c0 9 10 21 30 34c18 12 29 15 40 15c9 0 19 -7 26 -29z" />
    <glyph glyph-name="iacute" unicode="&#xed;" horiz-adv-x="309" 
d="M294 326l-104 -245c-4 -9 -3 -15 4 -15c14 0 69 39 94 63c12 0 22 -11 19 -24c-39 -52 -128 -119 -210 -119c-26 0 -46 28 -46 40c0 11 4 23 12 43l104 249c3 8 3 14 -2 14c-17 0 -73 -42 -89 -57c-12 2 -20 15 -16 24c54 66 148 115 201 115c22 0 46 -22 46 -44
c0 -10 -7 -29 -13 -44zM223 468l103 168c13 21 23 27 33 26c11 -1 20 -6 36 -18c16 -16 24 -27 23 -37c-1 -11 -11 -24 -24 -34l-148 -123c-14 -1 -22 6 -23 18z" />
    <glyph glyph-name="icircumflex" unicode="&#xee;" horiz-adv-x="309" 
d="M294 326l-104 -245c-4 -9 -3 -15 4 -15c14 0 69 39 94 63c12 0 22 -11 19 -24c-39 -52 -128 -119 -210 -119c-26 0 -46 28 -46 40c0 11 4 23 12 43l104 249c3 8 3 14 -2 14c-17 0 -73 -42 -89 -57c-12 2 -20 15 -16 24c54 66 148 115 201 115c22 0 46 -22 46 -44
c0 -10 -7 -29 -13 -44zM338 442l-50 82c-8 13 -12 20 -16 20c-5 0 -15 -9 -28 -22l-86 -82c-12 0 -23 7 -23 20l134 189c7 10 15 13 23 13s17 -3 20 -13l51 -189c-3 -12 -13 -17 -25 -18z" />
    <glyph glyph-name="idieresis" unicode="&#xef;" horiz-adv-x="309" 
d="M294 326l-104 -245c-4 -9 -3 -15 4 -15c14 0 69 39 94 63c12 0 22 -11 19 -24c-39 -52 -128 -119 -210 -119c-26 0 -46 28 -46 40c0 11 4 23 12 43l104 249c3 8 3 14 -2 14c-17 0 -73 -42 -89 -57c-12 2 -20 15 -16 24c54 66 148 115 201 115c22 0 46 -22 46 -44
c0 -10 -7 -29 -13 -44zM175 487c-36 0 -59 25 -54 62c5 35 32 61 68 61c34 0 59 -26 54 -64c-5 -34 -33 -59 -68 -59zM360 487c-36 0 -59 25 -54 62c5 35 32 61 69 61c33 0 59 -26 53 -64c-6 -34 -32 -59 -68 -59z" />
    <glyph glyph-name="igrave" unicode="&#xec;" horiz-adv-x="309" 
d="M294 326l-104 -245c-4 -9 -3 -15 4 -15c14 0 69 39 94 63c12 0 22 -11 19 -24c-39 -52 -128 -119 -210 -119c-26 0 -46 28 -46 40c0 11 4 23 12 43l104 249c3 8 3 14 -2 14c-17 0 -73 -42 -89 -57c-12 2 -20 15 -16 24c54 66 148 115 201 115c22 0 46 -22 46 -44
c0 -10 -7 -29 -13 -44zM256 649l53 -176c-1 -12 -13 -18 -26 -16l-108 135c-10 13 -16 25 -15 37c0 9 10 21 30 34c18 12 29 15 40 15c9 0 19 -7 26 -29z" />
    <glyph glyph-name="ntilde" unicode="&#xf1;" horiz-adv-x="544" 
d="M236 414c46 0 42 -40 33 -63l-47 -123h4c58 81 136 186 234 186c45 0 63 -32 63 -58c0 -24 -8 -58 -20 -89c-19 -50 -44 -108 -74 -179c-6 -14 -4 -22 4 -22c15 0 63 39 89 68c11 2 21 -6 20 -19c-28 -50 -111 -129 -210 -129c-23 0 -43 21 -43 39c0 15 7 35 15 54
c30 70 60 139 85 209c9 24 13 37 13 47c0 8 -4 14 -13 14c-14 0 -41 -19 -76 -64c-56 -72 -110 -185 -155 -281c-7 -14 -26 -18 -48 -18c-25 0 -64 8 -54 40c5 14 81 228 96 271c7 20 8 36 -4 36c-21 0 -62 -32 -85 -54c-10 0 -17 8 -18 16c26 52 110 119 191 119zM418 515
h-56c-45 0 -68 -18 -86 -49c-6 -4 -27 -2 -31 6c6 19 25 67 41 87c17 21 34 28 61 28h56c40 0 62 6 78 47c8 3 26 1 30 -5c-6 -32 -18 -63 -33 -86c-14 -21 -29 -28 -60 -28z" />
    <glyph glyph-name="oacute" unicode="&#xf3;" horiz-adv-x="468" 
d="M317 370c-16 0 -33 -12 -54 -38c-36 -45 -99 -165 -99 -261c0 -25 12 -41 31 -41c25 0 47 23 74 67c27 45 76 155 76 231c0 21 -6 42 -28 42zM310 414c107 0 147 -74 147 -146s-35 -156 -93 -212c-52 -50 -112 -70 -170 -70c-102 0 -146 69 -145 139c1 77 38 168 105 226
c58 50 111 63 156 63zM294 472l103 168c13 21 23 27 33 26c11 -1 20 -6 36 -18c16 -16 24 -27 23 -37c-1 -11 -11 -24 -24 -34l-148 -123c-14 -1 -22 6 -23 18z" />
    <glyph glyph-name="ocircumflex" unicode="&#xf4;" horiz-adv-x="468" 
d="M317 370c-16 0 -33 -12 -54 -38c-36 -45 -99 -165 -99 -261c0 -25 12 -41 31 -41c25 0 47 23 74 67c27 45 76 155 76 231c0 21 -6 42 -28 42zM310 414c107 0 147 -74 147 -146s-35 -156 -93 -212c-52 -50 -112 -70 -170 -70c-102 0 -146 69 -145 139c1 77 38 168 105 226
c58 50 111 63 156 63zM420 455l-50 82c-8 13 -12 20 -16 20c-5 0 -15 -9 -28 -22l-86 -82c-12 0 -23 7 -23 20l134 189c7 10 15 13 23 13s17 -3 20 -13l51 -189c-3 -12 -13 -17 -25 -18z" />
    <glyph glyph-name="odieresis" unicode="&#xf6;" horiz-adv-x="468" 
d="M317 370c-16 0 -33 -12 -54 -38c-36 -45 -99 -165 -99 -261c0 -25 12 -41 31 -41c25 0 47 23 74 67c27 45 76 155 76 231c0 21 -6 42 -28 42zM310 414c107 0 147 -74 147 -146s-35 -156 -93 -212c-52 -50 -112 -70 -170 -70c-102 0 -146 69 -145 139c1 77 38 168 105 226
c58 50 111 63 156 63zM254 487c-36 0 -59 25 -54 62c5 35 32 61 68 61c34 0 59 -26 54 -64c-5 -34 -33 -59 -68 -59zM439 487c-36 0 -59 25 -54 62c5 35 32 61 69 61c33 0 59 -26 53 -64c-6 -34 -32 -59 -68 -59z" />
    <glyph glyph-name="ograve" unicode="&#xf2;" horiz-adv-x="468" 
d="M317 370c-16 0 -33 -12 -54 -38c-36 -45 -99 -165 -99 -261c0 -25 12 -41 31 -41c25 0 47 23 74 67c27 45 76 155 76 231c0 21 -6 42 -28 42zM310 414c107 0 147 -74 147 -146s-35 -156 -93 -212c-52 -50 -112 -70 -170 -70c-102 0 -146 69 -145 139c1 77 38 168 105 226
c58 50 111 63 156 63zM334 642l53 -176c-1 -12 -13 -18 -26 -16l-108 135c-10 13 -16 25 -15 37c0 9 10 21 30 34c18 12 29 15 40 15c9 0 19 -7 26 -29z" />
    <glyph glyph-name="otilde" unicode="&#xf5;" horiz-adv-x="468" 
d="M317 370c-16 0 -33 -12 -54 -38c-36 -45 -99 -165 -99 -261c0 -25 12 -41 31 -41c25 0 47 23 74 67c27 45 76 155 76 231c0 21 -6 42 -28 42zM310 414c107 0 147 -74 147 -146s-35 -156 -93 -212c-52 -50 -112 -70 -170 -70c-102 0 -146 69 -145 139c1 77 38 168 105 226
c58 50 111 63 156 63zM394 514h-56c-45 0 -68 -18 -86 -49c-6 -4 -27 -2 -31 6c6 19 25 67 41 87c17 21 34 28 61 28h56c40 0 62 6 78 47c8 3 26 1 30 -5c-6 -32 -18 -63 -33 -86c-14 -21 -29 -28 -60 -28z" />
    <glyph glyph-name="scaron" unicode="&#x161;" horiz-adv-x="324" 
d="M254 414c54 0 98 -35 98 -80c0 -39 -31 -52 -46 -52c-9 0 -17 7 -23 14c-40 46 -59 57 -79 57c-14 0 -26 -13 -26 -26c0 -11 6 -25 26 -45l38 -39c35 -36 51 -67 51 -102c0 -41 -22 -80 -60 -111c-34 -29 -77 -44 -125 -44c-46 0 -99 28 -99 77c0 32 23 58 49 58
c11 0 19 -10 31 -22c39 -41 59 -52 79 -52c18 0 34 14 34 29c0 14 -9 30 -29 51l-33 35c-31 32 -49 65 -49 101c0 43 26 83 56 109c29 24 66 42 107 42zM215 674l51 -83c8 -13 13 -20 18 -20s14 9 27 22l86 83c12 0 23 -7 23 -20l-136 -191c-8 -11 -15 -13 -23 -13
c-7 0 -17 2 -20 13l-52 191c3 11 14 17 26 18z" />
    <glyph glyph-name="uacute" unicode="&#xfa;" horiz-adv-x="543" 
d="M258 414c24 0 45 -23 45 -42c0 -8 -2 -21 -5 -28l-99 -243c-7 -18 -4 -27 8 -27c6 0 18 4 38 21c83 71 155 217 200 311c11 5 22 8 37 8c33 0 56 -11 70 -22c-38 -98 -79 -197 -114 -295c-4 -12 -8 -28 5 -28c16 0 66 39 91 65c12 -2 18 -9 18 -23
c-28 -49 -126 -125 -210 -125c-25 0 -46 21 -34 51l56 142h-2c-53 -75 -163 -193 -243 -193c-34 0 -55 24 -55 52c0 18 7 38 15 59l83 209c5 13 4 26 -4 26c-20 0 -61 -39 -89 -61c-11 4 -18 10 -17 24c38 51 130 119 206 119zM332 473l103 168c13 21 23 27 33 26
c11 -1 20 -6 36 -18c16 -16 24 -27 23 -37c-1 -11 -11 -24 -24 -34l-148 -123c-14 -1 -22 6 -23 18z" />
    <glyph glyph-name="ucircumflex" unicode="&#xfb;" horiz-adv-x="543" 
d="M258 414c24 0 45 -23 45 -42c0 -8 -2 -21 -5 -28l-99 -243c-7 -18 -4 -27 8 -27c6 0 18 4 38 21c83 71 155 217 200 311c11 5 22 8 37 8c33 0 56 -11 70 -22c-38 -98 -79 -197 -114 -295c-4 -12 -8 -28 5 -28c16 0 66 39 91 65c12 -2 18 -9 18 -23
c-28 -49 -126 -125 -210 -125c-25 0 -46 21 -34 51l56 142h-2c-53 -75 -163 -193 -243 -193c-34 0 -55 24 -55 52c0 18 7 38 15 59l83 209c5 13 4 26 -4 26c-20 0 -61 -39 -89 -61c-11 4 -18 10 -17 24c38 51 130 119 206 119zM465 455l-50 82c-8 13 -12 20 -16 20
c-5 0 -15 -9 -28 -22l-86 -82c-12 0 -23 7 -23 20l134 189c7 10 15 13 23 13s17 -3 20 -13l51 -189c-3 -12 -13 -17 -25 -18z" />
    <glyph glyph-name="udieresis" unicode="&#xfc;" horiz-adv-x="543" 
d="M258 414c24 0 45 -23 45 -42c0 -8 -2 -21 -5 -28l-99 -243c-7 -18 -4 -27 8 -27c6 0 18 4 38 21c83 71 155 217 200 311c11 5 22 8 37 8c33 0 56 -11 70 -22c-38 -98 -79 -197 -114 -295c-4 -12 -8 -28 5 -28c16 0 66 39 91 65c12 -2 18 -9 18 -23
c-28 -49 -126 -125 -210 -125c-25 0 -46 21 -34 51l56 142h-2c-53 -75 -163 -193 -243 -193c-34 0 -55 24 -55 52c0 18 7 38 15 59l83 209c5 13 4 26 -4 26c-20 0 -61 -39 -89 -61c-11 4 -18 10 -17 24c38 51 130 119 206 119zM283 487c-36 0 -59 25 -54 62
c5 35 32 61 68 61c34 0 59 -26 54 -64c-5 -34 -33 -59 -68 -59zM468 487c-36 0 -59 25 -54 62c5 35 32 61 69 61c33 0 59 -26 53 -64c-6 -34 -32 -59 -68 -59z" />
    <glyph glyph-name="ugrave" unicode="&#xf9;" horiz-adv-x="543" 
d="M258 414c24 0 45 -23 45 -42c0 -8 -2 -21 -5 -28l-99 -243c-7 -18 -4 -27 8 -27c6 0 18 4 38 21c83 71 155 217 200 311c11 5 22 8 37 8c33 0 56 -11 70 -22c-38 -98 -79 -197 -114 -295c-4 -12 -8 -28 5 -28c16 0 66 39 91 65c12 -2 18 -9 18 -23
c-28 -49 -126 -125 -210 -125c-25 0 -46 21 -34 51l56 142h-2c-53 -75 -163 -193 -243 -193c-34 0 -55 24 -55 52c0 18 7 38 15 59l83 209c5 13 4 26 -4 26c-20 0 -61 -39 -89 -61c-11 4 -18 10 -17 24c38 51 130 119 206 119zM363 649l53 -176c-1 -12 -13 -18 -26 -16
l-108 135c-10 13 -16 25 -15 37c0 9 10 21 30 34c18 12 29 15 40 15c9 0 19 -7 26 -29z" />
    <glyph glyph-name="yacute" unicode="&#xfd;" horiz-adv-x="425" 
d="M176 414c52 0 86 -44 89 -181c1 -71 0 -130 -8 -205h3c47 91 75 184 91 283c4 22 9 48 10 61c4 32 16 42 34 42c30 0 62 -13 63 -45c0 -17 -34 -136 -102 -258c-61 -109 -130 -223 -190 -286c-66 -70 -127 -94 -175 -94c-37 0 -76 24 -77 68c-1 38 27 65 60 65
c21 0 33 -13 44 -29c18 -26 30 -34 46 -34c11 0 25 9 40 26c18 21 34 53 42 94c8 40 15 95 12 206c-3 121 -12 198 -39 198c-20 0 -49 -49 -63 -81c-9 -8 -29 -3 -33 8c19 55 66 162 153 162zM261 466l103 168c13 21 23 27 33 26c11 -1 20 -6 36 -18c16 -16 24 -27 23 -37
c-1 -11 -11 -24 -24 -34l-148 -123c-14 -1 -22 6 -23 18z" />
    <glyph glyph-name="ydieresis" unicode="&#xff;" horiz-adv-x="425" 
d="M176 414c52 0 86 -44 89 -181c1 -71 0 -130 -8 -205h3c47 91 75 184 91 283c4 22 9 48 10 61c4 32 16 42 34 42c30 0 62 -13 63 -45c0 -17 -34 -136 -102 -258c-61 -109 -130 -223 -190 -286c-66 -70 -127 -94 -175 -94c-37 0 -76 24 -77 68c-1 38 27 65 60 65
c21 0 33 -13 44 -29c18 -26 30 -34 46 -34c11 0 25 9 40 26c18 21 34 53 42 94c8 40 15 95 12 206c-3 121 -12 198 -39 198c-20 0 -49 -49 -63 -81c-9 -8 -29 -3 -33 8c19 55 66 162 153 162zM211 488c-36 0 -59 25 -54 62c5 35 32 61 68 61c34 0 59 -26 54 -64
c-5 -34 -33 -59 -68 -59zM396 488c-36 0 -59 25 -54 62c5 35 32 61 69 61c33 0 59 -26 53 -64c-6 -34 -32 -59 -68 -59z" />
    <glyph glyph-name="zcaron" unicode="&#x17e;" horiz-adv-x="442" 
d="M-1 25c0 20 16 39 51 69c87 73 164 127 240 188c8 7 9 13 -2 17c-50 18 -115 25 -130 25c-14 0 -24 -9 -24 -19c0 -17 23 -29 23 -44c0 -16 -16 -31 -38 -32c-30 -1 -52 20 -52 47c0 34 26 66 54 91c35 30 77 40 111 40c30 0 63 -11 85 -19c26 -9 41 -13 57 -13
c23 0 36 11 53 34c23 2 47 -19 39 -49c-137 -105 -202 -160 -294 -236v-4c30 0 50 -6 92 -29c37 -20 71 -36 86 -36c17 0 29 8 29 20c1 22 -24 48 -24 74c0 14 12 28 31 28c38 0 64 -39 63 -69c-1 -37 -26 -70 -52 -90c-27 -21 -68 -39 -108 -39c-38 0 -71 13 -106 32
c-19 10 -51 24 -72 24c-19 0 -40 -13 -53 -48c-44 -3 -59 21 -59 38zM243 668l51 -83c8 -13 13 -20 18 -20s14 9 27 22l86 83c12 0 23 -7 23 -20l-136 -191c-8 -11 -15 -13 -23 -13c-7 0 -17 2 -20 13l-52 191c3 11 14 17 26 18z" />
    <glyph glyph-name="dollaroldstyle" unicode="&#xf724;" horiz-adv-x="460" 
d="M266 163l-51 -138c3 -1 6 -1 10 -1c48 0 91 22 93 71c1 29 -16 50 -52 68zM265 283l43 117c-76 0 -98 -37 -99 -63c-1 -18 12 -35 56 -54zM352 393l-47 -127l8 -3c61 -23 109 -67 107 -137c-3 -87 -80 -140 -210 -140c-4 0 -7 0 -9 1l-27 -71c-9 -8 -38 -8 -45 0l28 74
c-66 9 -110 35 -123 56c-8 24 -6 68 6 120c5 11 29 11 34 0c6 -64 46 -113 99 -132l54 147l-7 3c-53 23 -109 53 -106 122c3 85 88 137 198 136c3 0 6 0 11 -1l22 58c14 8 36 8 46 0l-23 -63c15 -2 32 -6 48 -11c12 -4 25 -8 38 -13c8 -29 8 -65 0 -118c-7 -8 -25 -10 -34 0
c-2 51 -29 84 -68 99z" />
    <glyph glyph-name="dollarsuperior" unicode="&#xf6e4;" 
d="M326 463l-45 -118c4 -1 6 -1 9 -1c42 0 80 19 82 57c1 32 -22 50 -46 62zM401 661l-40 -107l7 -3c52 -22 95 -58 93 -120c-3 -76 -70 -123 -185 -123c-3 0 -6 0 -9 1l-20 -52c-8 -7 -31 -7 -39 0l21 55c-56 8 -96 31 -106 49c-8 21 -6 59 5 105c4 10 25 10 30 0
c5 -54 40 -96 86 -114l48 126c-50 20 -101 47 -99 111c3 74 77 119 174 119h12l17 45c9 7 30 7 40 0l-19 -50c14 -2 28 -5 41 -10c10 -3 21 -7 33 -12c7 -25 7 -56 0 -103c-7 -7 -23 -9 -30 0c-7 42 -27 70 -60 83zM326 568l38 100c-3 1 -6 1 -9 1c-54 0 -78 -28 -79 -53
c0 -16 11 -31 50 -48z" />
    <glyph glyph-name="parenleftsuperior" unicode="&#x207d;" horiz-adv-x="280" 
d="M177 442c0 103 48 200 133 266c43 33 88 49 136 60c10 -3 13 -14 9 -21c-32 -19 -71 -48 -106 -95c-49 -65 -85 -149 -85 -252c0 -53 9 -101 27 -138c0 -9 -9 -16 -19 -14c-68 46 -95 130 -95 194z" />
    <glyph glyph-name="parenrightsuperior" unicode="&#x207e;" horiz-adv-x="280" 
d="M341 574c0 -103 -48 -200 -133 -266c-43 -33 -88 -49 -136 -60c-10 3 -13 14 -9 21c32 19 71 48 106 95c49 65 85 149 85 252c0 53 -9 101 -27 138c0 9 9 16 19 14c68 -46 95 -130 95 -194z" />
    <glyph glyph-name="twodotenleader" unicode="&#x2025;" horiz-adv-x="500" 
d="M112 150c40 0 67 -28 67 -74c0 -50 -36 -90 -85 -90c-39 0 -69 26 -69 70c0 47 35 94 87 94zM362 150c40 0 67 -28 67 -74c0 -50 -36 -90 -85 -90c-39 0 -69 26 -69 70c0 47 35 94 87 94z" />
    <glyph glyph-name="onedotenleader" unicode="&#x2024;" horiz-adv-x="500" 
d="M235 150c40 0 67 -28 67 -74c0 -50 -36 -90 -85 -90c-39 0 -69 26 -69 70c0 47 35 94 87 94z" />
    <glyph glyph-name="zerooldstyle" unicode="&#xf730;" horiz-adv-x="500" 
d="M220 -14c-108 0 -153 71 -153 156c0 69 30 146 77 203c47 56 107 97 184 97c98 0 158 -63 158 -165c0 -73 -36 -163 -92 -218c-59 -57 -117 -73 -174 -73zM373 333c0 42 -13 65 -39 65c-22 0 -57 -16 -99 -111c-45 -102 -55 -176 -55 -201c0 -35 15 -56 41 -56
c22 0 48 14 77 62c39 64 75 189 75 241z" />
    <glyph glyph-name="oneoldstyle" unicode="&#xf731;" horiz-adv-x="380" 
d="M276 35l38 -5c9 -7 6 -29 -5 -33c-41 2 -91 3 -152 3c-67 0 -109 -1 -151 -3c-10 4 -7 26 3 33l41 5c44 5 56 19 75 80l61 198c19 61 13 74 -27 80l-33 5c-9 7 -5 29 8 33c43 -2 90 -3 147 -3c59 0 109 1 133 3c13 -4 8 -26 0 -33l-29 -4c-44 -6 -56 -20 -75 -81
l-61 -198c-19 -61 -13 -75 27 -80z" />
    <glyph glyph-name="twooldstyle" unicode="&#xf732;" horiz-adv-x="473" 
d="M244 89h74c53 0 76 13 109 52c13 2 25 -4 28 -16c-22 -34 -51 -92 -68 -128c-24 1 -47 2 -72 2c-25 1 -52 1 -82 1h-126c-40 0 -76 -1 -96 -3c-9 4 -11 19 -6 26c47 22 90 49 147 89c60 42 149 100 149 173c0 46 -24 80 -72 80c-42 0 -79 -29 -107 -75
c-19 -3 -31 11 -30 26c37 68 109 126 199 126c95 0 150 -56 150 -131c0 -77 -71 -126 -126 -158l-89 -52c0 -8 6 -12 18 -12z" />
    <glyph glyph-name="threeoldstyle" unicode="&#xf733;" horiz-adv-x="413" 
d="M268 442c82 0 124 -43 124 -94s-33 -89 -122 -127c-7 -3 -9 -12 1 -15c67 -20 83 -68 83 -112c0 -69 -49 -139 -114 -190c-89 -69 -169 -92 -230 -92c-27 0 -49 23 -48 49c0 16 9 29 24 29c13 0 48 -10 91 -10c80 0 136 73 136 166c0 49 -14 100 -65 100
c-23 0 -46 -15 -65 -32c-19 3 -31 32 -18 47c67 28 197 77 197 151c0 37 -21 59 -52 59c-26 0 -58 -17 -86 -50c-15 -3 -30 13 -25 28c32 39 95 93 169 93z" />
    <glyph glyph-name="fouroldstyle" unicode="&#xf734;" horiz-adv-x="522" 
d="M467 13h-80c-23 0 -23 -3 -29 -22l-53 -168c-6 -6 -31 -9 -60 -9c-26 0 -54 3 -57 9l52 168c6 19 7 22 -15 22h-219c-10 6 -13 21 -7 31l87 71c47 39 333 299 361 323c5 3 11 4 16 4c10 0 26 -4 31 -15l-102 -326c-8 -27 -9 -28 14 -28h77c4 -5 6 -12 6 -21
c-1 -12 -9 -34 -22 -39zM135 73h109c22 0 23 1 32 28l59 175h-4l-203 -185c-8 -8 -7 -18 7 -18z" />
    <glyph glyph-name="fiveoldstyle" unicode="&#xf735;" horiz-adv-x="392" 
d="M270 420l69 8c46 5 71 9 89 14c7 -2 11 -9 11 -16c-15 -41 -47 -97 -105 -103l-118 -13c-49 -5 -58 -12 -58 -21c0 -7 3 -18 58 -56c59 -40 102 -101 102 -175c0 -165 -194 -238 -322 -256c-16 3 -23 27 -12 37c115 25 207 94 207 190c0 47 -25 79 -62 108s-54 53 -54 87
c0 31 22 74 48 110c27 37 53 58 72 69c22 10 48 14 75 17z" />
    <glyph glyph-name="sixoldstyle" unicode="&#xf736;" horiz-adv-x="508" 
d="M490 238c0 -141 -117 -252 -252 -252c-104 0 -166 64 -166 173c0 127 81 269 200 356c121 88 256 118 338 124c9 -5 10 -22 4 -29c-61 -21 -137 -54 -195 -93s-113 -94 -146 -154l2 -2c25 15 56 24 83 24c83 0 132 -57 132 -147zM188 108c0 -55 21 -78 52 -78
c62 0 123 121 123 223c0 46 -19 76 -54 76c-27 0 -53 -16 -72 -45c-23 -35 -49 -110 -49 -176z" />
    <glyph glyph-name="sevenoldstyle" unicode="&#xf737;" horiz-adv-x="479" 
d="M231 428h160c59 0 131 -1 146 3c5 -2 7 -10 5 -16c-34 -40 -88 -114 -166 -219l-291 -393c-4 -2 -8 -1 -14 -1c-16 0 -31 14 -32 34l307 405c22 30 45 64 45 76c0 7 -10 9 -29 9h-150c-65 0 -80 -13 -109 -55c-13 -5 -26 5 -28 15c24 43 51 107 64 145c21 -2 58 -3 92 -3
z" />
    <glyph glyph-name="eightoldstyle" unicode="&#xf738;" horiz-adv-x="472" 
d="M359 621c104 0 159 -59 159 -138c0 -88 -93 -129 -148 -157c49 -48 76 -103 76 -158c0 -96 -89 -182 -234 -182c-87 0 -163 49 -163 138c0 85 80 140 166 185c-44 44 -64 89 -64 124c0 100 93 188 208 188zM161 123c0 -37 16 -93 77 -93c44 0 86 35 86 98
c0 61 -29 102 -73 143c-60 -38 -90 -101 -90 -148zM418 486c0 52 -21 91 -67 91c-40 0 -83 -33 -83 -97c0 -41 26 -87 69 -120c43 21 81 72 81 126z" />
    <glyph glyph-name="nineoldstyle" unicode="&#xf739;" horiz-adv-x="486" 
d="M313 442c139 0 159 -107 159 -176c0 -109 -78 -253 -207 -345c-75 -54 -182 -103 -244 -119c-11 5 -15 20 -10 30c104 56 190 132 257 227l-2 1c-16 -11 -44 -16 -69 -16c-93 0 -128 68 -128 128c0 141 119 270 244 270zM243 89c35 0 60 34 76 66c25 50 40 104 40 167
c0 41 -10 76 -42 76c-58 0 -127 -122 -127 -244c0 -43 22 -65 53 -65z" />
    <glyph glyph-name="commasuperior" unicode="&#xf6e2;" horiz-adv-x="210" 
d="M175 456c31 0 72 -31 74 -88c4 -85 -74 -148 -176 -170c-10 4 -18 20 -7 30c49 16 102 51 102 92c0 32 -24 42 -35 49c-13 7 -21 20 -20 36c1 26 26 51 62 51z" />
    <glyph glyph-name="threequartersemdash" unicode="&#xf6de;" horiz-adv-x="750" 
d="M22 242h750l-18 -69h-750z" />
    <glyph glyph-name="periodsuperior" unicode="&#xf6e8;" horiz-adv-x="210" 
d="M188 441c31 0 54 -22 55 -56c1 -39 -27 -77 -70 -77c-32 0 -54 21 -54 56c0 37 27 77 69 77z" />
    <glyph glyph-name="asuperior" unicode="&#xf6e9;" horiz-adv-x="406" 
d="M359 598c8 0 23 -6 34 -16l17 33c5 3 12 5 20 5c10 0 21 -2 31 -5c12 -4 27 -11 31 -18c-29 -66 -62 -143 -89 -217c-3 -9 -2 -14 3 -14c7 0 44 21 68 44c9 0 16 -11 14 -21c-33 -43 -98 -81 -157 -81c-22 0 -34 16 -34 27c0 7 4 18 9 29l19 46h-3
c-39 -47 -111 -102 -168 -102c-27 0 -50 20 -50 44c0 41 45 128 114 185c51 42 94 61 141 61zM220 380v-6c0 -5 3 -8 7 -8c13 0 54 36 76 64c28 34 59 87 66 106c-8 20 -16 26 -29 26c-10 0 -24 -5 -46 -31c-37 -44 -74 -114 -74 -151z" />
    <glyph glyph-name="bsuperior" unicode="&#xf6ea;" horiz-adv-x="416" 
d="M226 308c-56 0 -88 27 -88 70c0 28 12 63 29 107l83 212c7 17 6 23 -8 31l-19 11c-3 7 -1 17 5 20c25 9 101 23 143 24c5 -1 8 -5 9 -11c-11 -26 -22 -51 -37 -87l-66 -158h2c25 31 81 81 135 81c58 0 74 -45 74 -71c0 -29 -10 -84 -60 -137c-51 -54 -121 -92 -202 -92z
M373 566c-14 0 -54 -27 -93 -79c-33 -44 -51 -94 -51 -119c0 -15 8 -25 17 -25c10 0 33 12 61 42c51 56 82 127 82 155c0 17 -5 26 -16 26z" />
    <glyph glyph-name="centsuperior" unicode="&#xf6e0;" 
d="M312 399l90 247c-84 -1 -139 -86 -139 -160c0 -41 18 -73 49 -87zM475 739l-22 -59c24 -3 44 -8 61 -16c4 -6 5 -15 5 -23c-1 -19 -13 -60 -24 -60c-5 0 -7 4 -10 8c-10 17 -24 39 -47 49l-90 -247c1 -1 3 -1 4 -1c55 0 80 22 103 42c9 -3 16 -11 14 -21
c-31 -44 -85 -69 -140 -72l-24 -66c-10 -9 -32 -9 -39 0l24 66c-88 8 -133 63 -133 141c0 117 110 204 243 204c5 0 11 0 16 -1l20 56c7 9 30 9 39 0z" />
    <glyph glyph-name="dsuperior" unicode="&#xf6eb;" horiz-adv-x="424" 
d="M411 591l37 101c8 21 8 30 -6 36l-20 9c-4 7 -4 18 2 23c24 9 102 23 141 23c5 0 9 -3 10 -7c-11 -29 -20 -54 -33 -91l-98 -269c-8 -22 -12 -35 -13 -41c0 -4 3 -8 7 -8c9 0 48 24 69 42c10 0 14 -9 13 -19c-17 -22 -79 -82 -160 -82c-21 0 -30 15 -30 26
c0 14 8 34 16 54l15 38h-2c-35 -42 -90 -118 -174 -118c-33 0 -59 25 -58 67c2 64 39 128 96 175c50 41 103 58 150 58c16 0 30 -7 38 -17zM388 530c9 26 3 43 -7 43c-4 0 -11 0 -25 -8c-15 -9 -42 -32 -73 -74c-42 -56 -65 -113 -65 -126c0 -8 3 -13 10 -13
c12 0 65 33 98 74c25 31 46 61 62 104z" />
    <glyph glyph-name="esuperior" unicode="&#xf6ec;" horiz-adv-x="340" 
d="M334 608c58 0 88 -28 88 -62c0 -71 -134 -105 -194 -119c-3 -9 -4 -14 -4 -29c0 -14 12 -34 37 -34s62 17 101 49c10 0 17 -10 16 -19c-32 -45 -97 -86 -169 -86c-61 0 -92 36 -92 91c0 57 36 125 90 164c41 30 84 45 127 45zM233 462c25 5 47 18 68 40
c15 15 25 42 25 54c0 11 -5 18 -12 18c-9 0 -22 -8 -33 -19c-24 -23 -43 -67 -48 -93z" />
    <glyph glyph-name="isuperior" unicode="&#xf6ed;" horiz-adv-x="247" 
d="M125 366l78 171c2 5 1 9 -3 9c-8 0 -53 -30 -65 -40c-10 0 -15 13 -12 21c41 47 112 81 159 81c17 0 36 -15 36 -31c0 -7 -4 -20 -9 -31l-77 -167c-3 -6 -3 -10 2 -10c9 0 51 28 70 44c9 0 17 -12 14 -21c-29 -37 -97 -84 -162 -84c-25 0 -39 20 -39 28s2 16 8 30z
M315 783c29 0 48 -17 48 -47c0 -34 -26 -62 -65 -62c-31 0 -50 19 -50 44c0 34 29 65 67 65z" />
    <glyph glyph-name="lsuperior" unicode="&#xf6ee;" horiz-adv-x="237" 
d="M170 308c-45 0 -53 19 -53 33c0 8 3 19 10 39l118 312c7 19 3 29 -9 36l-17 10c-4 5 -4 17 3 22c33 10 112 22 148 23c6 -1 9 -7 8 -12c-10 -24 -20 -49 -34 -86l-113 -298c-6 -15 -10 -27 1 -27c17 0 61 43 79 62c8 -1 16 -9 14 -20c-22 -39 -63 -94 -155 -94z" />
    <glyph glyph-name="msuperior" unicode="&#xf6ef;" horiz-adv-x="607" 
d="M261 608c42 0 37 -28 31 -44l-29 -73h2c36 43 94 117 165 117c32 0 39 -23 39 -37c0 -18 -14 -53 -29 -84l3 -1c60 77 110 122 168 122c37 0 51 -23 51 -45c0 -15 -3 -36 -13 -59c-14 -34 -34 -75 -54 -119c-4 -10 -5 -16 1 -16c11 0 46 28 68 48c8 1 17 -7 15 -18
c-22 -35 -84 -91 -164 -91c-23 0 -38 15 -38 28c0 10 5 24 11 37c23 49 44 98 65 147c4 8 8 20 8 27c0 6 -3 10 -9 10c-8 0 -24 -11 -48 -39c-43 -50 -84 -128 -119 -197c-5 -10 -24 -13 -42 -13c-19 0 -53 5 -46 28l16 37c2 4 42 98 63 147c3 8 8 20 8 27c0 6 -3 10 -9 10
c-8 0 -24 -11 -48 -39c-43 -50 -84 -128 -119 -197c-5 -10 -24 -13 -42 -13c-19 0 -53 5 -46 28c3 10 62 160 73 190c3 8 6 20 -4 20c-15 0 -41 -22 -64 -38c-9 1 -14 9 -13 17c19 36 83 83 149 83z" />
    <glyph glyph-name="nsuperior" unicode="&#x207f;" horiz-adv-x="430" 
d="M261 608c42 0 37 -28 31 -44l-29 -73h2c36 43 94 117 170 117c37 0 50 -23 50 -42c0 -16 -3 -39 -13 -62c-14 -34 -34 -75 -54 -119c-4 -10 -5 -16 1 -16c11 0 46 28 68 48c8 1 17 -7 15 -18c-22 -35 -84 -91 -164 -91c-23 0 -38 15 -38 28c0 10 5 24 11 37
c23 49 44 98 65 147c3 8 8 20 8 27c0 6 -3 10 -9 10c-8 0 -24 -11 -48 -39c-43 -50 -84 -128 -119 -197c-5 -10 -24 -13 -42 -13c-19 0 -53 5 -46 28c3 10 62 160 73 190c3 8 6 20 -4 20c-15 0 -41 -22 -64 -38c-9 1 -14 9 -13 17c19 36 83 83 149 83z" />
    <glyph glyph-name="osuperior" unicode="&#xf6f0;" horiz-adv-x="380" 
d="M220 370c0 -17 10 -26 24 -26s33 14 50 42c20 32 58 109 58 160c0 14 -7 26 -20 26c-11 0 -22 -7 -36 -22c-28 -32 -76 -115 -76 -180zM124 413c0 47 28 109 77 149c36 29 79 46 123 46c90 0 121 -52 121 -104c0 -49 -26 -107 -69 -147c-37 -33 -86 -49 -134 -49
c-86 0 -119 49 -118 105z" />
    <glyph glyph-name="rsuperior" unicode="&#xf6f1;" horiz-adv-x="325" 
d="M243 608c44 0 47 -32 33 -68l-25 -65h4c20 33 40 64 58 85c25 29 50 48 79 48c18 0 41 -13 41 -46c0 -39 -32 -76 -60 -76c-15 0 -19 14 -23 28c-3 11 -7 16 -14 16c-12 0 -29 -24 -43 -48c-33 -54 -56 -106 -82 -161c-4 -9 -19 -13 -37 -13c-26 0 -59 6 -51 28
c22 64 51 138 70 193c5 13 5 23 -2 23c-11 0 -41 -20 -63 -42c-9 0 -16 13 -13 20c15 28 63 78 128 78z" />
    <glyph glyph-name="ssuperior" unicode="&#xf6f2;" horiz-adv-x="280" 
d="M284 608c43 0 78 -25 78 -56c0 -39 -24 -48 -37 -48c-6 0 -13 5 -19 13c-27 33 -53 44 -65 44c-8 0 -14 -6 -14 -14s5 -19 21 -32l29 -23c31 -24 44 -50 44 -75c0 -32 -17 -61 -48 -82c-25 -16 -55 -27 -102 -27c-37 0 -80 20 -80 56c0 30 19 49 40 49c9 0 19 -4 31 -16
c31 -29 46 -43 62 -43c14 0 23 7 23 17c0 9 -6 22 -23 35l-28 21c-24 18 -46 43 -46 73c0 32 23 62 48 79c23 15 53 29 86 29z" />
    <glyph glyph-name="tsuperior" unicode="&#xf6f3;" horiz-adv-x="268" 
d="M374 552h-76l-65 -167c-4 -10 -4 -15 2 -15c14 0 50 25 81 54c11 -1 16 -13 15 -22c-26 -36 -103 -94 -167 -94c-28 0 -42 15 -42 30c0 10 1 19 8 38l65 176h-56c-7 6 -1 28 10 32l64 12l61 68c7 4 17 5 27 5c12 0 25 -4 30 -12l-21 -63h70c12 -9 4 -37 -6 -42z" />
    <glyph glyph-name="parenleftinferior" unicode="&#x208d;" horiz-adv-x="280" 
d="M22 -37c0 103 48 200 133 266c43 33 88 49 136 60c10 -3 13 -14 9 -21c-32 -19 -71 -48 -106 -95c-49 -65 -85 -149 -85 -252c0 -53 9 -101 27 -138c0 -9 -9 -16 -19 -14c-68 46 -95 130 -95 194z" />
    <glyph glyph-name="parenrightinferior" unicode="&#x208e;" horiz-adv-x="280" 
d="M186 95c0 -103 -48 -200 -133 -266c-43 -33 -88 -49 -136 -60c-10 3 -13 14 -9 21c32 19 71 48 106 95c49 65 85 149 85 252c0 53 -9 101 -27 138c0 9 9 16 19 14c68 -46 95 -130 95 -194z" />
    <glyph glyph-name="hyphensuperior" unicode="&#xf6e6;" horiz-adv-x="280" 
d="M362 483h-209c-13 11 -7 56 9 64h209c13 -8 7 -53 -9 -64z" />
    <glyph glyph-name="colonmonetary" unicode="&#x20a1;" horiz-adv-x="643" 
d="M220 -70l36 92c-100 35 -148 117 -148 217c1 118 62 223 130 284c52 47 138 94 255 103l29 75c9 5 29 5 42 0l-29 -73c21 0 40 -1 57 -3l30 76c9 5 29 5 42 0l-32 -83c41 -7 69 -18 85 -24c-20 -44 -31 -92 -45 -139c-6 -10 -30 -10 -34 0c5 52 -4 87 -28 107l-202 -518
c64 8 113 53 169 127c9 7 30 4 34 -5c-18 -54 -51 -119 -65 -144c-34 -3 -81 -21 -155 -22l-28 -70c-14 -4 -33 -4 -43 0l28 72c-19 1 -37 4 -53 9l-32 -81c-14 -4 -33 -4 -43 0zM284 92l190 487c-130 -36 -228 -199 -228 -347c0 -67 15 -113 38 -140zM365 44l210 536
c-14 4 -30 6 -49 6h-7l-204 -523c16 -11 33 -16 50 -19z" />
    <glyph glyph-name="rupiah" unicode="&#xf6dd;" horiz-adv-x="1013" 
d="M506 484c0 48 -21 98 -86 98c-34 0 -34 -2 -43 -29l-64 -203c-10 -31 -8 -31 41 -31c84 0 152 82 152 165zM382 91l-25 144c-6 32 -17 41 -47 41c-18 0 -20 -2 -26 -22l-38 -118c-25 -76 -25 -93 24 -101l26 -4c6 -7 3 -28 -6 -34c-51 2 -98 3 -144 3
c-42 0 -84 -1 -131 -3c-9 6 -9 30 5 34l27 4c41 6 48 13 76 101l112 357c20 65 22 80 -11 87l-27 6c-9 9 -6 28 5 34c54 4 105 8 187 8c72 0 133 -7 178 -31c46 -24 74 -65 74 -126c0 -100 -85 -148 -155 -164c-14 -3 -17 -5 -14 -21c19 -122 34 -208 56 -232
c11 -11 34 -17 59 -20l93 273c-20 -5 -68 -26 -94 -40c-12 1 -17 17 -12 27c17 19 90 55 121 64l27 70c12 7 26 13 46 13c33 0 60 -9 64 -18l-18 -53c9 2 18 3 24 3c119 0 158 -64 158 -137c0 -51 -29 -120 -70 -162c-48 -49 -111 -87 -194 -87c-10 0 -26 5 -37 9
c-6 -1 -10 -6 -13 -16l-43 -129c-11 -32 -13 -54 23 -58l39 -4c11 -4 9 -28 -5 -31h-66c-60 0 -114 -4 -195 -11c-12 6 -13 26 -4 33l30 5c39 6 47 21 69 84l45 130c-19 -2 -45 -3 -79 -3c-36 0 -61 5 -76 14c-18 11 -30 37 -38 81zM800 322l-83 -241c-4 -11 -8 -26 4 -39
c8 -9 19 -14 28 -14c14 0 35 10 57 36c40 49 69 122 69 184c0 55 -28 76 -62 76c-4 0 -10 -1 -13 -2z" />
    <glyph glyph-name="centoldstyle" unicode="&#xf7a2;" horiz-adv-x="430" 
d="M229 87l94 264c-88 -5 -144 -94 -144 -172c0 -43 18 -75 50 -92zM365 345l-97 -268c3 -1 5 -1 7 -1c59 0 86 24 111 45c9 -3 17 -12 15 -22c-34 -48 -94 -76 -153 -78l-25 -71c-11 -10 -37 -10 -44 0l26 71c-92 10 -140 69 -140 152c0 126 118 220 262 220c4 0 8 0 11 -1
l21 60c8 9 34 9 44 0l-22 -63c26 -3 49 -9 68 -18c5 -6 6 -16 6 -25c-1 -20 -14 -64 -26 -64c-6 0 -8 4 -11 8c-11 19 -27 43 -53 55z" />
    <glyph glyph-name="figuredash" unicode="&#x2012;" horiz-adv-x="520" 
d="M112 349h436l-22 -69h-436z" />
    <glyph glyph-name="hypheninferior" unicode="&#xf6e5;" horiz-adv-x="280" 
d="M207 4h-209c-13 11 -7 56 9 64h209c13 -8 7 -53 -9 -64z" />
    <glyph glyph-name="oneeighth" unicode="&#x215b;" horiz-adv-x="840" 
d="M621 -7c-82 0 -145 33 -145 99c0 63 53 95 107 109c-20 15 -36 40 -36 70c0 75 68 122 148 122c75 0 125 -39 125 -97c0 -50 -50 -79 -86 -92c35 -21 57 -49 57 -94c0 -72 -72 -117 -170 -117zM617 177c-27 -11 -55 -41 -55 -82c0 -37 26 -67 67 -66c38 0 65 23 65 59
c0 40 -32 67 -77 89zM703 229c16 8 35 37 35 72c0 32 -20 56 -51 56s-51 -24 -51 -52c0 -34 28 -56 67 -76zM88 272l29 4c29 4 35 13 54 68l54 160c12 35 14 50 -14 54l-26 4c-7 5 -5 23 5 28c61 9 134 29 179 50c9 0 14 -3 13 -8c-5 -17 -21 -55 -32 -88l-66 -200
c-17 -51 -14 -64 11 -68l26 -4c4 -6 2 -23 -6 -27c-42 1 -82 2 -120 2c-37 0 -77 -1 -108 -2c-9 4 -7 21 1 27zM741 624l-537 -664c-19 -4 -41 11 -39 34l533 660c19 1 41 -7 43 -30z" />
    <glyph glyph-name="threeeighths" unicode="&#x215c;" horiz-adv-x="840" 
d="M647 -7c-82 0 -145 33 -145 99c0 63 53 95 107 109c-20 15 -36 40 -36 70c0 75 68 122 148 122c75 0 125 -39 125 -97c0 -50 -50 -79 -86 -92c35 -21 57 -49 57 -94c0 -72 -72 -117 -170 -117zM643 177c-27 -11 -55 -41 -55 -82c0 -37 26 -67 67 -66c38 0 65 23 65 59
c0 40 -32 67 -77 89zM729 229c16 8 35 37 35 72c0 32 -20 56 -51 56s-51 -24 -51 -52c0 -34 28 -56 67 -76zM325 640c45 0 98 -23 98 -77c0 -36 -33 -62 -93 -77c-8 -2 -3 -8 5 -9c39 -5 81 -38 81 -94c0 -62 -52 -109 -103 -136c-59 -30 -126 -39 -169 -39
c-42 0 -85 15 -84 55c0 24 18 42 43 42c26 0 40 -29 48 -39c8 -11 20 -18 35 -18c63 0 108 60 108 126c0 34 -22 63 -58 63c-25 0 -49 -13 -63 -25c-19 6 -25 26 -15 40c37 9 94 31 121 48c27 16 40 33 40 53c0 22 -18 35 -44 35c-29 0 -59 -17 -82 -42c-12 -2 -22 5 -20 18
c38 47 91 76 152 76zM771 624l-537 -664c-19 -4 -41 11 -39 34l533 660c19 1 41 -7 43 -30z" />
    <glyph glyph-name="fiveeighths" unicode="&#x215d;" horiz-adv-x="840" 
d="M637 -7c-82 0 -145 33 -145 99c0 63 53 95 107 109c-20 15 -36 40 -36 70c0 75 68 122 148 122c75 0 125 -39 125 -97c0 -50 -50 -79 -86 -92c35 -21 57 -49 57 -94c0 -72 -72 -117 -170 -117zM633 177c-27 -11 -55 -41 -55 -82c0 -37 26 -67 67 -66c38 0 65 23 65 59
c0 40 -32 67 -77 89zM719 229c16 8 35 37 35 72c0 32 -20 56 -51 56s-51 -24 -51 -52c0 -34 28 -56 67 -76zM409 556l-157 -18c-15 -2 -23 -4 -27 -10l-5 -8c-4 -6 5 -12 11 -13c67 -11 168 -35 168 -130c0 -138 -201 -170 -325 -167c-11 8 -11 27 -2 35
c133 6 218 38 218 107c0 56 -64 71 -138 82c-15 2 -18 11 -11 24l76 144c6 12 13 14 38 17l190 21c7 0 12 -5 12 -10c-6 -23 -22 -59 -48 -74zM761 624l-537 -664c-19 -4 -41 11 -39 34l533 660c19 1 41 -7 43 -30z" />
    <glyph glyph-name="seveneighths" unicode="&#x215e;" horiz-adv-x="840" 
d="M630 -7c-82 0 -145 33 -145 99c0 63 53 95 107 109c-20 15 -36 40 -36 70c0 75 68 122 148 122c75 0 125 -39 125 -97c0 -50 -50 -79 -86 -92c35 -21 57 -49 57 -94c0 -72 -72 -117 -170 -117zM626 177c-27 -11 -55 -41 -55 -82c0 -37 26 -67 67 -66c38 0 65 23 65 59
c0 40 -32 67 -77 89zM712 229c16 8 35 37 35 72c0 32 -20 56 -51 56s-51 -24 -51 -52c0 -34 28 -56 67 -76zM284 633h124c41 0 78 0 90 2c7 -1 9 -5 8 -14c-20 -24 -44 -50 -80 -96l-242 -310c-18 -5 -36 8 -37 25l205 256c17 21 27 38 27 48c0 6 -6 9 -18 9h-108
c-33 0 -54 -7 -71 -38c-9 -7 -27 -1 -29 10c25 39 43 87 51 110c19 -1 44 -2 80 -2zM736 624l-537 -664c-19 -4 -41 11 -39 34l533 660c19 1 41 -7 43 -30z" />
    <glyph glyph-name="onethird" unicode="&#x2153;" horiz-adv-x="840" 
d="M86 272l29 4c29 4 35 13 54 68l54 160c12 35 14 50 -14 54l-26 4c-7 5 -5 23 5 28c61 9 134 29 179 50c9 0 14 -3 13 -8c-5 -17 -21 -55 -32 -88l-66 -200c-17 -51 -14 -64 11 -68l26 -4c4 -6 2 -23 -6 -27c-42 1 -82 2 -120 2c-37 0 -77 -1 -108 -2c-9 4 -7 21 1 27z
M751 624l-537 -664c-19 -4 -41 11 -39 34l533 660c19 1 41 -7 43 -30zM713 393c45 0 98 -23 98 -77c0 -36 -33 -62 -93 -77c-8 -2 -3 -8 5 -9c39 -5 81 -38 81 -94c0 -62 -52 -109 -103 -136c-59 -30 -126 -39 -169 -39c-42 0 -85 15 -84 55c0 24 18 42 43 42
c26 0 40 -29 48 -39c8 -11 20 -18 35 -18c63 0 108 60 108 126c0 34 -22 63 -58 63c-25 0 -49 -13 -63 -25c-19 6 -25 26 -15 40c37 9 94 31 121 48c27 16 40 33 40 53c0 22 -18 35 -44 35c-29 0 -59 -17 -82 -42c-12 -2 -22 5 -20 18c38 47 91 76 152 76z" />
    <glyph glyph-name="twothirds" unicode="&#x2154;" horiz-adv-x="840" 
d="M263 247h-118c-40 0 -65 -1 -76 -2c-6 5 -7 13 -3 20c28 19 55 38 118 88c84 67 138 109 138 171c0 31 -18 58 -56 58c-34 0 -66 -27 -87 -59c-12 -3 -23 6 -25 17c31 63 97 100 161 100c67 0 127 -39 127 -110c0 -72 -67 -108 -148 -156l-59 -35c-16 -9 -14 -19 6 -19
h78c33 0 42 3 66 31c7 3 19 2 24 -8c-16 -47 -40 -85 -54 -98c-27 1 -56 2 -92 2zM779 624l-537 -664c-19 -4 -41 11 -39 34l533 660c19 1 41 -7 43 -30zM723 393c45 0 98 -23 98 -77c0 -36 -33 -62 -93 -77c-8 -2 -3 -8 5 -9c39 -5 81 -38 81 -94c0 -62 -52 -109 -103 -136
c-59 -30 -126 -39 -169 -39c-42 0 -85 15 -84 55c0 24 18 42 43 42c26 0 40 -29 48 -39c8 -11 20 -18 35 -18c63 0 108 60 108 126c0 34 -22 63 -58 63c-25 0 -49 -13 -63 -25c-19 6 -25 26 -15 40c37 9 94 31 121 48c27 16 40 33 40 53c0 22 -18 35 -44 35
c-29 0 -59 -17 -82 -42c-12 -2 -22 5 -20 18c38 47 91 76 152 76z" />
    <glyph glyph-name="zerosuperior" unicode="&#x2070;" 
d="M362 708c89 0 131 -61 128 -149c-3 -63 -30 -142 -83 -194c-34 -33 -80 -57 -136 -57c-83 1 -128 62 -124 149c3 72 33 146 85 195c31 29 75 56 130 56zM243 387c0 -18 9 -43 28 -43c20 0 36 21 52 50c37 69 68 177 71 230c1 20 -2 48 -25 48c-43 0 -82 -100 -102 -163
c-14 -45 -24 -91 -24 -122z" />
    <glyph glyph-name="foursuperior" unicode="&#x2074;" 
d="M218 461h71c14 0 16 2 21 17l24 75c5 14 15 19 26 23c21 8 67 17 88 17c8 0 10 -4 7 -10l-34 -105c-5 -15 -5 -17 9 -17h39c11 -4 5 -32 -8 -38h-44c-14 0 -16 -1 -21 -18l-4 -14c-11 -40 -14 -47 19 -50l13 -1c6 -5 4 -23 -5 -27c-44 1 -79 2 -107 2
c-43 0 -77 -1 -110 -2c-10 4 -6 22 1 27l20 2c42 4 46 8 58 49l4 14c5 17 5 18 -9 18h-150c-7 4 -7 15 -1 23l309 283c8 8 15 12 24 12h29c11 0 10 -9 -4 -22l-278 -248c-6 -5 -5 -10 13 -10z" />
    <glyph glyph-name="fivesuperior" unicode="&#x2075;" 
d="M444 624l-157 -18c-15 -2 -23 -4 -27 -10l-5 -8c-4 -6 5 -12 11 -13c67 -11 168 -35 168 -130c0 -138 -201 -170 -325 -167c-11 8 -11 27 -2 35c133 6 218 38 218 107c0 56 -64 71 -138 82c-15 2 -18 11 -11 24l76 144c6 12 13 14 38 17l190 21c7 0 12 -5 12 -10
c-6 -23 -22 -59 -48 -74z" />
    <glyph glyph-name="sixsuperior" unicode="&#x2076;" 
d="M296 308c-94 0 -148 55 -148 135c0 69 40 155 117 208c72 50 163 79 261 80c8 -4 11 -21 2 -27c-66 -13 -119 -37 -168 -75c-66 -51 -102 -140 -102 -218c0 -27 9 -67 45 -67c43 0 59 63 59 108c0 27 -8 59 -30 65c-8 2 -16 2 -24 1c-4 4 -6 13 -2 20c12 11 46 24 69 24
c53 0 95 -37 95 -98c0 -89 -75 -156 -174 -156z" />
    <glyph glyph-name="sevensuperior" unicode="&#x2077;" 
d="M314 701h124c41 0 78 0 90 2c7 -1 9 -5 8 -14c-20 -24 -44 -50 -80 -96l-242 -310c-18 -5 -36 8 -37 25l205 256c17 21 27 38 27 48c0 6 -6 9 -18 9h-108c-33 0 -54 -7 -71 -38c-9 -7 -27 -1 -29 10c25 39 43 87 51 110c19 -1 44 -2 80 -2z" />
    <glyph glyph-name="eightsuperior" unicode="&#x2078;" 
d="M279 308c-82 0 -145 33 -145 99c0 63 53 95 107 109c-20 15 -36 40 -36 70c0 75 68 122 148 122c75 0 125 -39 125 -97c0 -50 -50 -79 -86 -92c35 -21 57 -49 57 -94c0 -72 -72 -117 -170 -117zM275 492c-27 -11 -55 -41 -55 -82c0 -37 26 -67 67 -66c38 0 65 23 65 59
c0 40 -32 67 -77 89zM361 544c16 8 35 37 35 72c0 32 -20 56 -51 56s-51 -24 -51 -52c0 -34 28 -56 67 -76z" />
    <glyph glyph-name="ninesuperior" unicode="&#x2079;" 
d="M108 278c-13 5 -14 25 -1 31c71 14 134 42 180 81c58 49 92 142 92 218c0 39 -13 64 -40 64c-37 0 -61 -58 -61 -115c0 -41 16 -63 47 -68c3 -4 4 -13 0 -17c-14 -11 -34 -17 -55 -17c-60 0 -100 38 -100 100c0 83 74 153 167 153c94 0 150 -51 150 -145
c0 -79 -50 -170 -141 -221c-69 -39 -169 -62 -238 -64z" />
    <glyph glyph-name="zeroinferior" unicode="&#x2080;" 
d="M201 222c89 0 131 -61 128 -149c-3 -63 -30 -142 -83 -194c-34 -33 -80 -57 -136 -57c-83 1 -128 62 -124 149c3 72 33 146 85 195c31 29 75 56 130 56zM82 -99c0 -18 9 -43 28 -43c20 0 36 21 52 50c37 69 68 177 71 230c1 20 -2 48 -25 48c-43 0 -82 -100 -102 -163
c-14 -45 -24 -91 -24 -122z" />
    <glyph glyph-name="oneinferior" unicode="&#x2081;" 
d="M-8 -146l29 4c29 4 35 13 54 68l54 160c12 35 14 50 -14 54l-26 4c-7 5 -5 23 5 28c61 9 134 29 179 50c9 0 14 -3 13 -8c-5 -17 -21 -55 -32 -88l-66 -200c-17 -51 -14 -64 11 -68l26 -4c4 -6 2 -23 -6 -27c-42 1 -82 2 -120 2c-37 0 -77 -1 -108 -2c-9 4 -7 21 1 27z
" />
    <glyph glyph-name="twoinferior" unicode="&#x2082;" 
d="M137 -171h-118c-40 0 -65 -1 -76 -2c-6 5 -7 13 -3 20c28 19 55 38 118 88c84 67 138 109 138 171c0 31 -18 58 -56 58c-34 0 -66 -27 -87 -59c-12 -3 -23 6 -25 17c31 63 97 100 161 100c67 0 127 -39 127 -110c0 -72 -67 -108 -148 -156l-59 -35c-16 -9 -14 -19 6 -19
h78c33 0 42 3 66 31c7 3 19 2 24 -8c-16 -47 -40 -85 -54 -98c-27 1 -56 2 -92 2z" />
    <glyph glyph-name="threeinferior" unicode="&#x2083;" 
d="M199 222c45 0 98 -23 98 -77c0 -36 -33 -62 -93 -77c-8 -2 -3 -8 5 -9c39 -5 81 -38 81 -94c0 -62 -52 -109 -103 -136c-59 -30 -126 -39 -169 -39c-42 0 -85 15 -84 55c0 24 18 42 43 42c26 0 40 -29 48 -39c8 -11 20 -18 35 -18c63 0 108 60 108 126
c0 34 -22 63 -58 63c-25 0 -49 -13 -63 -25c-19 6 -25 26 -15 40c37 9 94 31 121 48c27 16 40 33 40 53c0 22 -18 35 -44 35c-29 0 -59 -17 -82 -42c-12 -2 -22 5 -20 18c38 47 91 76 152 76z" />
    <glyph glyph-name="fourinferior" unicode="&#x2084;" 
d="M57 -25h71c14 0 16 2 21 17l24 75c5 14 15 19 26 23c21 8 67 17 88 17c8 0 10 -4 7 -10l-34 -105c-5 -15 -5 -17 9 -17h39c11 -4 5 -32 -8 -38h-44c-14 0 -16 -1 -21 -18l-4 -14c-11 -40 -14 -47 19 -50l13 -1c6 -5 4 -23 -5 -27c-44 1 -79 2 -107 2
c-43 0 -77 -1 -110 -2c-10 4 -6 22 1 27l20 2c42 4 46 8 58 49l4 14c5 17 5 18 -9 18h-150c-7 4 -7 15 -1 23l309 283c8 8 15 12 24 12h29c11 0 10 -9 -4 -22l-278 -248c-6 -5 -5 -10 13 -10z" />
    <glyph glyph-name="fiveinferior" unicode="&#x2085;" 
d="M283 138l-157 -18c-15 -2 -23 -4 -27 -10l-5 -8c-4 -6 5 -12 11 -13c67 -11 168 -35 168 -130c0 -138 -201 -170 -325 -167c-11 8 -11 27 -2 35c133 6 218 38 218 107c0 56 -64 71 -138 82c-15 2 -18 11 -11 24l76 144c6 12 13 14 38 17l190 21c7 0 12 -5 12 -10
c-6 -23 -22 -59 -48 -74z" />
    <glyph glyph-name="sixinferior" unicode="&#x2086;" 
d="M135 -178c-94 0 -148 55 -148 135c0 69 40 155 117 208c72 50 163 79 261 80c8 -4 11 -21 2 -27c-66 -13 -119 -37 -168 -75c-66 -51 -102 -140 -102 -218c0 -27 9 -67 45 -67c43 0 59 63 59 108c0 27 -8 59 -30 65c-8 2 -16 2 -24 1c-4 4 -6 13 -2 20c12 11 46 24 69 24
c53 0 95 -37 95 -98c0 -89 -75 -156 -174 -156z" />
    <glyph glyph-name="seveninferior" unicode="&#x2087;" 
d="M153 215h124c41 0 78 0 90 2c7 -1 9 -5 8 -14c-20 -24 -44 -50 -80 -96l-242 -310c-18 -5 -36 8 -37 25l205 256c17 21 27 38 27 48c0 6 -6 9 -18 9h-108c-33 0 -54 -7 -71 -38c-9 -7 -27 -1 -29 10c25 39 43 87 51 110c19 -1 44 -2 80 -2z" />
    <glyph glyph-name="eightinferior" unicode="&#x2088;" 
d="M118 -178c-82 0 -145 33 -145 99c0 63 53 95 107 109c-20 15 -36 40 -36 70c0 75 68 122 148 122c75 0 125 -39 125 -97c0 -50 -50 -79 -86 -92c35 -21 57 -49 57 -94c0 -72 -72 -117 -170 -117zM114 6c-27 -11 -55 -41 -55 -82c0 -37 26 -67 67 -66c38 0 65 23 65 59
c0 40 -32 67 -77 89zM200 58c16 8 35 37 35 72c0 32 -20 56 -51 56s-51 -24 -51 -52c0 -34 28 -56 67 -76z" />
    <glyph glyph-name="nineinferior" unicode="&#x2089;" 
d="M-53 -208c-13 5 -14 25 -1 31c71 14 134 42 180 81c58 49 92 142 92 218c0 39 -13 64 -40 64c-37 0 -61 -58 -61 -115c0 -41 16 -63 47 -68c3 -4 4 -13 0 -17c-14 -11 -34 -17 -55 -17c-60 0 -100 38 -100 100c0 83 74 153 167 153c94 0 150 -51 150 -145
c0 -79 -50 -170 -141 -221c-69 -39 -169 -62 -238 -64z" />
    <glyph glyph-name="centinferior" unicode="&#xf6df;" 
d="M157 -80l90 247c-84 -1 -139 -86 -139 -160c0 -41 18 -73 49 -87zM320 260l-22 -59c24 -3 44 -8 61 -16c4 -6 5 -15 5 -23c-1 -19 -13 -60 -24 -60c-5 0 -7 4 -10 8c-10 17 -24 39 -47 49l-90 -247c1 -1 3 -1 4 -1c55 0 80 22 103 42c9 -3 16 -11 14 -21
c-31 -44 -85 -69 -140 -72l-24 -66c-10 -9 -32 -9 -39 0l24 66c-88 8 -133 63 -133 141c0 117 110 204 243 204c5 0 11 0 16 -1l20 56c7 9 30 9 39 0z" />
    <glyph glyph-name="dollarinferior" unicode="&#xf6e3;" 
d="M171 -16l-45 -118c4 -1 6 -1 9 -1c42 0 80 19 82 57c1 32 -22 50 -46 62zM246 182l-40 -107l7 -3c52 -22 95 -58 93 -120c-3 -76 -70 -123 -185 -123c-3 0 -6 0 -9 1l-20 -52c-8 -7 -31 -7 -39 0l21 55c-56 8 -96 31 -106 49c-8 21 -6 59 5 105c4 10 25 10 30 0
c5 -54 40 -96 86 -114l48 126c-50 20 -101 47 -99 111c3 74 77 119 174 119h12l17 45c9 7 30 7 40 0l-19 -50c14 -2 28 -5 41 -10c10 -3 21 -7 33 -12c7 -25 7 -56 0 -103c-7 -7 -23 -9 -30 0c-7 42 -27 70 -60 83zM171 89l38 100c-3 1 -6 1 -9 1c-54 0 -78 -28 -79 -53
c0 -16 11 -31 50 -48z" />
    <glyph glyph-name="periodinferior" unicode="&#xf6e7;" horiz-adv-x="210" 
d="M33 -38c31 0 54 -22 55 -56c1 -39 -27 -77 -70 -77c-32 0 -54 21 -54 56c0 37 27 77 69 77z" />
    <glyph glyph-name="commainferior" unicode="&#xf6e1;" horiz-adv-x="210" 
d="M20 -23c31 0 72 -31 74 -88c4 -85 -74 -148 -176 -170c-10 4 -18 20 -7 30c49 16 102 51 102 92c0 32 -24 42 -35 49c-13 7 -21 20 -20 36c1 26 26 51 62 51z" />
    <glyph glyph-name="commaaccent" unicode="&#xf6c3;" horiz-adv-x="380" 
d="M224 -42c32 0 75 -29 75 -92c0 -71 -68 -132 -167 -157c-13 8 -16 24 -8 33c46 14 88 50 88 85c0 20 -11 33 -29 42c-11 6 -16 17 -16 33c0 28 25 56 57 56z" />
    <glyph glyph-name="Abreve" unicode="&#x102;" horiz-adv-x="600" 
d="M353 226h-119c-30 0 -32 1 -44 -20l-62 -107c-17 -30 -20 -40 -20 -46c0 -8 7 -13 25 -16l27 -4c10 -7 7 -31 -5 -36c-50 2 -82 3 -126 3c-35 0 -68 -1 -96 -3c-14 5 -14 29 -5 36l24 4c50 8 62 17 113 91c89 132 180 264 269 396c31 47 60 90 64 109c56 4 103 43 104 43
h2c10 0 18 -5 18 -16c0 -177 -7 -355 -7 -532c0 -70 0 -87 48 -93l24 -3c8 -6 6 -31 -3 -35c-37 2 -91 3 -141 3c-56 0 -101 -1 -132 -3c-13 4 -11 28 -5 35l23 3c46 6 51 19 52 43l4 127c1 20 -1 21 -32 21zM270 279h91c24 0 25 2 26 27l6 123c1 30 0 73 0 92h-2
c-15 -24 -34 -56 -58 -93l-82 -127c-12 -18 -9 -22 19 -22zM473 720c-93 0 -131 53 -108 151c8 4 19 4 29 0c-1 -56 30 -78 89 -78c54 0 98 22 121 78c10 4 20 4 30 0c-15 -98 -64 -151 -161 -151z" />
    <glyph glyph-name="Amacron" unicode="&#x100;" horiz-adv-x="600" 
d="M353 226h-119c-30 0 -32 1 -44 -20l-62 -107c-17 -30 -20 -40 -20 -46c0 -8 7 -13 25 -16l27 -4c10 -7 7 -31 -5 -36c-50 2 -82 3 -126 3c-35 0 -68 -1 -96 -3c-14 5 -14 29 -5 36l24 4c50 8 62 17 113 91c89 132 180 264 269 396c31 47 60 90 64 109c56 4 103 43 104 43
h2c10 0 18 -5 18 -16c0 -177 -7 -355 -7 -532c0 -70 0 -87 48 -93l24 -3c8 -6 6 -31 -3 -35c-37 2 -91 3 -141 3c-56 0 -101 -1 -132 -3c-13 4 -11 28 -5 35l23 3c46 6 51 19 52 43l4 127c1 20 -1 21 -32 21zM270 279h91c24 0 25 2 26 27l6 123c1 30 0 73 0 92h-2
c-15 -24 -34 -56 -58 -93l-82 -127c-12 -18 -9 -22 19 -22zM601 725h-253c-12 16 -10 57 8 69h253c13 -16 7 -53 -8 -69z" />
    <glyph glyph-name="Aogonek" unicode="&#x104;" horiz-adv-x="600" 
d="M270 279h91c24 0 25 2 26 27l6 123c1 30 0 73 0 92h-2c-15 -24 -34 -56 -58 -93l-82 -127c-12 -18 -9 -22 19 -22zM353 226h-119c-30 0 -32 1 -44 -20l-62 -107c-17 -30 -20 -40 -20 -46c0 -8 7 -13 25 -16l27 -4c10 -7 7 -31 -5 -36c-50 2 -82 3 -126 3
c-35 0 -68 -1 -96 -3c-14 5 -14 29 -5 36l24 4c50 8 62 17 113 91c89 132 180 264 269 396c31 47 60 90 64 109c56 4 103 43 104 43h2c10 0 18 -5 18 -16c0 -177 -7 -355 -7 -532c0 -70 0 -87 48 -93l24 -3c8 -6 6 -31 -3 -35c-37 2 -91 3 -111 3c-52 -38 -93 -86 -93 -138
c0 -35 23 -56 54 -56c20 0 36 5 53 16c7 -2 9 -11 8 -20c-34 -40 -82 -55 -120 -55c-47 0 -86 25 -86 83c0 75 69 138 126 168c-79 1 -92 0 -104 -1c-13 4 -11 28 -5 35l23 3c46 6 51 19 52 43l4 127c1 20 -1 21 -32 21z" />
    <glyph glyph-name="Cacute" unicode="&#x106;" horiz-adv-x="658" 
d="M97 247c1 130 68 246 143 313c64 57 173 116 324 116c100 0 170 -25 200 -37c-22 -50 -35 -102 -49 -155c-7 -11 -34 -11 -38 0c9 102 -29 146 -122 146c-171 0 -306 -206 -306 -391c0 -163 82 -209 156 -209c83 0 141 51 210 143c11 8 34 5 37 -6
c-19 -60 -55 -132 -71 -158c-38 -4 -92 -25 -179 -25c-205 0 -306 113 -305 263zM441 730l157 118c16 12 26 16 32 16c10 0 21 -8 33 -30c11 -20 12 -35 10 -42s-11 -18 -31 -24l-190 -62c-8 3 -14 14 -11 24z" />
    <glyph glyph-name="Ccaron" unicode="&#x10c;" horiz-adv-x="658" 
d="M97 247c1 130 68 246 143 313c64 57 173 116 324 116c100 0 170 -25 200 -37c-22 -50 -35 -102 -49 -155c-7 -11 -34 -11 -38 0c9 102 -29 146 -122 146c-171 0 -306 -206 -306 -391c0 -163 82 -209 156 -209c83 0 141 51 210 143c11 8 34 5 37 -6
c-19 -60 -55 -132 -71 -158c-38 -4 -92 -25 -179 -25c-205 0 -306 113 -305 263zM403 877l119 -64c13 -7 22 -8 39 0l141 64c10 0 19 -18 15 -31l-165 -127c-19 -14 -36 -15 -49 0l-117 129c0 13 10 28 17 29z" />
    <glyph glyph-name="Dcaron" unicode="&#x10e;" horiz-adv-x="771" 
d="M120 144l118 377c21 68 23 84 -12 92l-29 7c-9 8 -6 29 6 34c54 5 123 9 218 9c110 -1 196 -17 262 -61c65 -44 109 -119 109 -218c0 -93 -38 -184 -102 -250c-122 -125 -296 -140 -402 -140c-29 0 -56 2 -79 3c-23 2 -43 3 -60 3c-48 0 -93 -1 -143 -3c-10 6 -9 32 5 34
l29 5c43 7 51 15 80 108zM389 571l-131 -416c-12 -37 -14 -54 -14 -70c-1 -27 22 -45 66 -45c50 0 119 12 196 76c96 79 136 203 136 298c0 69 -20 203 -193 203c-42 0 -47 -3 -60 -46zM380 877l119 -64c13 -7 22 -8 39 0l141 64c10 0 19 -18 15 -31l-165 -127
c-19 -14 -36 -15 -49 0l-117 129c0 13 10 28 17 29z" />
    <glyph glyph-name="Dcroat" unicode="&#x110;" horiz-adv-x="777" 
d="M92 370h105l47 151c21 68 23 84 -12 92l-29 7c-9 8 -6 29 6 34c54 5 123 9 220 9c108 -1 196 -17 261 -61s108 -119 108 -218c0 -93 -38 -184 -102 -250c-122 -125 -296 -140 -402 -140c-29 0 -56 2 -79 3c-23 2 -43 3 -60 3c-48 0 -93 -1 -143 -3c-10 6 -9 32 5 34l29 5
c43 7 51 15 80 108l54 173h-100c-8 12 -2 43 12 53zM432 317h-117l-51 -162c-12 -37 -14 -54 -14 -70c-1 -27 22 -45 66 -45c50 0 119 12 196 76c96 79 136 203 136 298c0 69 -20 203 -193 203c-42 0 -47 -3 -60 -46l-63 -201h112c6 -14 4 -45 -12 -53z" />
    <glyph glyph-name="Ecaron" unicode="&#x11a;" horiz-adv-x="596" 
d="M336 660h222c64 0 121 1 136 3c-7 -17 -33 -89 -51 -157c-5 -11 -31 -12 -38 -4c3 36 0 65 -4 77c-8 23 -34 35 -84 35h-78c-34 0 -37 -2 -49 -40l-55 -174c-9 -28 -7 -30 19 -30h66c52 0 65 8 91 56l13 24c10 9 35 8 38 -1c-12 -31 -24 -68 -37 -106
c-12 -38 -21 -74 -30 -106c-8 -8 -34 -9 -38 -1l3 25c6 48 -4 56 -56 56h-66c-26 0 -30 -3 -38 -30l-38 -122c-15 -47 -22 -78 -14 -95c9 -17 25 -24 98 -24c87 0 122 3 204 115c11 8 34 6 40 -6c-17 -50 -55 -131 -77 -158c-31 1 -71 2 -113 2c-42 1 -87 1 -128 1h-130
c-50 0 -95 -1 -145 -3c-10 6 -9 31 5 35l34 5c47 7 55 14 84 107l117 372c25 81 26 100 -21 108l-24 4c-9 7 -7 30 7 35c47 -2 98 -3 137 -3zM354 877l119 -64c13 -7 22 -7 38 0l142 64c10 0 19 -18 14 -31l-165 -127c-18 -14 -35 -14 -48 0l-118 129c0 13 10 28 18 29z" />
    <glyph glyph-name="Edotaccent" unicode="&#x116;" horiz-adv-x="596" 
d="M336 660h222c64 0 121 1 136 3c-7 -17 -33 -89 -51 -157c-5 -11 -31 -12 -38 -4c3 36 0 65 -4 77c-8 23 -34 35 -84 35h-78c-34 0 -37 -2 -49 -40l-55 -174c-9 -28 -7 -30 19 -30h66c52 0 65 8 91 56l13 24c10 9 35 8 38 -1c-12 -31 -24 -68 -37 -106
c-12 -38 -21 -74 -30 -106c-8 -8 -34 -9 -38 -1l3 25c6 48 -4 56 -56 56h-66c-26 0 -30 -3 -38 -30l-38 -122c-15 -47 -22 -78 -14 -95c9 -17 25 -24 98 -24c87 0 122 3 204 115c11 8 34 6 40 -6c-17 -50 -55 -131 -77 -158c-31 1 -71 2 -113 2c-42 1 -87 1 -128 1h-130
c-50 0 -95 -1 -145 -3c-10 6 -9 31 5 35l34 5c47 7 55 14 84 107l117 372c25 81 26 100 -21 108l-24 4c-9 7 -7 30 7 35c47 -2 98 -3 137 -3zM468 712c-36 0 -59 25 -54 62c4 35 32 61 68 61c34 0 60 -26 54 -64c-5 -34 -33 -59 -68 -59z" />
    <glyph glyph-name="Emacron" unicode="&#x112;" horiz-adv-x="596" 
d="M336 660h222c64 0 121 1 136 3c-7 -17 -33 -89 -51 -157c-5 -11 -31 -12 -38 -4c3 36 0 65 -4 77c-8 23 -34 35 -84 35h-78c-34 0 -37 -2 -49 -40l-55 -174c-9 -28 -7 -30 19 -30h66c52 0 65 8 91 56l13 24c10 9 35 8 38 -1c-12 -31 -24 -68 -37 -106
c-12 -38 -21 -74 -30 -106c-8 -8 -34 -9 -38 -1l3 25c6 48 -4 56 -56 56h-66c-26 0 -30 -3 -38 -30l-38 -122c-15 -47 -22 -78 -14 -95c9 -17 25 -24 98 -24c87 0 122 3 204 115c11 8 34 6 40 -6c-17 -50 -55 -131 -77 -158c-31 1 -71 2 -113 2c-42 1 -87 1 -128 1h-130
c-50 0 -95 -1 -145 -3c-10 6 -9 31 5 35l34 5c47 7 55 14 84 107l117 372c25 81 26 100 -21 108l-24 4c-9 7 -7 30 7 35c47 -2 98 -3 137 -3zM599 725h-253c-12 16 -10 57 8 69h253c13 -16 7 -53 -8 -69z" />
    <glyph glyph-name="Eogonek" unicode="&#x118;" horiz-adv-x="596" 
d="M272 0h-130c-50 0 -95 -1 -145 -3c-10 6 -9 31 5 35l34 5c47 7 55 14 84 107l117 372c25 81 26 100 -21 108l-24 4c-9 7 -7 30 7 35c24 -1 48 -1 72 -2c23 0 46 -1 65 -1h222c64 0 121 1 136 3c-7 -17 -33 -89 -51 -157c-5 -11 -31 -12 -38 -4c3 36 0 65 -4 77
c-8 23 -34 35 -84 35h-78c-34 0 -37 -2 -49 -40l-55 -174c-9 -28 -7 -30 19 -30h66c52 0 65 8 91 56l13 24c10 9 35 8 38 -1c-12 -31 -24 -68 -37 -106c-12 -38 -21 -74 -30 -106c-8 -8 -34 -9 -38 -1l3 25c6 48 -4 56 -56 56h-66c-26 0 -30 -3 -38 -30l-38 -122
c-15 -47 -22 -78 -14 -95c9 -17 25 -24 98 -24c87 0 122 3 204 115c11 8 34 6 40 -6c-17 -50 -55 -131 -77 -158h-22c-51 -36 -110 -84 -110 -145c5 -30 23 -46 54 -46c20 0 36 5 53 16c7 -2 9 -11 8 -20c-32 -40 -75 -55 -115 -55c-47 0 -91 23 -91 76c0 76 91 146 146 175
c-9 1 -22 1 -36 1c-42 1 -87 1 -128 1z" />
    <glyph glyph-name="Gbreve" unicode="&#x11e;" horiz-adv-x="756" 
d="M750 265l-24 -4c-32 -5 -38 -18 -53 -70l-22 -76c-13 -45 -19 -64 0 -68c3 -4 1 -21 -10 -24c-19 -3 -53 -11 -67 -15c-46 -15 -114 -24 -164 -24c-211 0 -308 112 -308 270c0 124 62 234 140 302c68 59 179 120 345 120c99 0 169 -23 204 -37c-22 -50 -37 -104 -50 -157
c-7 -11 -33 -11 -37 0c10 102 -29 148 -128 148c-178 0 -324 -205 -324 -401c0 -152 86 -199 173 -199c54 0 71 13 89 74l26 86c16 53 4 63 -43 70l-32 5c-12 6 -9 29 3 35c68 -2 118 -3 166 -3c40 0 90 1 117 3c11 -6 8 -29 -1 -35zM561 720c-85 0 -119 48 -98 137
c7 4 17 4 26 0c-4 -50 27 -70 81 -70c49 0 89 20 110 70c9 4 18 4 27 0c-13 -89 -58 -137 -146 -137z" />
    <glyph glyph-name="Gcommaaccent" unicode="&#x122;" horiz-adv-x="756" 
d="M750 265l-24 -4c-32 -5 -38 -18 -53 -70l-22 -76c-13 -45 -19 -64 0 -68c3 -4 1 -21 -10 -24c-19 -3 -53 -11 -67 -15c-46 -15 -114 -24 -164 -24c-211 0 -308 112 -308 270c0 124 62 234 140 302c68 59 179 120 345 120c99 0 169 -23 204 -37c-22 -50 -37 -104 -50 -157
c-7 -11 -33 -11 -37 0c10 102 -29 148 -128 148c-178 0 -324 -205 -324 -401c0 -152 86 -199 173 -199c54 0 71 13 89 74l26 86c16 53 4 63 -43 70l-32 5c-12 6 -9 29 3 35c68 -2 118 -3 166 -3c40 0 90 1 117 3c11 -6 8 -29 -1 -35zM355 -32c29 0 68 -26 68 -83
c0 -65 -62 -117 -151 -139c-12 3 -15 18 -8 26c42 13 80 45 80 77c0 18 -10 29 -26 38c-10 5 -15 16 -15 30c0 26 23 51 52 51z" />
    <glyph glyph-name="Imacron" unicode="&#x12a;" horiz-adv-x="366" 
d="M280 37l28 -5c6 -6 3 -29 -7 -35c-53 2 -104 3 -150 3c-50 0 -95 -1 -145 -3c-10 6 -9 32 7 35l27 5c43 8 51 14 80 107l117 372c25 81 26 98 -25 107l-28 5c-7 6 -6 30 7 35c56 -2 106 -3 154 -3c46 0 91 1 141 3c10 -6 8 -31 -5 -35l-29 -5c-43 -7 -51 -14 -80 -107
l-117 -372c-26 -81 -26 -98 25 -107zM484 725h-253c-12 16 -10 57 8 70h253c13 -17 7 -58 -8 -70z" />
    <glyph glyph-name="Iogonek" unicode="&#x12e;" horiz-adv-x="366" 
d="M120 144l117 372c25 81 26 98 -25 107l-28 5c-7 6 -6 30 7 35c56 -2 106 -3 154 -3c46 0 91 1 141 3c10 -6 8 -31 -5 -35l-29 -5c-43 -7 -51 -14 -80 -107l-117 -372c-26 -81 -26 -98 25 -107l28 -5c6 -6 3 -29 -7 -35c-37 1 -73 2 -105 2c-33 -37 -75 -80 -75 -142
c5 -35 23 -51 54 -51c20 0 36 5 53 16c7 -2 9 -11 8 -20c-32 -40 -75 -55 -115 -55c-47 0 -91 28 -91 86c0 71 78 137 111 167c-46 0 -88 -1 -135 -3c-10 6 -9 32 7 35l27 5c43 8 51 14 80 107z" />
    <glyph glyph-name="Kcommaaccent" unicode="&#x136;" horiz-adv-x="692" 
d="M120 144l117 372c25 81 26 98 -25 107l-27 5c-10 6 -7 29 5 35c55 -2 105 -3 153 -3s93 1 142 3c11 -6 9 -31 -4 -35l-29 -4c-43 -6 -51 -15 -80 -108l-41 -130c-6 -19 -6 -29 4 -29c30 0 63 28 100 62l122 115c7 7 52 52 60 61c8 8 11 14 11 18c0 5 -5 8 -17 11l-21 5
c-8 8 -9 28 6 34c56 -2 90 -3 133 -3c52 0 93 1 122 3c13 -4 12 -28 2 -35c-27 -5 -54 -9 -91 -22c-44 -16 -116 -72 -178 -125l-69 -59c-17 -14 -37 -35 -37 -43c0 -6 4 -20 10 -37c34 -90 74 -178 113 -265c13 -29 28 -37 52 -41l27 -4c8 -8 5 -29 -3 -35
c-46 2 -93 3 -140 3c-43 0 -85 -1 -133 -3c-12 6 -13 29 -3 35l31 6c23 4 26 14 22 28c-5 19 -29 76 -36 94l-32 79c-24 58 -32 78 -54 78c-23 0 -29 -21 -44 -68l-33 -105c-26 -81 -26 -100 25 -108l26 -4c8 -6 6 -29 -4 -35c-54 2 -105 3 -153 3s-93 -1 -143 -3
c-10 6 -9 31 5 35l29 5c43 7 51 14 80 107zM323 -32c29 0 68 -26 68 -83c0 -65 -62 -117 -151 -139c-12 3 -15 18 -8 26c42 13 80 45 80 77c0 18 -10 29 -26 38c-10 5 -15 16 -15 30c0 26 23 51 52 51z" />
    <glyph glyph-name="Lacute" unicode="&#x139;" horiz-adv-x="582" 
d="M373 516l-111 -351c-15 -47 -19 -76 -13 -94s24 -25 92 -25c87 0 122 3 204 115c11 8 35 6 40 -6c-16 -50 -55 -131 -76 -158c-31 1 -71 1 -114 2c-42 0 -87 1 -128 1h-115c-48 0 -93 -1 -146 -3c-11 6 -12 31 2 35l33 5c43 7 51 14 80 107l117 372c25 81 26 100 -25 108
l-26 4c-10 6 -6 31 7 35c52 -2 104 -3 152 -3s93 1 136 3c12 -6 10 -31 -3 -35l-26 -5c-43 -8 -51 -14 -80 -107zM368 730l157 118c16 12 26 16 32 16c10 0 21 -8 33 -30c11 -20 12 -35 10 -42s-11 -18 -31 -24l-190 -62c-8 3 -14 14 -11 24z" />
    <glyph glyph-name="Lcaron" unicode="&#x13d;" horiz-adv-x="582" 
d="M373 516l-111 -351c-15 -47 -19 -76 -13 -94s24 -25 92 -25c87 0 122 3 204 115c11 8 35 6 40 -6c-16 -50 -55 -131 -76 -158c-31 1 -71 1 -114 2c-42 0 -87 1 -128 1h-115c-48 0 -93 -1 -146 -3c-11 6 -12 31 2 35l33 5c43 7 51 14 80 107l117 372c25 81 26 100 -25 108
l-26 4c-10 6 -6 31 7 35c52 -2 104 -3 152 -3s93 1 136 3c12 -6 10 -31 -3 -35l-26 -5c-43 -8 -51 -14 -80 -107zM606 700c31 0 71 -28 71 -89c0 -69 -65 -126 -156 -148c-13 3 -16 19 -9 28c44 13 83 48 83 83c0 19 -10 30 -27 40c-9 5 -15 17 -15 31c0 28 23 55 53 55z
" />
    <glyph glyph-name="Lcommaaccent" unicode="&#x13b;" horiz-adv-x="582" 
d="M373 516l-111 -351c-15 -47 -19 -76 -13 -94s24 -25 92 -25c87 0 122 3 204 115c11 8 35 6 40 -6c-16 -50 -55 -131 -76 -158c-31 1 -71 1 -114 2c-42 0 -87 1 -128 1h-115c-48 0 -93 -1 -146 -3c-11 6 -12 31 2 35l33 5c43 7 51 14 80 107l117 372c25 81 26 100 -25 108
l-26 4c-10 6 -6 31 7 35c52 -2 104 -3 152 -3s93 1 136 3c12 -6 10 -31 -3 -35l-26 -5c-43 -8 -51 -14 -80 -107zM288 -32c29 0 68 -26 68 -83c0 -65 -62 -117 -151 -139c-12 3 -15 18 -8 26c42 13 80 45 80 77c0 18 -10 29 -26 38c-10 5 -15 16 -15 30c0 26 23 51 52 51z
" />
    <glyph glyph-name="Nacute" unicode="&#x143;" horiz-adv-x="722" 
d="M150 251l82 265c25 81 27 101 -24 108l-28 4c-9 6 -5 29 7 35c52 -2 88 -3 126 -3c25 0 58 1 80 3c-5 -38 31 -117 78 -222l47 -104c35 -78 52 -113 63 -134c7 11 16 39 23 62l43 144c19 65 35 125 39 143c10 50 9 65 -42 72l-30 4c-9 9 -6 28 7 35c53 -2 86 -3 124 -3
c43 0 70 1 116 3c8 -6 7 -28 -2 -35l-24 -5c-45 -9 -61 -21 -79 -70c-7 -20 -28 -79 -48 -144l-73 -239c-23 -75 -38 -134 -47 -167c-8 -7 -37 -11 -63 -11c-2 0 -29 77 -57 140l-107 243c-19 44 -51 121 -65 149c-5 -12 -9 -24 -25 -78l-59 -195c-20 -65 -36 -125 -39 -143
c-8 -50 -9 -63 42 -71l30 -5c5 -9 6 -28 -5 -35c-54 2 -88 3 -126 3c-42 0 -70 -1 -115 -3c-9 6 -10 28 2 35l23 5c46 10 62 23 79 70c7 20 27 79 47 144zM473 730l157 118c16 12 26 16 32 16c10 0 21 -8 33 -30c11 -20 12 -35 10 -42s-11 -18 -31 -24l-190 -62
c-8 3 -14 14 -11 24z" />
    <glyph glyph-name="Ncaron" unicode="&#x147;" horiz-adv-x="722" 
d="M150 251l82 265c25 81 27 101 -24 108l-28 4c-9 6 -5 29 7 35c52 -2 88 -3 126 -3c25 0 58 1 80 3c-5 -38 31 -117 78 -222l47 -104c35 -78 52 -113 63 -134c7 11 16 39 23 62l43 144c19 65 35 125 39 143c10 50 9 65 -42 72l-30 4c-9 9 -6 28 7 35c53 -2 86 -3 124 -3
c43 0 70 1 116 3c8 -6 7 -28 -2 -35l-24 -5c-45 -9 -61 -21 -79 -70c-7 -20 -28 -79 -48 -144l-73 -239c-23 -75 -38 -134 -47 -167c-8 -7 -37 -11 -63 -11c-2 0 -29 77 -57 140l-107 243c-19 44 -51 121 -65 149c-5 -12 -9 -24 -25 -78l-59 -195c-20 -65 -36 -125 -39 -143
c-8 -50 -9 -63 42 -71l30 -5c5 -9 6 -28 -5 -35c-54 2 -88 3 -126 3c-42 0 -70 -1 -115 -3c-9 6 -10 28 2 35l23 5c46 10 62 23 79 70c7 20 27 79 47 144zM397 877l119 -64c13 -7 22 -7 38 0l142 64c10 0 19 -18 14 -31l-165 -127c-18 -14 -35 -14 -48 0l-118 129
c0 13 10 28 18 29z" />
    <glyph glyph-name="Ncommaaccent" unicode="&#x145;" horiz-adv-x="722" 
d="M150 251l82 265c25 81 27 101 -24 108l-28 4c-9 6 -5 29 7 35c52 -2 88 -3 126 -3c25 0 58 1 80 3c-5 -38 31 -117 78 -222l47 -104c35 -78 52 -113 63 -134c7 11 16 39 23 62l43 144c19 65 35 125 39 143c10 50 9 65 -42 72l-30 4c-9 9 -6 28 7 35c53 -2 86 -3 124 -3
c43 0 70 1 116 3c8 -6 7 -28 -2 -35l-24 -5c-45 -9 -61 -21 -79 -70c-7 -20 -28 -79 -48 -144l-73 -239c-23 -75 -38 -134 -47 -167c-8 -7 -37 -11 -63 -11c-2 0 -29 77 -57 140l-107 243c-19 44 -51 121 -65 149c-5 -12 -9 -24 -25 -78l-59 -195c-20 -65 -36 -125 -39 -143
c-8 -50 -9 -63 42 -71l30 -5c5 -9 6 -28 -5 -35c-54 2 -88 3 -126 3c-42 0 -70 -1 -115 -3c-9 6 -10 28 2 35l23 5c46 10 62 23 79 70c7 20 27 79 47 144zM338 -32c29 0 68 -26 68 -83c0 -65 -62 -117 -151 -139c-12 3 -15 18 -8 26c42 13 80 45 80 77c0 18 -10 29 -26 38
c-10 5 -15 16 -15 30c0 26 23 51 52 51z" />
    <glyph glyph-name="Ohungarumlaut" unicode="&#x150;" horiz-adv-x="758" 
d="M99 251c0 126 61 254 160 335c83 68 174 90 247 90c122 0 275 -66 275 -282c0 -105 -49 -220 -123 -296c-51 -52 -152 -114 -274 -114c-229 0 -285 158 -285 267zM517 630c-38 0 -75 -18 -107 -43c-80 -64 -168 -226 -168 -390c0 -96 44 -167 128 -167c40 0 90 18 137 72
c91 105 131 241 131 363c0 117 -51 165 -121 165zM603 726l73 134c7 10 15 20 27 20c10 0 24 -7 38 -19c21 -20 24 -30 24 -42c0 -10 -13 -22 -32 -36l-106 -77c-8 0 -22 10 -24 20zM431 726l73 134c7 10 16 20 27 20s24 -6 41 -21c16 -14 22 -28 22 -40
c0 -10 -14 -22 -33 -36l-106 -77c-8 0 -22 10 -24 20z" />
    <glyph glyph-name="Omacron" unicode="&#x14c;" horiz-adv-x="758" 
d="M99 251c0 126 61 254 160 335c83 68 174 90 247 90c122 0 275 -66 275 -282c0 -105 -49 -220 -123 -296c-51 -52 -152 -114 -274 -114c-229 0 -285 158 -285 267zM517 630c-38 0 -75 -18 -107 -43c-80 -64 -168 -226 -168 -390c0 -96 44 -167 128 -167c40 0 90 18 137 72
c91 105 131 241 131 363c0 117 -51 165 -121 165zM680 725h-253c-12 16 -10 57 8 74h253c13 -21 7 -58 -8 -74z" />
    <glyph glyph-name="Racute" unicode="&#x154;" horiz-adv-x="626" 
d="M119 144l120 377c22 68 22 83 -10 91l-32 8c-9 8 -6 29 6 34c59 5 121 9 198 9c82 0 147 -9 195 -32c46 -23 83 -70 83 -135c0 -99 -85 -151 -162 -171c-18 -5 -18 -11 -16 -23c23 -129 42 -220 66 -245c13 -14 41 -20 60 -24c9 -7 6 -24 -3 -31c-20 -5 -49 -6 -92 -6
c-36 0 -63 5 -79 15c-20 13 -39 38 -49 91l-28 146c-7 34 -19 44 -49 44c-25 0 -28 -3 -35 -23l-41 -125c-27 -81 -26 -98 25 -108l26 -5c9 -5 6 -28 -5 -34c-49 2 -99 3 -147 3s-93 -1 -143 -3c-10 6 -11 32 1 34l31 5c43 7 50 15 80 108zM533 511c0 52 -21 106 -94 106
c-38 0 -40 -6 -49 -33l-68 -215c-9 -29 -2 -33 44 -33c95 0 167 87 167 175zM404 731l165 124c17 13 28 17 34 17c10 0 22 -8 35 -32c11 -21 12 -36 10 -44c-2 -7 -11 -18 -32 -25l-200 -65c-8 3 -15 15 -12 25z" />
    <glyph glyph-name="Rcaron" unicode="&#x158;" horiz-adv-x="626" 
d="M119 144l120 377c22 68 22 83 -10 91l-32 8c-9 8 -6 29 6 34c59 5 121 9 198 9c82 0 147 -9 195 -32c46 -23 83 -70 83 -135c0 -99 -85 -151 -162 -171c-18 -5 -18 -11 -16 -23c23 -129 42 -220 66 -245c13 -14 41 -20 60 -24c9 -7 6 -24 -3 -31c-20 -5 -49 -6 -92 -6
c-36 0 -63 5 -79 15c-20 13 -39 38 -49 91l-28 146c-7 34 -19 44 -49 44c-25 0 -28 -3 -35 -23l-41 -125c-27 -81 -26 -98 25 -108l26 -5c9 -5 6 -28 -5 -34c-49 2 -99 3 -147 3s-93 -1 -143 -3c-10 6 -11 32 1 34l31 5c43 7 50 15 80 108zM533 511c0 52 -21 106 -94 106
c-38 0 -40 -6 -49 -33l-68 -215c-9 -29 -2 -33 44 -33c95 0 167 87 167 175zM339 877l119 -64c13 -7 22 -7 38 0l142 64c10 0 19 -18 14 -31l-165 -127c-18 -14 -35 -14 -48 0l-118 129c0 13 10 28 18 29z" />
    <glyph glyph-name="Rcommaaccent" unicode="&#x156;" horiz-adv-x="626" 
d="M119 144l120 377c22 68 22 83 -10 91l-32 8c-9 8 -6 29 6 34c59 5 121 9 198 9c82 0 147 -9 195 -32c46 -23 83 -70 83 -135c0 -99 -85 -151 -162 -171c-18 -5 -18 -11 -16 -23c23 -129 42 -220 66 -245c13 -14 41 -20 60 -24c9 -7 6 -24 -3 -31c-20 -5 -49 -6 -92 -6
c-36 0 -63 5 -79 15c-20 13 -39 38 -49 91l-28 146c-7 34 -19 44 -49 44c-25 0 -28 -3 -35 -23l-41 -125c-27 -81 -26 -98 25 -108l26 -5c9 -5 6 -28 -5 -34c-49 2 -99 3 -147 3s-93 -1 -143 -3c-10 6 -11 32 1 34l31 5c43 7 50 15 80 108zM533 511c0 52 -21 106 -94 106
c-38 0 -40 -6 -49 -33l-68 -215c-9 -29 -2 -33 44 -33c95 0 167 87 167 175zM310 -32c29 0 68 -26 68 -83c0 -65 -62 -117 -151 -139c-12 3 -15 18 -8 26c42 13 80 45 80 77c0 18 -10 29 -26 38c-10 5 -15 16 -15 30c0 26 23 51 52 51z" />
    <glyph glyph-name="Sacute" unicode="&#x15a;" horiz-adv-x="528" 
d="M245 -16c-103 0 -178 46 -201 87c-1 43 6 99 19 145c6 8 32 8 39 -2c2 -28 8 -69 29 -105c30 -53 76 -79 130 -79c62 0 119 42 119 121c0 50 -27 92 -84 133l-25 18c-61 44 -109 100 -109 167c0 128 106 209 245 208c73 -1 140 -22 183 -54c-13 -28 -30 -74 -44 -133
c-8 -12 -33 -9 -39 0c12 73 -22 141 -106 141c-76 0 -120 -58 -120 -108c0 -31 15 -70 85 -117l31 -21c58 -39 114 -98 114 -187c0 -123 -94 -214 -266 -214zM376 730l157 118c16 12 26 16 32 16c10 0 21 -8 33 -30c11 -20 12 -35 10 -42s-11 -18 -31 -24l-190 -62
c-8 3 -14 14 -11 24z" />
    <glyph glyph-name="Scedilla" unicode="&#x15e;" horiz-adv-x="528" 
d="M175 -105l61 90c-98 2 -170 46 -192 86c-1 43 6 99 19 145c6 8 32 8 39 -2c2 -28 8 -69 29 -105c30 -53 76 -79 130 -79c62 0 119 42 119 121c0 50 -27 92 -84 133l-25 18c-61 44 -109 100 -109 167c0 128 106 209 245 208c73 -1 140 -22 183 -54
c-13 -28 -30 -74 -44 -133c-8 -12 -33 -9 -39 0c12 73 -22 141 -106 141c-76 0 -120 -58 -120 -108c0 -31 15 -70 85 -117l31 -21c58 -39 114 -98 114 -187c0 -111 -77 -196 -220 -211l-29 -39c-8 -10 -6 -13 8 -23c23 -18 48 -43 48 -82c0 -55 -62 -92 -126 -92
c-49 0 -77 15 -77 44c0 18 13 32 32 32c27 0 46 -36 67 -36c11 0 26 8 26 25c0 31 -26 56 -61 70z" />
    <glyph glyph-name="Scedilla" unicode="&#xf6c1;" horiz-adv-x="528" 
d="M175 -105l61 90c-98 2 -170 46 -192 86c-1 43 6 99 19 145c6 8 32 8 39 -2c2 -28 8 -69 29 -105c30 -53 76 -79 130 -79c62 0 119 42 119 121c0 50 -27 92 -84 133l-25 18c-61 44 -109 100 -109 167c0 128 106 209 245 208c73 -1 140 -22 183 -54
c-13 -28 -30 -74 -44 -133c-8 -12 -33 -9 -39 0c12 73 -22 141 -106 141c-76 0 -120 -58 -120 -108c0 -31 15 -70 85 -117l31 -21c58 -39 114 -98 114 -187c0 -111 -77 -196 -220 -211l-29 -39c-8 -10 -6 -13 8 -23c23 -18 48 -43 48 -82c0 -55 -62 -92 -126 -92
c-49 0 -77 15 -77 44c0 18 13 32 32 32c27 0 46 -36 67 -36c11 0 26 8 26 25c0 31 -26 56 -61 70z" />
    <glyph glyph-name="Scommaaccent" unicode="&#x218;" horiz-adv-x="528" 
d="M245 -16c-103 0 -178 46 -201 87c-1 43 6 99 19 145c6 8 32 8 39 -2c2 -28 8 -69 29 -105c30 -53 76 -79 130 -79c62 0 119 42 119 121c0 50 -27 92 -84 133l-25 18c-61 44 -109 100 -109 167c0 128 106 209 245 208c73 -1 140 -22 183 -54c-13 -28 -30 -74 -44 -133
c-8 -12 -33 -9 -39 0c12 73 -22 141 -106 141c-76 0 -120 -58 -120 -108c0 -31 15 -70 85 -117l31 -21c58 -39 114 -98 114 -187c0 -123 -94 -214 -266 -214zM231 -52c29 0 68 -26 68 -83c0 -65 -62 -117 -151 -139c-12 3 -15 18 -8 26c42 13 80 45 80 77
c0 18 -10 29 -26 38c-10 5 -15 16 -15 30c0 26 23 51 52 51z" />
    <glyph glyph-name="Tcaron" unicode="&#x164;" horiz-adv-x="645" 
d="M321 660h374c41 0 56 8 70 26c8 6 29 4 33 -3c-19 -39 -51 -125 -62 -173c-7 -10 -34 -10 -40 0c3 36 4 75 -9 86c-19 15 -46 18 -72 18h-44c-30 0 -31 0 -40 -28l-136 -442c-25 -81 -26 -100 25 -107l37 -5c6 -6 3 -29 -6 -35c-63 2 -114 3 -160 3c-48 0 -93 -1 -153 -3
c-10 6 -11 31 3 35l39 5c43 6 51 14 80 107l139 442c8 25 7 28 -26 28h-41c-28 0 -57 -2 -84 -23c-20 -16 -45 -39 -71 -84c-9 -6 -37 -1 -37 12c31 64 58 121 75 167c6 6 19 6 28 1c0 -20 10 -27 78 -27zM379 877l119 -64c13 -7 22 -7 38 0l142 64c10 0 19 -18 14 -31
l-165 -127c-18 -14 -35 -14 -48 0l-118 129c0 13 10 28 18 29z" />
    <glyph glyph-name="Tcommaaccent" unicode="&#x162;" horiz-adv-x="645" 
d="M321 660h374c41 0 56 8 70 26c8 6 29 4 33 -3c-19 -39 -51 -125 -62 -173c-7 -10 -34 -10 -40 0c3 36 4 75 -9 86c-19 15 -46 18 -72 18h-44c-30 0 -31 0 -40 -28l-136 -442c-25 -81 -26 -100 25 -107l37 -5c6 -6 3 -29 -6 -35c-63 2 -114 3 -160 3c-48 0 -93 -1 -153 -3
c-10 6 -11 31 3 35l39 5c43 6 51 14 80 107l139 442c8 25 7 28 -26 28h-41c-28 0 -57 -2 -84 -23c-20 -16 -45 -39 -71 -84c-9 -6 -37 -1 -37 12c31 64 58 121 75 167c6 6 19 6 28 1c0 -20 10 -27 78 -27zM285 -32c29 0 68 -26 68 -83c0 -65 -62 -117 -151 -139
c-12 3 -15 18 -8 26c42 13 80 45 80 77c0 18 -10 29 -26 38c-10 5 -15 16 -15 30c0 26 23 51 52 51z" />
    <glyph glyph-name="Tcommaaccent" unicode="&#x21a;" horiz-adv-x="645" 
d="M321 660h374c41 0 56 8 70 26c8 6 29 4 33 -3c-19 -39 -51 -125 -62 -173c-7 -10 -34 -10 -40 0c3 36 4 75 -9 86c-19 15 -46 18 -72 18h-44c-30 0 -31 0 -40 -28l-136 -442c-25 -81 -26 -100 25 -107l37 -5c6 -6 3 -29 -6 -35c-63 2 -114 3 -160 3c-48 0 -93 -1 -153 -3
c-10 6 -11 31 3 35l39 5c43 6 51 14 80 107l139 442c8 25 7 28 -26 28h-41c-28 0 -57 -2 -84 -23c-20 -16 -45 -39 -71 -84c-9 -6 -37 -1 -37 12c31 64 58 121 75 167c6 6 19 6 28 1c0 -20 10 -27 78 -27zM285 -32c29 0 68 -26 68 -83c0 -65 -62 -117 -151 -139
c-12 3 -15 18 -8 26c42 13 80 45 80 77c0 18 -10 29 -26 38c-10 5 -15 16 -15 30c0 26 23 51 52 51z" />
    <glyph glyph-name="Uhungarumlaut" unicode="&#x170;" horiz-adv-x="731" 
d="M468 629l-25 -5c-42 -8 -50 -15 -79 -108l-72 -231c-9 -29 -20 -79 -21 -110c-1 -85 39 -137 129 -137c120 0 177 110 214 230l44 141c20 65 35 125 39 143c10 50 9 63 -42 72l-30 5c-6 9 -6 27 5 34c54 -2 88 -3 126 -3c43 0 70 1 116 3c9 -6 9 -27 -2 -34l-24 -6
c-45 -11 -61 -21 -79 -70c-8 -20 -29 -79 -49 -144l-46 -147c-26 -83 -53 -157 -115 -211c-46 -41 -124 -67 -201 -67c-126 0 -223 44 -223 176c0 28 8 70 19 106l77 250c25 81 26 100 -25 109l-24 4c-10 6 -6 28 9 34c48 -2 97 -3 145 -3c49 0 92 1 139 3
c10 -6 8 -30 -5 -34zM605 726l73 134c7 10 15 20 27 20c10 0 24 -7 38 -19c21 -20 24 -30 24 -42c0 -10 -13 -22 -32 -36l-106 -77c-8 0 -22 10 -24 20zM433 726l73 134c7 10 16 20 27 20s24 -6 41 -21c16 -14 22 -28 22 -40c0 -10 -14 -22 -33 -36l-106 -77
c-8 0 -22 10 -24 20z" />
    <glyph glyph-name="Umacron" unicode="&#x16a;" horiz-adv-x="731" 
d="M468 629l-25 -5c-42 -8 -50 -15 -79 -108l-72 -231c-9 -29 -20 -79 -21 -110c-1 -85 39 -137 129 -137c120 0 177 110 214 230l44 141c20 65 35 125 39 143c10 50 9 63 -42 72l-30 5c-6 9 -6 27 5 34c54 -2 88 -3 126 -3c43 0 70 1 116 3c9 -6 9 -27 -2 -34l-24 -6
c-45 -11 -61 -21 -79 -70c-8 -20 -29 -79 -49 -144l-46 -147c-26 -83 -53 -157 -115 -211c-46 -41 -124 -67 -201 -67c-126 0 -223 44 -223 176c0 28 8 70 19 106l77 250c25 81 26 100 -25 109l-24 4c-10 6 -6 28 9 34c48 -2 97 -3 145 -3c49 0 92 1 139 3
c10 -6 8 -30 -5 -34zM667 725h-253c-12 16 -10 57 8 69h253c13 -16 7 -53 -8 -69z" />
    <glyph glyph-name="Uogonek" unicode="&#x172;" horiz-adv-x="731" 
d="M152 266l77 250c25 81 26 100 -25 109l-24 4c-10 6 -6 28 9 34c48 -2 97 -3 145 -3c49 0 92 1 139 3c10 -6 8 -30 -5 -34l-25 -5c-42 -8 -50 -15 -79 -108l-72 -231c-9 -29 -20 -79 -21 -110c-1 -85 39 -137 129 -137c120 0 177 110 214 230l44 141c20 65 35 125 39 143
c10 50 9 63 -42 72l-30 5c-6 9 -6 27 5 34c54 -2 88 -3 126 -3c43 0 70 1 116 3c9 -6 9 -27 -2 -34l-24 -6c-45 -11 -61 -21 -79 -70c-8 -20 -29 -79 -49 -144l-46 -147c-26 -83 -53 -157 -115 -211c-35 -31 -88 -54 -147 -62c-47 -35 -98 -81 -98 -137c5 -30 23 -46 54 -46
c20 0 36 5 53 16c7 -2 9 -11 8 -20c-32 -40 -75 -55 -115 -55c-47 0 -91 23 -91 76c0 66 68 128 123 162c-120 2 -211 47 -211 175c0 28 8 70 19 106z" />
    <glyph glyph-name="Uring" unicode="&#x16e;" horiz-adv-x="731" 
d="M468 629l-25 -5c-42 -8 -50 -15 -79 -108l-72 -231c-9 -29 -20 -79 -21 -110c-1 -85 39 -137 129 -137c120 0 177 110 214 230l44 141c20 65 35 125 39 143c10 50 9 63 -42 72l-30 5c-6 9 -6 27 5 34c54 -2 88 -3 126 -3c43 0 70 1 116 3c9 -6 9 -27 -2 -34l-24 -6
c-45 -11 -61 -21 -79 -70c-8 -20 -29 -79 -49 -144l-46 -147c-26 -83 -53 -157 -115 -211c-46 -41 -124 -67 -201 -67c-126 0 -223 44 -223 176c0 28 8 70 19 106l77 250c25 81 26 100 -25 109l-24 4c-10 6 -6 28 9 34c48 -2 97 -3 145 -3c49 0 92 1 139 3
c10 -6 8 -30 -5 -34zM560 886c64 0 103 -48 103 -98s-39 -99 -103 -99s-103 49 -103 99s39 98 103 98zM560 850c-29 -2 -45 -30 -45 -63s16 -62 45 -62s45 29 45 62s-16 61 -45 63z" />
    <glyph glyph-name="Zacute" unicode="&#x179;" horiz-adv-x="643" 
d="M513 614h-122c-36 0 -65 -2 -96 -23c-22 -15 -49 -39 -85 -91c-13 -7 -36 -1 -38 12c32 71 60 128 77 176c5 4 20 4 28 1c0 -22 7 -29 77 -29h303c57 0 85 1 101 3c8 -3 10 -15 3 -23c-26 -18 -137 -126 -207 -202l-161 -174c-71 -77 -181 -193 -181 -205
c0 -11 25 -13 91 -13h85c34 0 87 6 111 19c34 19 74 58 107 107c8 8 35 5 38 -7c-19 -55 -59 -143 -83 -168c-42 1 -78 2 -111 2c-33 1 -65 1 -100 1h-259c-49 0 -82 -1 -93 -3c-8 2 -14 10 -10 21c21 17 91 84 133 129l401 432c10 11 16 22 16 28c0 5 -9 7 -25 7zM434 730
l157 118c16 12 26 16 32 16c10 0 21 -8 33 -30c11 -20 12 -35 10 -42s-11 -18 -31 -24l-190 -62c-8 3 -14 14 -11 24z" />
    <glyph glyph-name="Zdotaccent" unicode="&#x17b;" horiz-adv-x="643" 
d="M513 614h-122c-36 0 -65 -2 -96 -23c-22 -15 -49 -39 -85 -91c-13 -7 -36 -1 -38 12c32 71 60 128 77 176c5 4 20 4 28 1c0 -22 7 -29 77 -29h303c57 0 85 1 101 3c8 -3 10 -15 3 -23c-26 -18 -137 -126 -207 -202l-161 -174c-71 -77 -181 -193 -181 -205
c0 -11 25 -13 91 -13h85c34 0 87 6 111 19c34 19 74 58 107 107c8 8 35 5 38 -7c-19 -55 -59 -143 -83 -168c-42 1 -78 2 -111 2c-33 1 -65 1 -100 1h-259c-49 0 -82 -1 -93 -3c-8 2 -14 10 -10 21c21 17 91 84 133 129l401 432c10 11 16 22 16 28c0 5 -9 7 -25 7zM492 712
c-36 0 -59 25 -54 62c4 35 32 61 68 61c34 0 60 -26 54 -64c-5 -34 -33 -59 -68 -59z" />
    <glyph glyph-name="Idotaccent" unicode="&#x130;" horiz-adv-x="366" 
d="M280 37l28 -5c6 -6 3 -29 -7 -35c-53 2 -104 3 -150 3c-50 0 -95 -1 -145 -3c-10 6 -9 32 7 35l27 5c43 8 51 14 80 107l117 372c25 81 26 98 -25 107l-28 5c-7 6 -6 30 7 35c56 -2 106 -3 154 -3c46 0 91 1 141 3c10 -6 8 -31 -5 -35l-29 -5c-43 -7 -51 -14 -80 -107
l-117 -372c-26 -81 -26 -98 25 -107zM353 712c-36 0 -59 25 -54 62c4 35 32 61 68 61c34 0 60 -26 54 -64c-5 -34 -33 -59 -68 -59z" />
    <glyph glyph-name="abreve" unicode="&#x103;" horiz-adv-x="505" 
d="M347 400c10 0 30 -9 44 -23l23 47c6 4 16 7 27 7c12 0 25 -2 37 -6c17 -5 32 -16 37 -26c-38 -94 -82 -205 -120 -316c-4 -13 -5 -21 2 -21c14 0 63 30 94 62c10 0 20 -8 19 -22c-44 -62 -130 -117 -200 -117c-26 0 -39 23 -39 39c0 11 5 26 11 42l30 77h-4
c-59 -78 -155 -157 -228 -157c-31 0 -61 29 -61 62c0 59 59 184 150 266c66 59 125 86 178 86zM367 318c-12 29 -26 38 -42 38c-15 0 -33 -9 -67 -52c-50 -63 -99 -162 -99 -218v-9c1 -10 6 -16 14 -16c22 0 77 59 107 99c36 48 75 125 87 158zM365 475
c-73 0 -114 58 -88 157c9 5 20 5 32 0c-6 -57 32 -88 67 -88c44 0 87 31 103 88c10 5 22 5 32 0c-10 -99 -49 -157 -146 -157z" />
    <glyph glyph-name="amacron" unicode="&#x101;" horiz-adv-x="505" 
d="M347 400c10 0 30 -9 44 -23l23 47c6 4 16 7 27 7c12 0 25 -2 37 -6c17 -5 32 -16 37 -26c-38 -94 -82 -205 -120 -316c-4 -13 -5 -21 2 -21c14 0 63 30 94 62c10 0 20 -8 19 -22c-44 -62 -130 -117 -200 -117c-26 0 -39 23 -39 39c0 11 5 26 11 42l30 77h-4
c-59 -78 -155 -157 -228 -157c-31 0 -61 29 -61 62c0 59 59 184 150 266c66 59 125 86 178 86zM367 318c-12 29 -26 38 -42 38c-15 0 -33 -9 -67 -52c-50 -63 -99 -162 -99 -218v-9c1 -10 6 -16 14 -16c22 0 77 59 107 99c36 48 75 125 87 158zM496 506h-233
c-9 16 -3 60 12 72h233c10 -16 4 -56 -12 -72z" />
    <glyph glyph-name="aogonek" unicode="&#x105;" horiz-adv-x="505" 
d="M367 318c-12 29 -26 38 -42 38c-15 0 -33 -9 -67 -52c-50 -63 -99 -162 -99 -218v-9c1 -10 6 -16 14 -16c22 0 77 59 107 99c36 48 75 125 87 158zM371 -194c20 0 36 5 53 16c7 -2 9 -11 8 -20c-32 -40 -75 -55 -115 -55c-47 0 -91 23 -91 76c0 58 56 113 128 169
c-7 -2 -15 -4 -22 -5c-8 -1 -15 -2 -22 -2c-26 0 -39 23 -39 39c0 11 5 26 11 42l30 77h-4c-59 -78 -155 -157 -228 -157c-31 0 -61 29 -61 62c0 59 59 184 150 266c66 59 125 86 178 86c10 0 30 -9 44 -23l23 47c6 4 16 7 27 7c12 0 25 -2 37 -6c17 -5 32 -16 37 -26
c-38 -94 -82 -205 -120 -316c-4 -13 -5 -21 2 -21c14 0 63 30 94 62c10 0 20 -8 19 -22c-17 -24 -41 -48 -64 -69c-81 -74 -129 -121 -129 -181c5 -30 23 -46 54 -46z" />
    <glyph glyph-name="cacute" unicode="&#x107;" horiz-adv-x="379" 
d="M141 -14c-66 0 -101 46 -101 116c0 63 34 154 90 217c60 67 125 95 180 95c58 0 102 -27 102 -77c0 -38 -32 -63 -68 -63c-25 0 -39 15 -40 37c-1 19 -1 59 -20 59c-16 0 -38 -19 -62 -63c-26 -49 -49 -113 -49 -182c0 -48 18 -66 42 -66s59 16 104 64
c13 0 23 -10 21 -22c-33 -52 -112 -115 -199 -115zM277 465l103 168c13 21 23 27 33 26c11 -1 20 -6 36 -18c16 -16 24 -27 23 -37c-1 -11 -11 -24 -24 -34l-148 -123c-14 -1 -22 6 -23 18z" />
    <glyph glyph-name="ccaron" unicode="&#x10d;" horiz-adv-x="379" 
d="M141 -14c-66 0 -101 46 -101 116c0 63 34 154 90 217c60 67 125 95 180 95c58 0 102 -27 102 -77c0 -38 -32 -63 -68 -63c-25 0 -39 15 -40 37c-1 19 -1 59 -20 59c-16 0 -38 -19 -62 -63c-26 -49 -49 -113 -49 -182c0 -48 18 -66 42 -66s59 16 104 64
c13 0 23 -10 21 -22c-33 -52 -112 -115 -199 -115zM255 677l51 -83c8 -13 13 -20 18 -20s14 9 27 22l86 83c12 0 23 -7 23 -20l-136 -191c-8 -11 -15 -13 -23 -13c-7 0 -17 2 -20 13l-52 191c3 11 14 17 26 18z" />
    <glyph glyph-name="dcaron" unicode="&#x10f;" horiz-adv-x="528" 
d="M352 414c25 0 44 -11 54 -25l65 195c12 36 11 47 -7 57l-28 16c-3 8 -3 17 5 24c31 13 134 32 181 34c7 -1 10 -4 10 -10c-16 -42 -28 -77 -46 -130l-145 -435c-11 -32 -16 -55 -17 -64c0 -6 3 -12 9 -12c11 0 60 30 91 63c12 -1 18 -8 16 -23
c-22 -33 -104 -118 -203 -118c-28 0 -38 21 -38 42c0 16 10 43 20 72l23 66h-2c-47 -71 -125 -180 -235 -180c-44 0 -74 39 -72 95c2 81 49 182 127 250c66 58 134 83 192 83zM232 247c-49 -70 -85 -156 -85 -182c0 -15 5 -22 15 -22c17 0 87 53 133 112c34 44 62 86 82 147
c13 38 5 68 -12 68c-6 0 -15 -1 -37 -17c-19 -14 -55 -47 -96 -106zM709 715c31 0 71 -28 71 -89c0 -69 -65 -126 -156 -148c-13 3 -16 19 -9 28c44 13 83 48 83 83c0 19 -10 30 -27 40c-9 5 -15 17 -15 31c0 28 23 55 53 55z" />
    <glyph glyph-name="dcroat" unicode="&#x111;" horiz-adv-x="528" 
d="M232 247c-49 -70 -85 -156 -85 -182c0 -15 5 -22 15 -22c17 0 87 53 133 112c34 44 62 86 82 147c13 38 5 68 -12 68c-6 0 -15 -1 -37 -17c-19 -14 -55 -47 -96 -106zM643 568l-18 -47h-57l-127 -381c-11 -32 -16 -55 -17 -64c0 -6 3 -12 9 -12c11 0 60 30 91 63
c12 -1 18 -8 16 -23c-22 -33 -104 -118 -203 -118c-28 0 -38 21 -38 42c0 16 10 43 20 72l23 66h-2c-47 -71 -125 -180 -235 -180c-44 0 -74 39 -72 95c2 81 49 182 127 250c66 58 134 83 192 83c25 0 44 -11 54 -25l44 132h-109l14 47h111l5 16c11 36 11 47 -7 57l-28 16
c-3 8 -3 17 5 24c31 13 134 32 181 34c7 -1 10 -4 10 -10c-16 -42 -31 -76 -46 -130l-2 -7h59z" />
    <glyph glyph-name="ecaron" unicode="&#x11b;" horiz-adv-x="401" 
d="M332 414c58 0 97 -36 97 -80c0 -103 -171 -151 -252 -172c-4 -12 -5 -27 -5 -48c0 -27 13 -55 43 -55c36 0 84 24 130 70c11 0 21 -10 20 -23c-48 -75 -128 -120 -218 -120c-72 0 -107 51 -107 115c0 90 56 195 135 255c56 43 110 58 157 58zM297 370
c-13 0 -28 -9 -43 -26c-36 -39 -60 -101 -69 -138c35 10 66 27 95 57c20 21 35 59 36 84c0 11 -7 23 -19 23zM265 672l48 -88c7 -13 13 -20 18 -20s14 9 27 22l89 88c12 0 23 -7 23 -20l-138 -191c-8 -11 -15 -13 -23 -13c-7 0 -17 2 -20 13l-50 191c3 11 14 17 26 18z" />
    <glyph glyph-name="edotaccent" unicode="&#x117;" horiz-adv-x="401" 
d="M332 414c58 0 97 -36 97 -80c0 -103 -171 -151 -252 -172c-4 -12 -5 -27 -5 -48c0 -27 13 -55 43 -55c36 0 84 24 130 70c11 0 21 -10 20 -23c-48 -75 -128 -120 -218 -120c-72 0 -107 51 -107 115c0 90 56 195 135 255c56 43 110 58 157 58zM297 370
c-13 0 -28 -9 -43 -26c-36 -39 -60 -101 -69 -138c35 10 66 27 95 57c20 21 35 59 36 84c0 11 -7 23 -19 23zM316 489c-36 0 -59 25 -54 62c4 36 32 62 68 62c34 0 61 -26 55 -65c-6 -34 -34 -59 -69 -59z" />
    <glyph glyph-name="emacron" unicode="&#x113;" horiz-adv-x="401" 
d="M332 414c58 0 97 -36 97 -80c0 -103 -171 -151 -252 -172c-4 -12 -5 -27 -5 -48c0 -27 13 -55 43 -55c36 0 84 24 130 70c11 0 21 -10 20 -23c-48 -75 -128 -120 -218 -120c-72 0 -107 51 -107 115c0 90 56 195 135 255c56 43 110 58 157 58zM297 370
c-13 0 -28 -9 -43 -26c-36 -39 -60 -101 -69 -138c35 10 66 27 95 57c20 21 35 59 36 84c0 11 -7 23 -19 23zM429 496h-223c-9 16 -3 60 12 72h223c10 -16 4 -56 -12 -72z" />
    <glyph glyph-name="eogonek" unicode="&#x119;" horiz-adv-x="401" 
d="M297 370c-13 0 -28 -9 -43 -26c-36 -39 -60 -101 -69 -138c35 10 66 27 95 57c20 21 35 59 36 84c0 11 -7 23 -19 23zM147 -14c-72 0 -107 51 -107 115c0 90 56 195 135 255c56 43 110 58 157 58c58 0 97 -36 97 -80c0 -103 -171 -151 -252 -172c-4 -12 -5 -27 -5 -48
c0 -27 13 -55 43 -55c36 0 84 24 130 70c11 0 21 -10 20 -23c-21 -28 -48 -55 -79 -81c-83 -70 -120 -116 -120 -173c5 -30 23 -46 54 -46c20 0 36 5 53 16c7 -2 9 -11 8 -20c-32 -40 -75 -55 -115 -55c-47 0 -91 23 -91 76c0 58 54 113 123 169c-8 -2 -16 -3 -25 -4
c-8 -1 -17 -2 -26 -2z" />
    <glyph glyph-name="gbreve" unicode="&#x11f;" horiz-adv-x="416" 
d="M280 370c-16 0 -35 -13 -56 -41c-29 -39 -62 -117 -62 -163c0 -19 10 -29 27 -29c22 0 48 30 72 74c20 35 44 99 44 127c0 21 -12 32 -25 32zM138 -269c-70 0 -187 20 -187 100c0 78 112 114 166 131c-20 14 -39 28 -39 54c0 25 41 63 63 79v2c-44 10 -88 43 -87 115
c0 69 66 202 230 202c16 0 30 -3 49 -10c16 -5 29 -16 38 -16c14 0 29 4 41 8c16 6 34 12 49 12c18 0 34 -12 34 -41c0 -34 -22 -41 -33 -41c-9 0 -17 2 -28 6c-9 3 -18 6 -25 6c-4 0 -8 -4 -7 -11c1 -8 3 -21 3 -28c0 -112 -92 -200 -218 -206c-6 -5 -15 -16 -15 -24
c0 -14 36 -35 70 -52c56 -28 149 -72 149 -151c0 -106 -170 -135 -253 -135zM161 -64c-10 0 -37 -9 -54 -23s-32 -36 -32 -61c0 -46 53 -72 117 -72c56 0 96 20 96 51c0 25 -20 48 -49 67c-38 24 -67 38 -78 38zM284 471c-73 0 -114 58 -88 157c9 5 20 5 32 0
c-2 -53 32 -84 67 -84c44 0 87 31 103 84c10 5 22 5 32 0c-10 -99 -49 -157 -146 -157z" />
    <glyph glyph-name="gcommaaccent" unicode="&#x123;" horiz-adv-x="416" 
d="M138 -269c-70 0 -187 20 -187 100c0 78 112 114 166 131c-20 14 -39 28 -39 54c0 25 41 63 63 79v2c-44 10 -88 43 -87 115c0 69 66 202 230 202c16 0 30 -3 49 -10c16 -5 29 -16 38 -16c14 0 29 4 41 8c16 6 34 12 49 12c18 0 34 -12 34 -41c0 -34 -22 -41 -33 -41
c-9 0 -17 2 -28 6c-9 3 -18 6 -25 6c-4 0 -8 -4 -7 -11c1 -8 3 -21 3 -28c0 -112 -92 -200 -218 -206c-6 -5 -15 -16 -15 -24c0 -14 36 -35 70 -52c56 -28 149 -72 149 -151c0 -106 -170 -135 -253 -135zM280 370c-16 0 -35 -13 -56 -41c-29 -39 -62 -117 -62 -163
c0 -19 10 -29 27 -29c22 0 48 30 72 74c20 35 44 99 44 127c0 21 -12 32 -25 32zM161 -64c-10 0 -37 -9 -54 -23s-32 -36 -32 -61c0 -46 53 -72 117 -72c56 0 96 20 96 51c0 25 -20 48 -49 67c-38 24 -67 38 -78 38zM312 474c-29 0 -68 27 -68 84c0 66 63 119 152 141
c11 -4 15 -18 8 -31c-43 -12 -80 -44 -80 -77c0 -15 9 -25 25 -35c10 -5 16 -17 16 -29c0 -27 -23 -53 -53 -53z" />
    <glyph glyph-name="imacron" unicode="&#x12b;" horiz-adv-x="309" 
d="M294 326l-104 -245c-4 -9 -3 -15 4 -15c14 0 69 39 94 63c12 0 22 -11 19 -24c-39 -52 -128 -119 -210 -119c-26 0 -46 28 -46 40c0 11 4 23 12 43l104 249c3 8 3 14 -2 14c-17 0 -73 -42 -89 -57c-12 2 -20 15 -16 24c54 66 148 115 201 115c22 0 46 -22 46 -44
c0 -10 -7 -29 -13 -44zM375 507h-223c-9 16 -3 56 12 72h223c10 -16 4 -56 -12 -72z" />
    <glyph glyph-name="iogonek" unicode="&#x12f;" horiz-adv-x="309" 
d="M261 414c22 0 46 -22 46 -44c0 -10 -7 -29 -13 -44l-104 -245c-4 -9 -3 -15 4 -15c14 0 69 39 94 63c12 0 22 -11 19 -24c-25 -34 -72 -74 -125 -98c-37 -34 -84 -85 -84 -136c4 -27 20 -41 48 -41c18 0 32 4 46 14c7 -2 9 -10 8 -18c-28 -35 -67 -49 -102 -49
c-42 0 -81 21 -81 71c0 51 46 101 92 139c-4 -1 -8 -1 -12 -1c-26 0 -46 28 -46 40c0 11 4 23 12 43l104 249c3 8 3 14 -2 14c-17 0 -73 -42 -89 -57c-12 2 -20 15 -16 24c54 66 148 115 201 115zM215 545c0 44 33 83 79 83c33 0 56 -22 56 -59c0 -44 -30 -81 -76 -81
c-37 0 -59 25 -59 57z" />
    <glyph glyph-name="kcommaaccent" unicode="&#x137;" horiz-adv-x="493" 
d="M440 414c58 0 85 -36 85 -74c0 -39 -20 -73 -56 -103c-38 -32 -89 -47 -123 -56c-7 -2 -8 -9 -6 -17c9 -39 18 -101 46 -101c20 0 50 29 72 52c9 3 20 -6 22 -17c-24 -48 -87 -112 -162 -112c-28 0 -49 15 -61 39s-21 57 -29 93c-3 13 -8 28 -20 28
c-22 0 -27 -10 -37 -36l-41 -106c-6 -15 -28 -18 -47 -18c-25 0 -69 8 -58 40l189 558c12 36 10 47 -8 57l-28 16c-3 8 -3 17 5 24c32 13 135 32 184 34c7 -1 10 -4 10 -10c-16 -42 -29 -77 -48 -130l-99 -282h3c24 30 53 59 85 81c40 28 74 40 122 40zM361 343
c-35 0 -81 -36 -140 -112c-12 -15 -21 -35 -21 -40c0 -4 5 -7 16 -7c22 0 60 10 106 41c39 27 71 56 71 86c0 21 -14 32 -32 32zM224 -42c32 0 75 -29 75 -92c0 -71 -68 -132 -167 -157c-13 8 -16 24 -8 33c46 14 88 50 88 85c0 20 -11 33 -29 42c-11 6 -16 17 -16 33
c0 28 25 56 57 56z" />
    <glyph glyph-name="lacute" unicode="&#x13a;" horiz-adv-x="275" 
d="M96 -14c-50 0 -64 23 -64 43c0 15 4 32 14 60l171 495c12 36 11 47 -7 57l-28 16c-3 8 -3 17 5 24c32 13 134 32 184 34c7 -1 10 -4 10 -10c-15 -42 -29 -78 -47 -131l-164 -475c-10 -28 -13 -46 1 -46c22 0 80 61 104 89c11 1 21 -9 19 -22c-29 -56 -84 -134 -198 -134z
M250 760l157 118c16 12 26 16 32 16c10 0 21 -8 33 -30c11 -20 12 -35 10 -42s-11 -18 -31 -24l-190 -62c-8 3 -14 14 -11 24z" />
    <glyph glyph-name="lcaron" unicode="&#x13e;" horiz-adv-x="275" 
d="M96 -14c-50 0 -64 23 -64 43c0 15 4 32 14 60l171 495c12 36 11 47 -7 57l-28 16c-3 8 -3 17 5 24c32 13 134 32 184 34c7 -1 10 -4 10 -10c-15 -42 -29 -78 -47 -131l-164 -475c-10 -28 -13 -46 1 -46c22 0 80 61 104 89c11 1 21 -9 19 -22c-29 -56 -84 -134 -198 -134z
M462 715c31 0 71 -28 71 -89c0 -69 -65 -126 -156 -148c-13 3 -16 19 -9 28c44 13 83 48 83 83c0 19 -10 30 -27 40c-9 5 -15 17 -15 31c0 28 23 55 53 55z" />
    <glyph glyph-name="lcommaaccent" unicode="&#x13c;" horiz-adv-x="275" 
d="M96 -14c-50 0 -64 23 -64 43c0 15 4 32 14 60l171 495c12 36 11 47 -7 57l-28 16c-3 8 -3 17 5 24c32 13 134 32 184 34c7 -1 10 -4 10 -10c-15 -42 -29 -78 -47 -131l-164 -475c-10 -28 -13 -46 1 -46c22 0 80 61 104 89c11 1 21 -9 19 -22c-29 -56 -84 -134 -198 -134z
M75 -42c32 0 75 -29 75 -92c0 -71 -68 -132 -167 -157c-13 8 -16 24 -8 33c46 14 88 50 88 85c0 20 -11 33 -29 42c-11 6 -16 17 -16 33c0 28 25 56 57 56z" />
    <glyph glyph-name="nacute" unicode="&#x144;" horiz-adv-x="544" 
d="M236 414c46 0 42 -40 33 -63l-47 -123h4c58 81 136 186 234 186c45 0 63 -32 63 -58c0 -24 -8 -58 -20 -89c-19 -50 -44 -108 -74 -179c-6 -14 -4 -22 4 -22c15 0 63 39 89 68c11 2 21 -6 20 -19c-28 -50 -111 -129 -210 -129c-23 0 -43 21 -43 39c0 15 7 35 15 54
c30 70 60 139 85 209c9 24 13 37 13 47c0 8 -4 14 -13 14c-14 0 -41 -19 -76 -64c-56 -72 -110 -185 -155 -281c-7 -14 -26 -18 -48 -18c-25 0 -64 8 -54 40c5 14 81 228 96 271c7 20 8 36 -4 36c-21 0 -62 -32 -85 -54c-10 0 -17 8 -18 16c26 52 110 119 191 119zM327 475
l103 168c13 21 23 27 33 26c11 -1 20 -6 36 -18c16 -16 24 -27 23 -37c-1 -11 -11 -24 -24 -34l-148 -123c-14 -1 -22 6 -23 18z" />
    <glyph glyph-name="ncaron" unicode="&#x148;" horiz-adv-x="544" 
d="M236 414c46 0 42 -40 33 -63l-47 -123h4c58 81 136 186 234 186c45 0 63 -32 63 -58c0 -24 -8 -58 -20 -89c-19 -50 -44 -108 -74 -179c-6 -14 -4 -22 4 -22c15 0 63 39 89 68c11 2 21 -6 20 -19c-28 -50 -111 -129 -210 -129c-23 0 -43 21 -43 39c0 15 7 35 15 54
c30 70 60 139 85 209c9 24 13 37 13 47c0 8 -4 14 -13 14c-14 0 -41 -19 -76 -64c-56 -72 -110 -185 -155 -281c-7 -14 -26 -18 -48 -18c-25 0 -64 8 -54 40c5 14 81 228 96 271c7 20 8 36 -4 36c-21 0 -62 -32 -85 -54c-10 0 -17 8 -18 16c26 52 110 119 191 119zM302 677
l51 -83c8 -13 13 -20 18 -20s14 9 27 22l86 83c12 0 23 -7 23 -20l-136 -191c-8 -11 -15 -13 -23 -13c-7 0 -17 2 -20 13l-52 191c3 11 14 17 26 18z" />
    <glyph glyph-name="ncommaaccent" unicode="&#x146;" horiz-adv-x="544" 
d="M236 414c46 0 42 -40 33 -63l-47 -123h4c58 81 136 186 234 186c45 0 63 -32 63 -58c0 -24 -8 -58 -20 -89c-19 -50 -44 -108 -74 -179c-6 -14 -4 -22 4 -22c15 0 63 39 89 68c11 2 21 -6 20 -19c-28 -50 -111 -129 -210 -129c-23 0 -43 21 -43 39c0 15 7 35 15 54
c30 70 60 139 85 209c9 24 13 37 13 47c0 8 -4 14 -13 14c-14 0 -41 -19 -76 -64c-56 -72 -110 -185 -155 -281c-7 -14 -26 -18 -48 -18c-25 0 -64 8 -54 40c5 14 81 228 96 271c7 20 8 36 -4 36c-21 0 -62 -32 -85 -54c-10 0 -17 8 -18 16c26 52 110 119 191 119zM239 -42
c32 0 75 -29 75 -92c0 -71 -68 -132 -167 -157c-13 8 -16 24 -8 33c46 14 88 50 88 85c0 20 -11 33 -29 42c-11 6 -16 17 -16 33c0 28 25 56 57 56z" />
    <glyph glyph-name="ohungarumlaut" unicode="&#x151;" horiz-adv-x="468" 
d="M317 370c-16 0 -33 -12 -54 -38c-36 -45 -99 -165 -99 -261c0 -25 12 -41 31 -41c25 0 47 23 74 67c27 45 76 155 76 231c0 21 -6 42 -28 42zM310 414c107 0 147 -74 147 -146s-35 -156 -93 -212c-52 -50 -112 -70 -170 -70c-102 0 -146 69 -145 139c1 77 38 168 105 226
c58 50 111 63 156 63zM240 472l49 177c6 22 15 28 24 28c10 0 21 -2 36 -10c17 -9 27 -20 29 -29c2 -12 -5 -24 -13 -36l-98 -145c-12 -2 -23 4 -27 15zM391 472l51 177c6 22 14 28 23 28c10 0 20 -2 34 -10c18 -9 28 -20 30 -29c2 -12 -4 -24 -12 -36l-99 -145
c-11 -2 -22 4 -27 15z" />
    <glyph glyph-name="omacron" unicode="&#x14d;" horiz-adv-x="468" 
d="M317 370c-16 0 -33 -12 -54 -38c-36 -45 -99 -165 -99 -261c0 -25 12 -41 31 -41c25 0 47 23 74 67c27 45 76 155 76 231c0 21 -6 42 -28 42zM310 414c107 0 147 -74 147 -146s-35 -156 -93 -212c-52 -50 -112 -70 -170 -70c-102 0 -146 69 -145 139c1 77 38 168 105 226
c58 50 111 63 156 63zM451 501h-223c-9 16 -3 60 12 72h223c10 -16 4 -56 -12 -72z" />
    <glyph glyph-name="racute" unicode="&#x155;" horiz-adv-x="397" 
d="M397 414c29 0 49 -19 49 -60c0 -57 -39 -98 -66 -98c-20 0 -24 20 -29 46c-3 17 -8 23 -16 23c-17 0 -43 -41 -69 -87c-45 -81 -73 -156 -105 -234c-6 -14 -26 -18 -48 -18c-25 0 -65 8 -55 40c29 92 66 197 94 283c6 19 7 32 -4 32c-17 0 -55 -29 -83 -61
c-12 1 -20 12 -18 23c20 40 84 111 157 111c58 0 60 -45 43 -96l-36 -106h5c33 59 59 102 83 133c31 42 62 69 98 69zM267 472l103 168c13 21 23 27 33 26c11 -1 20 -6 36 -18c16 -16 24 -27 23 -37c-1 -11 -11 -24 -24 -34l-148 -123c-14 -1 -22 6 -23 18z" />
    <glyph glyph-name="rcaron" unicode="&#x159;" horiz-adv-x="397" 
d="M397 414c29 0 49 -19 49 -60c0 -57 -39 -98 -66 -98c-20 0 -24 20 -29 46c-3 17 -8 23 -16 23c-17 0 -43 -41 -69 -87c-45 -81 -73 -156 -105 -234c-6 -14 -26 -18 -48 -18c-25 0 -65 8 -55 40c29 92 66 197 94 283c6 19 7 32 -4 32c-17 0 -55 -29 -83 -61
c-12 1 -20 12 -18 23c20 40 84 111 157 111c58 0 60 -45 43 -96l-36 -106h5c33 59 59 102 83 133c31 42 62 69 98 69zM249 677l51 -83c8 -13 13 -20 18 -20s14 9 27 22l86 83c12 0 23 -7 23 -20l-136 -191c-8 -11 -15 -13 -23 -13c-7 0 -17 2 -20 13l-52 191
c3 11 14 17 26 18z" />
    <glyph glyph-name="rcommaaccent" unicode="&#x157;" horiz-adv-x="397" 
d="M397 414c29 0 49 -19 49 -60c0 -57 -39 -98 -66 -98c-20 0 -24 20 -29 46c-3 17 -8 23 -16 23c-17 0 -43 -41 -69 -87c-45 -81 -73 -156 -105 -234c-6 -14 -26 -18 -48 -18c-25 0 -65 8 -55 40c29 92 66 197 94 283c6 19 7 32 -4 32c-17 0 -55 -29 -83 -61
c-12 1 -20 12 -18 23c20 40 84 111 157 111c58 0 60 -45 43 -96l-36 -106h5c33 59 59 102 83 133c31 42 62 69 98 69zM71 -52c32 0 75 -29 75 -92c0 -71 -68 -132 -167 -157c-13 8 -16 24 -8 33c46 14 88 50 88 85c0 20 -11 33 -29 42c-11 6 -16 17 -16 33c0 28 25 56 57 56
z" />
    <glyph glyph-name="sacute" unicode="&#x15b;" horiz-adv-x="324" 
d="M254 414c54 0 98 -35 98 -80c0 -39 -31 -52 -46 -52c-9 0 -17 7 -23 14c-40 46 -59 57 -79 57c-14 0 -26 -13 -26 -26c0 -11 6 -25 26 -45l38 -39c35 -36 51 -67 51 -102c0 -41 -22 -80 -60 -111c-34 -29 -77 -44 -125 -44c-46 0 -99 28 -99 77c0 32 23 58 49 58
c11 0 19 -10 31 -22c39 -41 59 -52 79 -52c18 0 34 14 34 29c0 14 -9 30 -29 51l-33 35c-31 32 -49 65 -49 101c0 43 26 83 56 109c29 24 66 42 107 42zM240 469l103 168c13 21 23 27 33 26c11 -1 20 -6 36 -18c16 -16 24 -27 23 -37c-1 -11 -11 -24 -24 -34l-148 -123
c-14 -1 -22 6 -23 18z" />
    <glyph glyph-name="scedilla" unicode="&#x15f;" horiz-adv-x="324" 
d="M254 414c54 0 98 -35 98 -80c0 -39 -31 -52 -46 -52c-9 0 -17 7 -23 14c-40 46 -59 57 -79 57c-14 0 -26 -13 -26 -26c0 -11 6 -25 26 -45l38 -39c35 -36 51 -67 51 -102c0 -41 -22 -80 -60 -111c-22 -19 -49 -32 -79 -38l-32 -44c-8 -10 -6 -13 8 -23
c23 -18 48 -43 48 -82c0 -55 -62 -92 -126 -92c-49 0 -77 15 -77 44c0 18 13 32 32 32c27 0 46 -36 67 -36c11 0 26 8 26 25c0 31 -26 56 -61 70l-4 9l63 93c-43 2 -89 29 -89 75c0 32 23 58 49 58c11 0 19 -10 31 -22c39 -41 59 -52 79 -52c18 0 34 14 34 29
c0 14 -9 30 -29 51l-33 35c-31 32 -49 65 -49 101c0 43 26 83 56 109c29 24 66 42 107 42z" />
    <glyph glyph-name="scedilla" unicode="&#xf6c2;" horiz-adv-x="324" 
d="M254 414c54 0 98 -35 98 -80c0 -39 -31 -52 -46 -52c-9 0 -17 7 -23 14c-40 46 -59 57 -79 57c-14 0 -26 -13 -26 -26c0 -11 6 -25 26 -45l38 -39c35 -36 51 -67 51 -102c0 -41 -22 -80 -60 -111c-22 -19 -49 -32 -79 -38l-32 -44c-8 -10 -6 -13 8 -23
c23 -18 48 -43 48 -82c0 -55 -62 -92 -126 -92c-49 0 -77 15 -77 44c0 18 13 32 32 32c27 0 46 -36 67 -36c11 0 26 8 26 25c0 31 -26 56 -61 70l-4 9l63 93c-43 2 -89 29 -89 75c0 32 23 58 49 58c11 0 19 -10 31 -22c39 -41 59 -52 79 -52c18 0 34 14 34 29
c0 14 -9 30 -29 51l-33 35c-31 32 -49 65 -49 101c0 43 26 83 56 109c29 24 66 42 107 42z" />
    <glyph glyph-name="scommaaccent" unicode="&#x219;" horiz-adv-x="324" 
d="M254 414c54 0 98 -35 98 -80c0 -39 -31 -52 -46 -52c-9 0 -17 7 -23 14c-40 46 -59 57 -79 57c-14 0 -26 -13 -26 -26c0 -11 6 -25 26 -45l38 -39c35 -36 51 -67 51 -102c0 -41 -22 -80 -60 -111c-34 -29 -77 -44 -125 -44c-46 0 -99 28 -99 77c0 32 23 58 49 58
c11 0 19 -10 31 -22c39 -41 59 -52 79 -52c18 0 34 14 34 29c0 14 -9 30 -29 51l-33 35c-31 32 -49 65 -49 101c0 43 26 83 56 109c29 24 66 42 107 42zM114 -42c32 0 75 -29 75 -92c0 -71 -68 -132 -167 -157c-13 8 -16 24 -8 33c46 14 88 50 88 85c0 20 -11 33 -29 42
c-11 6 -16 17 -16 33c0 28 25 56 57 56z" />
    <glyph glyph-name="tcaron" unicode="&#x165;" horiz-adv-x="321" 
d="M380 348h-101l-93 -259c-5 -14 -5 -23 6 -23c18 0 66 36 106 77c15 -1 21 -10 20 -23c-34 -51 -136 -134 -218 -134c-27 0 -46 22 -46 43c0 14 2 27 11 54l91 265h-74c-10 8 -3 32 8 38l87 18l72 96c9 6 22 8 34 8c14 0 31 -6 37 -17l-27 -91h92c16 -13 5 -45 -5 -52z
M455 715c31 0 71 -28 71 -89c0 -69 -65 -126 -156 -148c-13 3 -16 19 -9 28c44 13 83 48 83 83c0 19 -10 30 -27 40c-9 5 -15 17 -15 31c0 28 23 55 53 55z" />
    <glyph glyph-name="tcommaaccent" unicode="&#x163;" horiz-adv-x="321" 
d="M380 348h-101l-93 -259c-5 -14 -5 -23 6 -23c18 0 66 36 106 77c15 -1 21 -10 20 -23c-34 -51 -136 -134 -218 -134c-27 0 -46 22 -46 43c0 14 2 27 11 54l91 265h-74c-10 8 -3 32 8 38l87 18l72 96c9 6 22 8 34 8c14 0 31 -6 37 -17l-27 -91h92c16 -13 5 -45 -5 -52z
M118 -42c32 0 75 -29 75 -92c0 -71 -68 -132 -167 -157c-13 8 -16 24 -8 33c46 14 88 50 88 85c0 20 -11 33 -29 42c-11 6 -16 17 -16 33c0 28 25 56 57 56z" />
    <glyph glyph-name="tcommaaccent" unicode="&#x21b;" horiz-adv-x="321" 
d="M380 348h-101l-93 -259c-5 -14 -5 -23 6 -23c18 0 66 36 106 77c15 -1 21 -10 20 -23c-34 -51 -136 -134 -218 -134c-27 0 -46 22 -46 43c0 14 2 27 11 54l91 265h-74c-10 8 -3 32 8 38l87 18l72 96c9 6 22 8 34 8c14 0 31 -6 37 -17l-27 -91h92c16 -13 5 -45 -5 -52z
M118 -42c32 0 75 -29 75 -92c0 -71 -68 -132 -167 -157c-13 8 -16 24 -8 33c46 14 88 50 88 85c0 20 -11 33 -29 42c-11 6 -16 17 -16 33c0 28 25 56 57 56z" />
    <glyph glyph-name="uhungarumlaut" unicode="&#x171;" horiz-adv-x="543" 
d="M258 414c24 0 45 -23 45 -42c0 -8 -2 -21 -5 -28l-99 -243c-7 -18 -4 -27 8 -27c6 0 18 4 38 21c83 71 155 217 200 311c11 5 22 8 37 8c33 0 56 -11 70 -22c-38 -98 -79 -197 -114 -295c-4 -12 -8 -28 5 -28c16 0 66 39 91 65c12 -2 18 -9 18 -23
c-28 -49 -126 -125 -210 -125c-25 0 -46 21 -34 51l56 142h-2c-53 -75 -163 -193 -243 -193c-34 0 -55 24 -55 52c0 18 7 38 15 59l83 209c5 13 4 26 -4 26c-20 0 -61 -39 -89 -61c-11 4 -18 10 -17 24c38 51 130 119 206 119zM281 469l49 177c6 22 15 28 24 28
c10 0 21 -2 36 -10c17 -9 27 -20 29 -29c2 -12 -5 -24 -13 -36l-98 -145c-12 -2 -23 4 -27 15zM432 469l51 177c6 22 14 28 23 28c10 0 20 -2 34 -10c18 -9 28 -20 30 -29c2 -12 -4 -24 -12 -36l-99 -145c-11 -2 -22 4 -27 15z" />
    <glyph glyph-name="umacron" unicode="&#x16b;" horiz-adv-x="543" 
d="M258 414c24 0 45 -23 45 -42c0 -8 -2 -21 -5 -28l-99 -243c-7 -18 -4 -27 8 -27c6 0 18 4 38 21c83 71 155 217 200 311c11 5 22 8 37 8c33 0 56 -11 70 -22c-38 -98 -79 -197 -114 -295c-4 -12 -8 -28 5 -28c16 0 66 39 91 65c12 -2 18 -9 18 -23
c-28 -49 -126 -125 -210 -125c-25 0 -46 21 -34 51l56 142h-2c-53 -75 -163 -193 -243 -193c-34 0 -55 24 -55 52c0 18 7 38 15 59l83 209c5 13 4 26 -4 26c-20 0 -61 -39 -89 -61c-11 4 -18 10 -17 24c38 51 130 119 206 119zM490 498h-223c-9 16 -3 60 12 72h223
c10 -16 4 -56 -12 -72z" />
    <glyph glyph-name="uogonek" unicode="&#x173;" horiz-adv-x="543" 
d="M342 -14c-25 0 -46 21 -34 51l56 142h-2c-53 -75 -163 -193 -243 -193c-34 0 -55 24 -55 52c0 18 7 38 15 59l83 209c5 13 4 26 -4 26c-20 0 -61 -39 -89 -61c-11 4 -18 10 -17 24c38 51 130 119 206 119c24 0 45 -23 45 -42c0 -8 -2 -21 -5 -28l-99 -243
c-7 -18 -4 -27 8 -27c6 0 18 4 38 21c83 71 155 217 200 311c11 5 22 8 37 8c33 0 56 -11 70 -22c-38 -98 -79 -197 -114 -295c-4 -12 -8 -28 5 -28c16 0 66 39 91 65c12 -2 18 -9 18 -23c-12 -20 -39 -43 -71 -73c-84 -76 -130 -125 -130 -186c5 -30 23 -46 54 -46
c20 0 36 5 53 16c7 -2 9 -11 8 -20c-32 -40 -75 -55 -115 -55c-47 0 -91 23 -91 76c0 58 52 112 119 168c-6 -1 -13 -3 -19 -4c-6 0 -12 -1 -18 -1z" />
    </font>
</defs>
</svg>
